<?xml version="1.0" encoding="UTF-8" standalone="no"?>
<!-- Created with Inkscape (http://www.inkscape.org/) -->

<svg
   xmlns:dc="http://purl.org/dc/elements/1.1/"
   xmlns:cc="http://creativecommons.org/ns#"
   xmlns:rdf="http://www.w3.org/1999/02/22-rdf-syntax-ns#"
   xmlns:svg="http://www.w3.org/2000/svg"
   xmlns="http://www.w3.org/2000/svg"
   xmlns:sodipodi="http://sodipodi.sourceforge.net/DTD/sodipodi-0.dtd"
   xmlns:inkscape="http://www.inkscape.org/namespaces/inkscape"
   width="744.09448819"
   height="1052.3622047"
   id="svg7730"
   version="1.1"
   inkscape:version="0.48.2 r9819"
   sodipodi:docname="New document 25">
  <defs
     id="defs7732" />
  <sodipodi:namedview
     id="base"
     pagecolor="#ffffff"
     bordercolor="#666666"
     borderopacity="1.0"
     inkscape:pageopacity="0.0"
     inkscape:pageshadow="2"
     inkscape:zoom="0.35"
     inkscape:cx="375"
     inkscape:cy="520"
     inkscape:document-units="px"
     inkscape:current-layer="layer1"
     showgrid="false"
     inkscape:window-width="472"
     inkscape:window-height="383"
     inkscape:window-x="1"
     inkscape:window-y="53"
     inkscape:window-maximized="0" />
  <metadata
     id="metadata7735">
    <rdf:RDF>
      <cc:Work
         rdf:about="">
        <dc:format>image/svg+xml</dc:format>
        <dc:type
           rdf:resource="http://purl.org/dc/dcmitype/StillImage" />
        <dc:title></dc:title>
      </cc:Work>
    </rdf:RDF>
  </metadata>
  <g
     inkscape:label="Layer 1"
     inkscape:groupmode="layer"
     id="layer1">
    <path
       style="color:#000000;fill:none;stroke:#000000;stroke-width:1.5;stroke-linecap:butt;stroke-linejoin:miter;stroke-miterlimit:4;stroke-opacity:1;stroke-dasharray:none;stroke-dashoffset:0;marker:none;visibility:visible;display:inline;overflow:visible;enable-background:accumulate"
       d="m 217.22549,462.21032 74.86133,-26.56978"
       id="path4738-8-4-3-9"
       sodipodi:nodetypes="cc"
       inkscape:connector-curvature="0" />
    <path
       style="color:#000000;fill:none;stroke:#000000;stroke-width:1.5;stroke-linecap:butt;stroke-linejoin:miter;stroke-miterlimit:4;stroke-opacity:1;stroke-dasharray:none;stroke-dashoffset:0;marker:none;visibility:visible;display:inline;overflow:visible;enable-background:accumulate"
       d="m 217.22549,523.69396 74.77204,10.98141"
       id="path4738-8-4-9"
       sodipodi:nodetypes="cc"
       inkscape:connector-curvature="0" />
    <path
       id="path4938-5-3"
       d="m 349.49083,473.64505 0,40.51561"
       style="fill:none;stroke:#000000;stroke-width:1.5;stroke-linecap:butt;stroke-linejoin:miter;stroke-miterlimit:4;stroke-opacity:1;stroke-dasharray:none;display:inline"
       inkscape:connector-curvature="0" />
    <path
       sodipodi:nodetypes="cc"
       id="path5980"
       d="m 291.80331,435.40915 0,99.84174"
       style="fill:none;stroke:#000000;stroke-width:1.5;stroke-linecap:butt;stroke-linejoin:miter;stroke-miterlimit:4;stroke-opacity:1;stroke-dasharray:none;display:inline"
       inkscape:connector-curvature="0" />
    <path
       id="path5982"
       d="m 291.83428,435.388 29.04535,15.3052"
       style="fill:none;stroke:#000000;stroke-width:1.5;stroke-linecap:butt;stroke-linejoin:miter;stroke-miterlimit:4;stroke-opacity:1;stroke-dasharray:none;display:inline"
       sodipodi:nodetypes="cc"
       inkscape:connector-curvature="0" />
    <path
       sodipodi:nodetypes="cc"
       id="path5984"
       d="m 291.94139,534.73151 28.93824,-7.31495"
       style="fill:none;stroke:#000000;stroke-width:1.5;stroke-linecap:butt;stroke-linejoin:miter;stroke-miterlimit:4;stroke-opacity:1;stroke-dasharray:none;display:inline"
       inkscape:connector-curvature="0" />
    <path
       id="path5986"
       d="m 349.67245,473.72745 -28.63858,-12.8618"
       style="fill:none;stroke:#000000;stroke-width:1.5;stroke-linecap:butt;stroke-linejoin:miter;stroke-miterlimit:4;stroke-opacity:1;stroke-dasharray:none;display:inline"
       inkscape:connector-curvature="0" />
    <path
       id="path5988"
       d="m 349.24646,513.65518 -28.35801,4.33229"
       style="fill:none;stroke:#000000;stroke-width:1.5;stroke-linecap:butt;stroke-linejoin:miter;stroke-miterlimit:4;stroke-opacity:1;stroke-dasharray:none;display:inline"
       sodipodi:nodetypes="cc"
       inkscape:connector-curvature="0" />
    <path
       sodipodi:nodetypes="cc"
       id="path5990"
       d="m 320.88845,450.78869 0,76.5487"
       style="fill:none;stroke:#000000;stroke-width:1.5;stroke-linecap:butt;stroke-linejoin:miter;stroke-miterlimit:4;stroke-opacity:1;stroke-dasharray:none;display:inline"
       inkscape:connector-curvature="0" />
    <path
       sodipodi:nodetypes="cc"
       style="fill:none;stroke:#808080;stroke-width:1.7275691;stroke-linecap:butt;stroke-linejoin:miter;stroke-miterlimit:4;stroke-opacity:1;stroke-dasharray:1.72756906, 1.72756906;stroke-dashoffset:0;display:inline"
       d="m 349.49083,424.07983 0,136.24611"
       id="path4095-6-7"
       inkscape:connector-curvature="0" />
    <rect
       style="fill:none;stroke:#000000;stroke-width:0.9570145;stroke-miterlimit:4;stroke-opacity:1;stroke-dasharray:none;display:inline"
       id="rect4089-7-2"
       width="166.99834"
       height="126.6884"
       x="217.04385"
       y="427.78226" />
    <path
       sodipodi:nodetypes="cc"
       style="fill:none;stroke:#808080;stroke-width:1.7275691;stroke-linecap:butt;stroke-linejoin:miter;stroke-miterlimit:4;stroke-opacity:1;stroke-dasharray:1.72756906, 1.72756906;stroke-dashoffset:0;display:inline"
       d="m 292.08682,423.96266 0,135.6931"
       id="path4095-8-9-9"
       inkscape:connector-curvature="0" />
    <path
       sodipodi:nodetypes="cc"
       style="fill:none;stroke:#808080;stroke-width:1.7275691;stroke-linecap:butt;stroke-linejoin:miter;stroke-miterlimit:4;stroke-opacity:1;stroke-dasharray:1.72756906, 1.72756906;stroke-dashoffset:0;display:inline"
       d="m 320.87963,423.96266 0,136.79904"
       id="path4095-9-4-4"
       inkscape:connector-curvature="0" />
    <path
       style="color:#000000;fill:#00ff00;fill-opacity:0.11764706;stroke:#000000;stroke-width:0.25253814;stroke-linecap:butt;stroke-linejoin:miter;stroke-miterlimit:4;stroke-opacity:1;stroke-dasharray:0.25253814, 1.01015255;stroke-dashoffset:0;marker:none;visibility:visible;display:inline;overflow:visible;enable-background:accumulate"
       d="m 292.60935,436.83151 c -0.5932,1.98446 -0.17176,4.2139 -0.33935,6.28189 0.1728,1.49848 -0.3347,3.21696 0.33146,4.59304 0.46055,0.47433 1.48959,0.63094 0.7734,1.38896 -1.48968,0.13001 -0.87827,2.1891 -1.06848,3.18028 0.0272,6.7869 -0.14587,13.5934 0.16092,20.3689 0.0957,0.65048 0.98516,0.68747 0.66291,1.45999 -1.24039,0.50307 -0.49627,2.32169 -0.76551,3.33823 -0.0388,18.21107 -0.2,36.42547 0.0395,54.63505 -0.0652,0.96749 0.1902,2.57683 1.50641,1.89933 8.60935,-2.25013 17.3002,-4.24157 25.86241,-6.64231 1.1004,-1.13929 0.45438,-3.04388 0.69236,-4.48252 0.0799,-22.48106 -0.23499,-44.96318 0.0574,-67.4435 -0.13476,-1.59893 0.29167,-3.43848 -0.50508,-4.85347 -8.90068,-4.62909 -17.69771,-9.49216 -26.70591,-13.8817 -0.2575,-0.1472 -0.46921,0.10084 -0.70237,0.15783 z m 3.5671,12.71372 c 0.67878,-0.0151 0.72312,0.84894 0.26832,1.01015 -0.68384,-0.13384 -0.75994,-0.61411 -0.26832,-1.01015 z m 3.22775,1.49155 c 0.74073,-0.002 0.65908,0.61536 0.21308,0.90756 -0.63824,-0.0778 -0.82845,-0.69356 -0.21308,-0.90756 z m 3.27511,1.4521 c 0.73711,0.0192 0.21228,1.34192 -0.34724,0.71026 -0.41431,0.14881 0.0773,-1.17835 0.34724,-0.71026 z m 2.91997,1.33372 c 0.74365,-0.0335 0.75543,0.6968 0.28411,0.98647 -0.72838,-0.13838 -0.68238,-0.46174 -0.28411,-0.98647 z m 3.32246,1.47577 c 1.00146,0.0813 0.0805,1.50632 -0.50508,0.59977 0.14989,-0.15921 0.21003,-0.74285 0.50508,-0.59977 z m 2.95943,1.31793 c 0.66774,0.0594 0.75528,0.87123 0.24464,1.04172 -0.68681,-0.23689 -0.57387,-0.44781 -0.24464,-1.04172 z m 3.19618,1.47577 c 0.76128,0.0705 0.78041,0.68282 0.26832,1.03383 -0.7975,-0.30294 -0.69209,-0.37421 -0.26832,-1.03383 z m 3.21986,1.50734 c 0.94962,-0.007 0.25868,1.62107 -0.37794,0.66537 -0.14914,-0.0463 0.17959,-0.82753 0.37794,-0.66537 z m -22.29438,13.77911 c 0.98983,-0.4855 0.94143,1.3021 -0.0395,0.7734 -0.0757,-0.069 -0.15785,-0.76336 0.0395,-0.7734 z m 6.81853,0 c 0.98983,-0.4855 0.94143,1.3021 -0.0395,0.7734 -0.0757,-0.069 -0.15785,-0.76336 0.0395,-0.7734 z m 3.53553,0 c 0.98984,-0.4855 0.94144,1.3021 -0.0394,0.7734 -0.0757,-0.069 -0.15786,-0.76336 0.0394,-0.7734 z m 3.45662,0 c 1.24385,-0.36916 0.0405,1.7196 -0.0158,0.3867 0.0494,-0.0911 -0.0352,-0.28866 0.0158,-0.3867 z m 3.36191,0 c 0.98984,-0.4855 0.94144,1.3021 -0.0395,0.7734 -0.0757,-0.069 -0.15786,-0.76336 0.0395,-0.7734 z m 3.53554,0 c 0.98983,-0.4855 0.94143,1.3021 -0.0395,0.7734 -0.0757,-0.069 -0.15786,-0.76336 0.0395,-0.7734 z m -16.74644,0.37091 c 0.073,0.8721 -1.14115,0.31455 -0.66291,-0.27621 0.26583,0.0558 0.90222,-0.35868 0.66291,0.27621 z"
       id="path4143"
       inkscape:connector-curvature="0" />
    <path
       style="color:#000000;fill:#00ff00;fill-opacity:0.11764706;stroke:#000000;stroke-width:0.25253814;stroke-linecap:butt;stroke-linejoin:miter;stroke-miterlimit:4;stroke-opacity:1;stroke-dasharray:0.25253814, 1.01015255;stroke-dashoffset:0;marker:none;visibility:visible;display:inline;overflow:visible;enable-background:accumulate"
       d="m 322.04583,461.88803 c -1.26607,0.51819 -0.48447,2.33492 -0.74508,3.40129 -0.20504,17.23744 -0.0926,34.47686 -0.12302,51.71516 0.60083,1.26613 2.31965,0.0703 3.41919,0.16794 7.97173,-1.2159 15.96213,-2.47442 23.92595,-3.64034 1.15772,-0.72687 0.31897,-2.49162 0.61227,-3.63799 0.097,-11.70599 0.0456,-23.41248 0.0585,-35.11872 -0.26963,-1.10195 -1.67554,-0.16453 -2.13079,-1.14431 -0.60596,-0.63462 -2.19101,-0.98736 -2.14658,0.29989 -0.52403,0.81773 -0.95293,-0.37043 -0.82864,-1.07329 -0.0812,-0.97187 -1.27642,-1.00592 -1.46788,-1.88615 -0.70903,-1.05346 -2.09651,0.0221 -2.78581,-0.8602 -0.32843,-1.06707 -1.60317,-1.15612 -2.47803,-1.02594 -1.00129,-0.19623 -1.13338,-1.51085 -2.27284,-1.55469 -0.57871,-0.0257 -1.3113,0.3701 -1.62572,-0.37881 -0.45226,-0.99776 -1.56749,-0.98172 -2.45435,-0.94701 -0.87587,-0.0731 -0.74495,-1.2603 -1.70463,-1.34161 -0.72065,-0.33124 -1.75415,0.32767 -2.1229,-0.63135 -0.65972,-1.39185 -2.86513,-0.0832 -3.34613,-1.66517 -0.46746,-0.43035 -1.1395,-0.73304 -1.78355,-0.6787 z m 1.48366,11.49049 c 0.98983,-0.4855 0.94143,1.3021 -0.0395,0.7734 -0.0757,-0.069 -0.15786,-0.76336 0.0395,-0.7734 z m 3.53553,0 c 0.98983,-0.4855 0.94144,1.3021 -0.0395,0.7734 -0.0757,-0.069 -0.15785,-0.76336 0.0395,-0.7734 z m 3.45662,0 c 1.24385,-0.36916 0.0405,1.7196 -0.0158,0.3867 0.0494,-0.0911 -0.0352,-0.28866 0.0158,-0.3867 z m 3.36191,0 c 0.98983,-0.4855 0.94143,1.3021 -0.0395,0.7734 -0.0757,-0.069 -0.15785,-0.76336 0.0395,-0.7734 z m 3.53554,0 c 0.98983,-0.4855 0.94143,1.3021 -0.0395,0.7734 -0.0757,-0.069 -0.15786,-0.76336 0.0395,-0.7734 z m 3.45661,0 c 1.24386,-0.36916 0.0405,1.7196 -0.0158,0.3867 0.0494,-0.0911 -0.0352,-0.28866 0.0158,-0.3867 z"
       id="path4145"
       inkscape:connector-curvature="0" />
    <path
       style="color:#000000;fill:#ff0000;fill-opacity:0.11764706;stroke:#000000;stroke-width:0.25299999;stroke-linecap:butt;stroke-linejoin:miter;stroke-miterlimit:4;stroke-opacity:1;stroke-dasharray:0.253, 1.012;stroke-dashoffset:0;marker:none;visibility:visible;display:inline;overflow:visible;enable-background:accumulate"
       d="m 290.57688,436.53952 c -4.08651,1.42234 -8.34361,2.57421 -12.19286,4.57725 -0.5592,0.3683 -0.7671,1.02302 -1.50733,0.64713 -4.7581,1.02106 -9.27572,3.00686 -13.90635,4.50319 -15.17014,5.3467 -30.31995,10.74865 -45.47958,16.12602 -0.89253,1.24434 -0.18364,3.12739 -0.41037,4.6325 0,18.61942 0,37.23885 0,55.85827 0.81226,1.27512 2.929,0.68302 4.27629,1.16821 23.06015,3.38087 46.11443,6.84494 69.18074,10.15655 1.32288,-0.40633 0.66707,-2.37377 0.90756,-3.42505 0.2181,-26.23902 0.11893,-52.48106 0.005,-78.72076 -0.1579,-1.41962 0.23618,-3.06293 -0.27341,-4.3485 -0.4296,-0.24279 -1.32119,0.13425 -1.56258,-0.42616 0.0687,-1.24888 1.2347,0.27208 1.69674,-0.71026 0.54515,-2.62659 0.14764,-5.40824 0.1894,-8.08911 -0.11225,-0.68426 0.16009,-1.98847 -0.92334,-1.94928 z m -10.05417,5.83205 c 1.00832,-0.005 0.3897,1.46592 -0.25276,0.74622 -0.38364,-0.0347 0.16953,-0.60117 0.25276,-0.74622 z m 3.14094,1.42053 c 0.78097,-0.0519 0.60802,1.03992 0.0552,0.97858 -0.70138,-0.0325 -0.30772,-0.86301 -0.0552,-0.97858 z m 3.07781,1.42052 c 0.76128,0.0705 0.7804,0.68282 0.26832,1.03383 -0.79751,-0.30293 -0.6921,-0.37421 -0.26832,-1.03383 z m -66.80423,28.1659 c 0.98983,-0.4855 0.94143,1.3021 -0.0395,0.7734 -0.0757,-0.069 -0.15786,-0.76336 0.0395,-0.7734 z m 6.81853,0 c 0.98983,-0.4855 0.94143,1.3021 -0.0395,0.7734 -0.0757,-0.069 -0.15786,-0.76336 0.0395,-0.7734 z m 3.53553,0 c 0.98983,-0.4855 0.94143,1.3021 -0.0395,0.7734 -0.0757,-0.069 -0.15785,-0.76336 0.0395,-0.7734 z m 10.35406,0 c 0.98984,-0.4855 0.94144,1.3021 -0.0394,0.7734 -0.0757,-0.069 -0.15786,-0.76336 0.0394,-0.7734 z m 3.53554,0 c 0.98983,-0.4855 0.94143,1.3021 -0.0395,0.7734 -0.0757,-0.069 -0.15785,-0.76336 0.0395,-0.7734 z m 6.81853,0 c 0.98983,-0.4855 0.94143,1.3021 -0.0395,0.7734 -0.0757,-0.069 -0.15785,-0.76336 0.0395,-0.7734 z m 3.53553,0 c 0.98983,-0.4855 0.94143,1.3021 -0.0395,0.7734 -0.0757,-0.069 -0.15785,-0.76336 0.0395,-0.7734 z m 3.45662,0 c 1.24385,-0.36916 0.0404,1.7196 -0.0158,0.3867 0.0494,-0.0911 -0.0352,-0.28866 0.0158,-0.3867 z m 3.36191,0 c 0.98983,-0.4855 0.94143,1.3021 -0.0395,0.7734 -0.0757,-0.069 -0.15785,-0.76336 0.0395,-0.7734 z m 3.53554,0 c 0.98983,-0.4855 0.94143,1.3021 -0.0395,0.7734 -0.0757,-0.069 -0.15786,-0.76336 0.0395,-0.7734 z m 3.45661,0 c 1.24386,-0.36916 0.0404,1.7196 -0.0158,0.3867 0.0494,-0.0911 -0.0352,-0.28866 0.0158,-0.3867 z m 3.36192,0 c 0.98983,-0.4855 0.94143,1.3021 -0.0395,0.7734 -0.0757,-0.069 -0.15786,-0.76336 0.0395,-0.7734 z m 3.53553,0 c 0.98983,-0.4855 0.94143,1.3021 -0.0395,0.7734 -0.0757,-0.069 -0.15785,-0.76336 0.0395,-0.7734 z m 3.45662,0 c 1.24385,-0.36916 0.0404,1.7196 -0.0158,0.3867 0.0494,-0.0911 -0.0352,-0.28866 0.0158,-0.3867 z m 3.36191,0 c 0.98983,-0.4855 0.94143,1.3021 -0.0395,0.7734 -0.0757,-0.069 -0.15785,-0.76336 0.0395,-0.7734 z m 3.53553,0 c 0.98983,-0.4855 0.94144,1.3021 -0.0395,0.7734 -0.0757,-0.069 -0.15785,-0.76336 0.0395,-0.7734 z m 3.45662,0 c 1.24385,-0.36916 0.0405,1.7196 -0.0158,0.3867 0.0494,-0.0911 -0.0352,-0.28866 0.0158,-0.3867 z m -65.41527,0.0473 c 0.73444,-0.25183 0.63559,1.17584 -0.11049,0.72605 -0.2157,0.2039 -0.3097,-1.11878 0.11049,-0.72605 z m 10.35406,0 c 0.73444,-0.25183 0.6356,1.17584 -0.11048,0.72605 -0.2157,0.2039 -0.30971,-1.11878 0.11048,-0.72605 z m 3.79597,0.32356 c 0.073,0.8721 -1.14116,0.31455 -0.66292,-0.27621 0.26583,0.0558 0.90222,-0.35868 0.66292,0.27621 z m 10.35406,0 c 0.073,0.8721 -1.14115,0.31455 -0.66291,-0.27621 0.26582,0.0558 0.90222,-0.35868 0.66291,0.27621 z"
       id="path4155"
       inkscape:connector-curvature="0" />
    <path
       style="fill:#ff0000;fill-opacity:0.11764706;stroke:#000000;stroke-width:1px;stroke-linecap:butt;stroke-linejoin:miter;stroke-opacity:1;display:inline"
       d="m 384.54885,468.07814 -35.71428,5.71429 0,39.28571 35,2.14286 z"
       id="path3279-7"
       inkscape:connector-curvature="0" />
    <path
       style="fill:none;stroke:#ff0000;stroke-width:8;stroke-linecap:butt;stroke-linejoin:miter;stroke-miterlimit:4;stroke-opacity:1;stroke-dasharray:none;display:inline"
       d="m 216.15734,522.60149 74.75129,13.13199 30.30457,-8.08122"
       id="path7400"
       inkscape:connector-curvature="0" />
    <path
       style="fill:none;stroke:#ff0000;stroke-width:8;stroke-linecap:butt;stroke-linejoin:miter;stroke-miterlimit:4;stroke-opacity:1;stroke-dasharray:none;display:inline"
       d="m 321.2132,518.56088 28.28427,-6.06091 34.34519,2.0203"
       id="path7402"
       inkscape:connector-curvature="0" />
  </g>
</svg>
