<?xml version="1.0" encoding="UTF-8" standalone="no"?>
<!-- Created with Inkscape (http://www.inkscape.org/) -->

<svg
   xmlns:ns0="http://www.iki.fi/pav/software/textext/"
   xmlns:dc="http://purl.org/dc/elements/1.1/"
   xmlns:cc="http://creativecommons.org/ns#"
   xmlns:rdf="http://www.w3.org/1999/02/22-rdf-syntax-ns#"
   xmlns:svg="http://www.w3.org/2000/svg"
   xmlns="http://www.w3.org/2000/svg"
   xmlns:sodipodi="http://sodipodi.sourceforge.net/DTD/sodipodi-0.dtd"
   xmlns:inkscape="http://www.inkscape.org/namespaces/inkscape"
   width="744.09448819"
   height="1052.3622047"
   id="svg24552"
   version="1.1"
   inkscape:version="0.47 r22583"
   sodipodi:docname="kinked-wall.svg">
  <defs
     id="defs24554">
    <marker
       inkscape:stockid="Arrow1Mend"
       orient="auto"
       refY="0.0"
       refX="0.0"
       id="Arrow1Mend"
       style="overflow:visible;">
      <path
         id="path4400"
         d="M 0.0,0.0 L 5.0,-5.0 L -12.5,0.0 L 5.0,5.0 L 0.0,0.0 z "
         style="fill-rule:evenodd;stroke:#000000;stroke-width:1.0pt;marker-start:none;"
         transform="scale(0.4) rotate(180) translate(10,0)" />
    </marker>
    <inkscape:perspective
       sodipodi:type="inkscape:persp3d"
       inkscape:vp_x="0 : 526.18109 : 1"
       inkscape:vp_y="0 : 1000 : 0"
       inkscape:vp_z="744.09448 : 526.18109 : 1"
       inkscape:persp3d-origin="372.04724 : 350.78739 : 1"
       id="perspective24560" />
    <inkscape:perspective
       id="perspective24494"
       inkscape:persp3d-origin="0.5 : 0.33333333 : 1"
       inkscape:vp_z="1 : 0.5 : 1"
       inkscape:vp_y="0 : 1000 : 0"
       inkscape:vp_x="0 : 0.5 : 1"
       sodipodi:type="inkscape:persp3d" />
    <marker
       style="overflow:visible"
       id="Arrow2Mend"
       refX="0"
       refY="0"
       orient="auto"
       inkscape:stockid="Arrow2Mend">
      <path
         transform="scale(-0.6,-0.6)"
         d="M 8.7185878,4.0337352 -2.2072895,0.01601326 8.7185884,-4.0017078 c -1.7454984,2.3720609 -1.7354408,5.6174519 -6e-7,8.035443 z"
         style="font-size:12px;fill-rule:evenodd;stroke-width:0.625;stroke-linejoin:round"
         id="path8420" />
    </marker>
    <inkscape:perspective
       id="perspective24685"
       inkscape:persp3d-origin="0.5 : 0.33333333 : 1"
       inkscape:vp_z="1 : 0.5 : 1"
       inkscape:vp_y="0 : 1000 : 0"
       inkscape:vp_x="0 : 0.5 : 1"
       sodipodi:type="inkscape:persp3d" />
    <inkscape:perspective
       id="perspective24710"
       inkscape:persp3d-origin="0.5 : 0.33333333 : 1"
       inkscape:vp_z="1 : 0.5 : 1"
       inkscape:vp_y="0 : 1000 : 0"
       inkscape:vp_x="0 : 0.5 : 1"
       sodipodi:type="inkscape:persp3d" />
    <inkscape:perspective
       id="perspective24732"
       inkscape:persp3d-origin="0.5 : 0.33333333 : 1"
       inkscape:vp_z="1 : 0.5 : 1"
       inkscape:vp_y="0 : 1000 : 0"
       inkscape:vp_x="0 : 0.5 : 1"
       sodipodi:type="inkscape:persp3d" />
    <inkscape:perspective
       id="perspective24754"
       inkscape:persp3d-origin="0.5 : 0.33333333 : 1"
       inkscape:vp_z="1 : 0.5 : 1"
       inkscape:vp_y="0 : 1000 : 0"
       inkscape:vp_x="0 : 0.5 : 1"
       sodipodi:type="inkscape:persp3d" />
    <inkscape:perspective
       id="perspective25294"
       inkscape:persp3d-origin="0.5 : 0.33333333 : 1"
       inkscape:vp_z="1 : 0.5 : 1"
       inkscape:vp_y="0 : 1000 : 0"
       inkscape:vp_x="0 : 0.5 : 1"
       sodipodi:type="inkscape:persp3d" />
    <inkscape:perspective
       id="perspective25318"
       inkscape:persp3d-origin="0.5 : 0.33333333 : 1"
       inkscape:vp_z="1 : 0.5 : 1"
       inkscape:vp_y="0 : 1000 : 0"
       inkscape:vp_x="0 : 0.5 : 1"
       sodipodi:type="inkscape:persp3d" />
    <inkscape:perspective
       id="perspective25662"
       inkscape:persp3d-origin="0.5 : 0.33333333 : 1"
       inkscape:vp_z="1 : 0.5 : 1"
       inkscape:vp_y="0 : 1000 : 0"
       inkscape:vp_x="0 : 0.5 : 1"
       sodipodi:type="inkscape:persp3d" />
    <inkscape:perspective
       id="perspective25697"
       inkscape:persp3d-origin="0.5 : 0.33333333 : 1"
       inkscape:vp_z="1 : 0.5 : 1"
       inkscape:vp_y="0 : 1000 : 0"
       inkscape:vp_x="0 : 0.5 : 1"
       sodipodi:type="inkscape:persp3d" />
    <inkscape:perspective
       id="perspective26478"
       inkscape:persp3d-origin="0.5 : 0.33333333 : 1"
       inkscape:vp_z="1 : 0.5 : 1"
       inkscape:vp_y="0 : 1000 : 0"
       inkscape:vp_x="0 : 0.5 : 1"
       sodipodi:type="inkscape:persp3d" />
    <marker
       inkscape:stockid="Arrow1Mend"
       orient="auto"
       refY="0"
       refX="0"
       id="Arrow1Mend-3"
       style="overflow:visible">
      <path
         id="path4400-7"
         d="M 0,0 5,-5 -12.5,0 5,5 0,0 z"
         style="fill-rule:evenodd;stroke:#000000;stroke-width:1pt;marker-start:none"
         transform="matrix(-0.4,0,0,-0.4,-4,0)" />
    </marker>
  </defs>
  <sodipodi:namedview
     id="base"
     pagecolor="#ffffff"
     bordercolor="#666666"
     borderopacity="1.0"
     inkscape:pageopacity="0.0"
     inkscape:pageshadow="2"
     inkscape:zoom="1.979899"
     inkscape:cx="241.72425"
     inkscape:cy="816.96387"
     inkscape:document-units="px"
     inkscape:current-layer="layer1"
     showgrid="false"
     inkscape:window-width="993"
     inkscape:window-height="952"
     inkscape:window-x="81"
     inkscape:window-y="43"
     inkscape:window-maximized="0" />
  <metadata
     id="metadata24557">
    <rdf:RDF>
      <cc:Work
         rdf:about="">
        <dc:format>image/svg+xml</dc:format>
        <dc:type
           rdf:resource="http://purl.org/dc/dcmitype/StillImage" />
        <dc:title></dc:title>
      </cc:Work>
    </rdf:RDF>
  </metadata>
  <g
     inkscape:label="Layer 1"
     inkscape:groupmode="layer"
     id="layer1">
    <path
       style="fill:none;stroke:#000000;stroke-width:2.5;stroke-linecap:butt;stroke-linejoin:miter;stroke-miterlimit:4;stroke-opacity:1;stroke-dasharray:4.99999998, 2.49999999;stroke-dashoffset:0"
       d="m 401.59582,288.79075 -150.13847,0"
       id="path25308-4" />
    <path
       style="fill:none;stroke:#000000;stroke-width:2.5;stroke-linecap:butt;stroke-linejoin:miter;stroke-miterlimit:4;stroke-opacity:1;stroke-dasharray:4.99999998, 2.49999999;stroke-dashoffset:0"
       d="m 401.59582,256.02289 -150.13847,0"
       id="path25308" />
    <path
       transform="matrix(-3,0,0,3,591.98145,-119.24747)"
       sodipodi:type="arc"
       style="color:#000000;fill:#000000;fill-opacity:1;stroke:none;stroke-width:12.5;marker:none;visibility:visible;display:inline;overflow:visible;enable-background:accumulate"
       id="path7657-9-6-3-9-7"
       sodipodi:cx="110"
       sodipodi:cy="142.36218"
       sodipodi:rx="2"
       sodipodi:ry="2"
       d="m 112,142.36218 a 2,2 0 1 1 -4,0 2,2 0 1 1 4,0 z" />
    <path
       style="fill:none;stroke:#000000;stroke-width:2.5;stroke-linecap:butt;stroke-linejoin:miter;stroke-miterlimit:4;stroke-opacity:1;stroke-dasharray:5.00000002, 2.5;stroke-dashoffset:0;display:inline"
       d="m 347.02479,213.67966 0,101.9816"
       id="path7105"
       sodipodi:nodetypes="cc" />
    <path
       transform="matrix(-3,0,0,3,735.60854,-206.22037)"
       sodipodi:type="arc"
       style="color:#000000;fill:#000000;fill-opacity:1;stroke:none;stroke-width:12.5;marker:none;visibility:visible;display:inline;overflow:visible;enable-background:accumulate"
       id="path7657-9-6"
       sodipodi:cx="110"
       sodipodi:cy="142.36218"
       sodipodi:rx="2"
       sodipodi:ry="2"
       d="m 112,142.36218 a 2,2 0 1 1 -4,0 2,2 0 1 1 4,0 z" />
    <path
       transform="matrix(-3,0,0,3,677.31466,-171.22965)"
       sodipodi:type="arc"
       style="color:#000000;fill:#000000;fill-opacity:1;stroke:none;stroke-width:12.5;marker:none;visibility:visible;display:inline;overflow:visible;enable-background:accumulate"
       id="path7657-9-6-3"
       sodipodi:cx="110"
       sodipodi:cy="142.36218"
       sodipodi:rx="2"
       sodipodi:ry="2"
       d="m 112,142.36218 a 2,2 0 1 1 -4,0 2,2 0 1 1 4,0 z" />
    <path
       transform="matrix(-3,0,0,3,677.31466,-138.58007)"
       sodipodi:type="arc"
       style="color:#000000;fill:#000000;fill-opacity:1;stroke:none;stroke-width:12.5;marker:none;visibility:visible;display:inline;overflow:visible;enable-background:accumulate"
       id="path7657-9-6-3-9"
       sodipodi:cx="110"
       sodipodi:cy="142.36218"
       sodipodi:rx="2"
       sodipodi:ry="2"
       d="m 112,142.36218 a 2,2 0 1 1 -4,0 2,2 0 1 1 4,0 z" />
    <path
       style="fill:#666666;stroke:#008000;stroke-width:2.5;stroke-linecap:round;stroke-linejoin:miter;stroke-miterlimit:4;stroke-opacity:1;stroke-dasharray:none;stroke-dashoffset:0;display:inline"
       d="m 405.10346,220.86616 -142.7215,87.68909"
       id="path7111"
       sodipodi:nodetypes="cc" />
    <g
       style="font-style:normal;font-variant:normal;font-weight:normal;font-stretch:normal;letter-spacing:normal;word-spacing:normal;text-anchor:start;fill:none;stroke:#000000;stroke-linecap:butt;stroke-linejoin:miter;stroke-miterlimit:10.43299961;stroke-opacity:1;stroke-dasharray:none;stroke-dashoffset:0;display:inline"
       ns0:preamble="/homes/50/alexf/work/papers/eccv10/preamble.tex"
       ns0:text="$\\vect{v_a}$"
       word-spacing="normal"
       letter-spacing="normal"
       font-size-adjust="none"
       font-stretch="normal"
       font-weight="normal"
       font-variant="normal"
       font-style="normal"
       fill-rule="even-odd"
       stroke-miterlimit="10.433"
       xml:space="preserve"
       transform="matrix(1.8232525,0,0,-1.8232525,-126.93795,1186.9755)"
       id="g8095"
       inkscape:transform-center-x="-5.2092848"
       inkscape:transform-center-y="2.6046545">
<path
   id="path8097"
   d="m 228.82,480.84 0,0.04 0,0.04 0,0.04 -0.01,0.04 0,0.04 0,0.03 -0.01,0.04 -0.01,0.03 0,0.03 -0.01,0.03 -0.01,0.03 -0.01,0.03 -0.01,0.03 -0.01,0.02 -0.01,0.03 -0.01,0.02 -0.01,0.03 -0.02,0.02 -0.01,0.02 -0.01,0.02 -0.02,0.02 -0.01,0.02 -0.01,0.02 -0.02,0.01 -0.01,0.02 -0.02,0.02 -0.03,0.02 -0.03,0.03 -0.03,0.02 -0.03,0.02 -0.04,0.02 -0.03,0.02 -0.03,0.01 -0.03,0.01 -0.02,0.01 -0.03,0.01 -0.02,0 -0.03,0.01 -0.02,0 -0.02,0 -0.01,0 -0.02,0.01 -0.01,0 0,0 0,0 0,0 0,0 c -0.4,0 -0.76,-0.42 -0.76,-0.76 0,-0.28 0.21,-0.4 0.3,-0.45 0.41,-0.25 0.49,-0.43 0.49,-0.63 0,-0.22 -0.57,-2.4 -1.74,-2.4 -0.72,0 -0.72,0.6 -0.72,0.78 0,0.58 0.28,1.3 0.6,2.1 0.08,0.2 0.11,0.29 0.11,0.45 0,0.58 -0.58,0.9 -1.13,0.9 -1.05,0 -1.55,-1.36 -1.55,-1.56 0,-0.14 0.15,-0.14 0.24,-0.14 0.12,0 0.19,0 0.23,0.13 0.32,1.08 0.85,1.21 1.03,1.21 0.07,0 0.16,0 0.16,-0.21 0,-0.23 -0.11,-0.52 -0.14,-0.6 -0.46,-1.16 -0.61,-1.6 -0.61,-2.08 0,-1.06 0.85,-1.34 1.72,-1.34 1.72,0 2.44,2.83 2.44,3.69 z"
   style="fill:#000000;stroke-width:0" />
<path
   id="path8099"
   d="m 232.43,478.61 -0.01,0.01 -0.01,0.01 -0.01,0.01 -0.01,0.01 -0.02,0.01 -0.01,0.01 -0.02,0.01 -0.02,0.01 -0.02,0.02 -0.02,0.01 -0.02,0.01 -0.02,0.01 -0.02,0.01 -0.02,0.02 -0.03,0.01 -0.02,0.01 -0.03,0.01 -0.03,0.01 -0.03,0.01 -0.02,0.01 -0.04,0.01 -0.03,0.01 -0.03,0 -0.03,0.01 -0.04,0.01 -0.03,0 -0.04,0.01 -0.04,0 -0.04,0.01 -0.04,0 -0.04,0 -0.04,0 v -0.32 c 0.51,0 0.65,-0.37 0.65,-0.42 0,-0.03 0,-0.07 -0.01,-0.1 l -0.38,-1.47 c -0.02,-0.12 -0.02,-0.13 -0.14,-0.23 -0.16,-0.16 -0.47,-0.34 -0.82,-0.34 -0.32,0 -0.55,0.16 -0.55,0.55 0,0.26 0.19,1.08 0.38,1.44 0.19,0.38 0.53,0.57 0.87,0.57 v 0.32 c -1.35,0 -2.12,-1.08 -2.12,-2.01 0,-0.85 0.67,-1.2 1.38,-1.2 0.56,0 0.93,0.25 1.07,0.37 0.15,-0.22 0.51,-0.37 0.89,-0.37 0.75,0 0.98,1.05 0.98,1.09 0,0.13 -0.12,0.13 -0.22,0.13 -0.17,0 -0.19,-0.01 -0.23,-0.16 -0.09,-0.31 -0.21,-0.73 -0.48,-0.73 -0.17,0 -0.19,0.17 -0.19,0.27 0,0.1 0.08,0.43 0.14,0.64 l 0.27,1.09 c 0.03,0.14 0.09,0.37 0.09,0.41 0,0.22 -0.16,0.35 -0.37,0.35 -0.21,0 -0.36,-0.15 -0.38,-0.16 z"
   style="fill:#000000;stroke-width:0" />
</g>    <path
       style="fill:none;stroke:#ff0000;stroke-width:2.5;stroke-linecap:round;stroke-linejoin:miter;stroke-miterlimit:4;stroke-opacity:1;stroke-dasharray:none"
       d="m 405.97785,220.19454 -58.60005,68.36605 -85.3645,19.87302"
       id="path24768"
       sodipodi:nodetypes="ccc" />
    <g
       id="g26524">
      <text
         id="text25650-8"
         y="293.22409"
         x="237.13155"
         style="font-size:18.48882866px;font-style:italic;font-weight:normal;fill:#000000;fill-opacity:1;stroke:none;font-family:Bitstream Vera Sans;-inkscape-font-specification:AlArabiya Italic"
         xml:space="preserve"><tspan
           style="font-style:italic;font-variant:normal;font-weight:bold;font-stretch:normal;font-family:Times New Roman;-inkscape-font-specification:'Times New Roman, Bold Italic'"
           y="293.22409"
           x="237.13155"
           id="tspan25652-0"
           sodipodi:role="line">y</tspan></text>
      <path
         sodipodi:nodetypes="ccc"
         id="path25679"
         d="m 238.77481,283.35542 3.65525,-3.12858 2.67379,3.41256"
         style="fill:none;stroke:#000000;stroke-width:1px;stroke-linecap:butt;stroke-linejoin:miter;stroke-opacity:1" />
    </g>
    <text
       xml:space="preserve"
       style="font-size:20px;font-style:italic;font-weight:normal;fill:#000000;fill-opacity:1;stroke:none;font-family:Bitstream Vera Sans;-inkscape-font-specification:AlArabiya Italic"
       x="383.96527"
       y="207.11705"
       id="text25685"><tspan
         sodipodi:role="line"
         id="tspan25687"
         x="383.96527"
         y="207.11705"
         style="font-style:italic;font-variant:normal;font-weight:bold;font-stretch:normal;font-family:Times New Roman;-inkscape-font-specification:'Times New Roman, Bold Italic'"><tspan
   style="font-weight:normal"
   id="tspan25723">(</tspan>x<tspan
   style="font-weight:normal"
   id="tspan25727">,</tspan>y<tspan
   style="font-weight:normal"
   id="tspan25725">)</tspan></tspan></text>
    <g
       id="g26519">
      <text
         id="text25650"
         y="259.65265"
         x="237.13155"
         style="font-size:18.48882866px;font-style:italic;font-weight:normal;fill:#000000;fill-opacity:1;stroke:none;font-family:Bitstream Vera Sans;-inkscape-font-specification:AlArabiya Italic"
         xml:space="preserve"><tspan
           style="font-style:italic;font-variant:normal;font-weight:bold;font-stretch:normal;font-family:Times New Roman;-inkscape-font-specification:'Times New Roman, Bold Italic'"
           y="259.65265"
           x="237.13155"
           id="tspan25652"
           sodipodi:role="line">y</tspan></text>
      <path
         sodipodi:nodetypes="cc"
         id="path25683-2"
         d="m 250.598,246.52906 -2.52538,5.89504"
         style="fill:none;stroke:#000000;stroke-width:1px;stroke-linecap:butt;stroke-linejoin:miter;stroke-opacity:1" />
    </g>
    <g
       id="g26529"
       transform="matrix(-1,0,0,1,685.08391,0)">
      <path
         sodipodi:nodetypes="cc"
         id="path25683"
         d="m 334.91863,194.65447 2.52538,5.89504"
         style="fill:none;stroke:#000000;stroke-width:1px;stroke-linecap:butt;stroke-linejoin:miter;stroke-opacity:1" />
      <text
         transform="scale(-1,1)"
         id="text25716"
         y="208.13461"
         x="-349.75708"
         style="font-size:20px;font-style:italic;font-weight:normal;fill:#000000;fill-opacity:1;stroke:none;font-family:Bitstream Vera Sans;-inkscape-font-specification:AlArabiya Italic"
         xml:space="preserve"><tspan
           style="font-style:italic;font-variant:normal;font-weight:bold;font-stretch:normal;font-family:Times New Roman;-inkscape-font-specification:'Times New Roman, Bold Italic'"
           y="208.13461"
           x="-349.75708"
           id="tspan25718"
           sodipodi:role="line">x</tspan></text>
    </g>
    <path
       style="fill:none;stroke:#000000;stroke-width:1px;stroke-linecap:butt;stroke-linejoin:miter;stroke-opacity:1;marker-end:url(#Arrow1Mend)"
       d="m 389.02223,263.07647 0,18.57143"
       id="path26096" />
    <path
       style="fill:none;stroke:#000000;stroke-width:1px;stroke-linecap:butt;stroke-linejoin:miter;stroke-opacity:1;marker-end:url(#Arrow1Mend)"
       d="m 272.59366,263.07647 0,18.57143"
       id="path26096-0" />
  </g>
</svg>
