<?xml version="1.0" encoding="UTF-8" standalone="no"?>
<!-- Created with Inkscape (http://www.inkscape.org/) -->

<svg
   xmlns:ns0="http://www.iki.fi/pav/software/textext/"
   xmlns:dc="http://purl.org/dc/elements/1.1/"
   xmlns:cc="http://creativecommons.org/ns#"
   xmlns:rdf="http://www.w3.org/1999/02/22-rdf-syntax-ns#"
   xmlns:svg="http://www.w3.org/2000/svg"
   xmlns="http://www.w3.org/2000/svg"
   xmlns:sodipodi="http://sodipodi.sourceforge.net/DTD/sodipodi-0.dtd"
   xmlns:inkscape="http://www.inkscape.org/namespaces/inkscape"
   width="744.09448819"
   height="1052.3622047"
   id="svg4585"
   version="1.1"
   inkscape:version="0.47 r22583"
   sodipodi:docname="pqrs.svg">
  <sodipodi:namedview
     id="base"
     pagecolor="#ffffff"
     bordercolor="#666666"
     borderopacity="1.0"
     inkscape:pageopacity="0.0"
     inkscape:pageshadow="2"
     inkscape:zoom="0.43133514"
     inkscape:cx="10.98965"
     inkscape:cy="925.81769"
     inkscape:document-units="px"
     inkscape:current-layer="layer1"
     showgrid="false"
     inkscape:snap-bbox="true"
     inkscape:snap-global="true"
     inkscape:window-width="1151"
     inkscape:window-height="796"
     inkscape:window-x="1692"
     inkscape:window-y="45"
     inkscape:window-maximized="0" />
  <defs
     id="defs4587">
    <inkscape:perspective
       sodipodi:type="inkscape:persp3d"
       inkscape:vp_x="0 : 526.18109 : 1"
       inkscape:vp_y="0 : 1000 : 0"
       inkscape:vp_z="744.09448 : 526.18109 : 1"
       inkscape:persp3d-origin="372.04724 : 350.78739 : 1"
       id="perspective4593" />
    <inkscape:perspective
       id="perspective4532"
       inkscape:persp3d-origin="0.5 : 0.33333333 : 1"
       inkscape:vp_z="1 : 0.5 : 1"
       inkscape:vp_y="0 : 1000 : 0"
       inkscape:vp_x="0 : 0.5 : 1"
       sodipodi:type="inkscape:persp3d" />
    <inkscape:perspective
       id="perspective4712"
       inkscape:persp3d-origin="0.5 : 0.33333333 : 1"
       inkscape:vp_z="1 : 0.5 : 1"
       inkscape:vp_y="0 : 1000 : 0"
       inkscape:vp_x="0 : 0.5 : 1"
       sodipodi:type="inkscape:persp3d" />
    <inkscape:perspective
       id="perspective4744"
       inkscape:persp3d-origin="0.5 : 0.33333333 : 1"
       inkscape:vp_z="1 : 0.5 : 1"
       inkscape:vp_y="0 : 1000 : 0"
       inkscape:vp_x="0 : 0.5 : 1"
       sodipodi:type="inkscape:persp3d" />
    <inkscape:perspective
       id="perspective4774"
       inkscape:persp3d-origin="0.5 : 0.33333333 : 1"
       inkscape:vp_z="1 : 0.5 : 1"
       inkscape:vp_y="0 : 1000 : 0"
       inkscape:vp_x="0 : 0.5 : 1"
       sodipodi:type="inkscape:persp3d" />
    <inkscape:perspective
       id="perspective5323"
       inkscape:persp3d-origin="0.5 : 0.33333333 : 1"
       inkscape:vp_z="1 : 0.5 : 1"
       inkscape:vp_y="0 : 1000 : 0"
       inkscape:vp_x="0 : 0.5 : 1"
       sodipodi:type="inkscape:persp3d" />
    <inkscape:perspective
       id="perspective5361"
       inkscape:persp3d-origin="0.5 : 0.33333333 : 1"
       inkscape:vp_z="1 : 0.5 : 1"
       inkscape:vp_y="0 : 1000 : 0"
       inkscape:vp_x="0 : 0.5 : 1"
       sodipodi:type="inkscape:persp3d" />
    <inkscape:perspective
       id="perspective5392"
       inkscape:persp3d-origin="0.5 : 0.33333333 : 1"
       inkscape:vp_z="1 : 0.5 : 1"
       inkscape:vp_y="0 : 1000 : 0"
       inkscape:vp_x="0 : 0.5 : 1"
       sodipodi:type="inkscape:persp3d" />
    <inkscape:perspective
       id="perspective5392-5"
       inkscape:persp3d-origin="0.5 : 0.33333333 : 1"
       inkscape:vp_z="1 : 0.5 : 1"
       inkscape:vp_y="0 : 1000 : 0"
       inkscape:vp_x="0 : 0.5 : 1"
       sodipodi:type="inkscape:persp3d" />
    <inkscape:perspective
       id="perspective5392-9"
       inkscape:persp3d-origin="0.5 : 0.33333333 : 1"
       inkscape:vp_z="1 : 0.5 : 1"
       inkscape:vp_y="0 : 1000 : 0"
       inkscape:vp_x="0 : 0.5 : 1"
       sodipodi:type="inkscape:persp3d" />
    <inkscape:perspective
       id="perspective5392-3"
       inkscape:persp3d-origin="0.5 : 0.33333333 : 1"
       inkscape:vp_z="1 : 0.5 : 1"
       inkscape:vp_y="0 : 1000 : 0"
       inkscape:vp_x="0 : 0.5 : 1"
       sodipodi:type="inkscape:persp3d" />
    <inkscape:perspective
       sodipodi:type="inkscape:persp3d"
       inkscape:vp_x="0 : 0.5 : 1"
       inkscape:vp_y="0 : 1000 : 0"
       inkscape:vp_z="1 : 0.5 : 1"
       inkscape:persp3d-origin="0.5 : 0.33333333 : 1"
       id="perspective3341" />
    <inkscape:perspective
       id="perspective3341-7"
       inkscape:persp3d-origin="0.5 : 0.33333333 : 1"
       inkscape:vp_z="1 : 0.5 : 1"
       inkscape:vp_y="0 : 1000 : 0"
       inkscape:vp_x="0 : 0.5 : 1"
       sodipodi:type="inkscape:persp3d" />
    <inkscape:perspective
       sodipodi:type="inkscape:persp3d"
       inkscape:vp_x="0 : 0.5 : 1"
       inkscape:vp_y="0 : 1000 : 0"
       inkscape:vp_z="1 : 0.5 : 1"
       inkscape:persp3d-origin="0.5 : 0.33333333 : 1"
       id="perspective3341-6" />
    <inkscape:perspective
       sodipodi:type="inkscape:persp3d"
       inkscape:vp_x="0 : 0.5 : 1"
       inkscape:vp_y="0 : 1000 : 0"
       inkscape:vp_z="1 : 0.5 : 1"
       inkscape:persp3d-origin="0.5 : 0.33333333 : 1"
       id="perspective3866" />
    <inkscape:perspective
       id="perspective3866-8"
       inkscape:persp3d-origin="0.5 : 0.33333333 : 1"
       inkscape:vp_z="1 : 0.5 : 1"
       inkscape:vp_y="0 : 1000 : 0"
       inkscape:vp_x="0 : 0.5 : 1"
       sodipodi:type="inkscape:persp3d" />
    <inkscape:perspective
       sodipodi:type="inkscape:persp3d"
       inkscape:vp_x="0 : 0.5 : 1"
       inkscape:vp_y="0 : 1000 : 0"
       inkscape:vp_z="1 : 0.5 : 1"
       inkscape:persp3d-origin="0.5 : 0.33333333 : 1"
       id="perspective3866-6" />
  </defs>
  <metadata
     id="metadata4590">
    <rdf:RDF>
      <cc:Work
         rdf:about="">
        <dc:format>image/svg+xml</dc:format>
        <dc:type
           rdf:resource="http://purl.org/dc/dcmitype/StillImage" />
        <dc:title />
      </cc:Work>
    </rdf:RDF>
  </metadata>
  <g
     inkscape:label="Layer 1"
     inkscape:groupmode="layer"
     id="layer1">
    <path
       style="fill:none;stroke:#000000;stroke-width:1.87000000000000011;stroke-linecap:butt;stroke-linejoin:miter;stroke-miterlimit:4;stroke-opacity:1;stroke-dasharray:5.61000001000000026, 5.61000001000000026;stroke-dashoffset:0"
       d="M 58.941121,532.96585 535.77919,431.63354 53.317818,304.60446"
       id="path5304"
       sodipodi:nodetypes="ccc" />
    <path
       style="fill:#ffffff;stroke:#000000;stroke-width:2.07201648;stroke-linecap:butt;stroke-linejoin:miter;stroke-miterlimit:4;stroke-opacity:1;stroke-dasharray:6.21604918, 6.21604918;stroke-dashoffset:0;display:inline"
       d="m 60.996437,334.74556 442.318823,0"
       id="path3611" />
    <path
       style="fill:#ffffff;stroke:#000000;stroke-width:2.10755086;stroke-linecap:butt;stroke-linejoin:miter;stroke-miterlimit:4;stroke-opacity:1;stroke-dasharray:6.32265237, 6.32265237;stroke-dashoffset:0;display:inline"
       d="m 177.92316,254.01479 0,341.23951 -1.42783,0"
       id="path3617" />
    <path
       style="fill:#ffffff;stroke:#000000;stroke-width:2.10755086;stroke-linecap:butt;stroke-linejoin:miter;stroke-miterlimit:4;stroke-opacity:1;stroke-dasharray:6.32265237, 6.32265237;stroke-dashoffset:0;display:inline"
       d="m 386.10206,254.64966 0,342.82667"
       id="path3621" />
    <rect
       style="fill:#ffffff;fill-opacity:0;stroke:#000000;stroke-width:4;stroke-miterlimit:4;stroke-opacity:1;stroke-dasharray:none;display:inline"
       id="rect2837"
       width="422.67062"
       height="308.38492"
       x="72.507713"
       y="271.79367" />
    <path
       style="fill:#00ff00;fill-opacity:0.11707317000000000;stroke:#000000;stroke-width:4;stroke-linecap:butt;stroke-linejoin:miter;stroke-miterlimit:4;stroke-opacity:1;stroke-dasharray:none"
       d="m 178.10374,506.96557 207.9531,-44.33468 -0.35714,-71.31984 -207.89182,-54.51324 0.29586,170.16776 z"
       id="path5302"
       sodipodi:nodetypes="ccccc" />
    <g
       style="font-style:normal;font-variant:normal;font-weight:normal;font-stretch:normal;letter-spacing:normal;word-spacing:normal;text-anchor:start;fill:none;stroke:#000000;stroke-linecap:butt;stroke-linejoin:miter;stroke-miterlimit:10.43299961;stroke-opacity:1;stroke-dasharray:none;stroke-dashoffset:0"
       id="content"
       transform="matrix(2.4,0,0,-2.4,-385.5064,1463.8013)"
       xml:space="preserve"
       stroke-miterlimit="10.433"
       fill-rule="even-odd"
       font-style="normal"
       font-variant="normal"
       font-weight="normal"
       font-stretch="normal"
       font-size-adjust="none"
       letter-spacing="normal"
       word-spacing="normal"
       ns0:text="$\\vect{p_i}$"
       ns0:preamble="/homes/50/alexf/work/papers/eccv10/preamble.tex">
<path
   style="fill:#000000;stroke-width:0"
   d="m 223.95,475.95 0,-0.01 0,-0.01 0,0 -0.01,-0.01 0,0 0,-0.01 0,0 0,-0.01 0,0 -0.01,-0.01 0,0 0,-0.01 0,0 0,-0.01 0,0 0,-0.01 -0.01,0 0,0 0,-0.01 0,0 0,0 0,-0.01 0,0 0,-0.01 -0.01,0 0,-0.01 0,0 0,0 0,-0.01 0,0 -0.01,0 0,-0.01 0,0 0,0 0,0 0,0 0,-0.01 0,0 -0.01,0 0,0 0,0 c -0.06,-0.02 -0.17,-0.02 -0.26,-0.02 -0.17,0 -0.35,0 -0.35,-0.28 0,-0.11 0.08,-0.19 0.19,-0.19 0.29,0 0.62,0.03 0.92,0.03 0.35,0 0.73,-0.03 1.07,-0.03 0.06,0 0.25,0 0.25,0.29 0,0.17 -0.16,0.18 -0.25,0.18 -0.14,0 -0.3,0 -0.43,0.01 l 0.43,1.73 c 0.14,-0.14 0.47,-0.36 1,-0.36 l -0.02,0.36 c -0.59,0 -0.83,0.47 -0.83,0.58 l 0.02,0.14 0.61,2.5 c 0.29,0.34 0.76,0.65 1.24,0.65 0.62,0 0.67,-0.54 0.67,-0.76 0,-0.52 -0.34,-1.74 -0.5,-2.13 -0.31,-0.73 -0.8,-0.98 -1.21,-0.98 l 0.02,-0.36 c 1.74,0 2.81,1.58 2.81,2.94 0,1.23 -0.92,1.65 -1.74,1.65 -0.71,0 -1.23,-0.39 -1.39,-0.54 -0.38,0.54 -1.03,0.54 -1.14,0.54 -0.37,0 -0.66,-0.21 -0.87,-0.57 -0.25,-0.4 -0.38,-0.94 -0.38,-0.99 0,-0.14 0.15,-0.14 0.24,-0.14 0.11,0 0.15,0 0.2,0.05 0.02,0.02 0.02,0.04 0.08,0.29 0.2,0.8 0.43,1 0.68,1 0.11,0 0.23,-0.04 0.23,-0.37 0,-0.15 -0.02,-0.29 -0.06,-0.43 z"
   id="path3270" />
<path
   style="fill:#000000;stroke-width:0"
   d="m 232.37,476.77 0,0.01 0,0 0,0.01 0,0 -0.01,0.01 0,0 0,0.01 0,0 0,0.01 0,0 0,0.01 0,0 -0.01,0 0,0.01 0,0 0,0 -0.01,0.01 0,0.01 -0.01,0 -0.01,0.01 0,0 -0.01,0.01 -0.01,0 -0.01,0 0,0.01 -0.01,0 -0.01,0 -0.01,0 -0.01,0 -0.01,0 -0.01,0.01 -0.01,0 -0.01,0 -0.01,0 -0.02,0 -0.02,0 -0.02,0 c -0.17,0 -0.18,-0.02 -0.23,-0.16 -0.12,-0.41 -0.43,-0.73 -0.71,-0.73 -0.1,0 -0.12,0.04 -0.12,0.16 0,0.13 0.04,0.23 0.07,0.31 0.07,0.16 0.07,0.17 0.16,0.4 0.15,0.34 0.29,0.68 0.43,1.02 0.08,0.2 0.09,0.23 0.09,0.35 0,0.47 -0.52,0.64 -0.89,0.64 -0.8,0 -1.22,-0.88 -1.22,-1.09 0,-0.12 0.12,-0.12 0.23,-0.12 0.17,0 0.19,0.01 0.23,0.15 0.12,0.42 0.43,0.74 0.71,0.74 0.1,0 0.12,-0.05 0.12,-0.17 0,-0.13 -0.04,-0.23 -0.07,-0.3 -0.06,-0.16 -0.06,-0.18 -0.16,-0.4 -0.15,-0.34 -0.29,-0.68 -0.43,-1.03 -0.08,-0.19 -0.09,-0.23 -0.09,-0.34 0,-0.47 0.52,-0.65 0.89,-0.65 0.81,0 1.22,0.89 1.22,1.09 z"
   id="path3272" />
<path
   style="fill:#000000;stroke-width:0"
   d="m 232.05,480.21 0,0.02 -0.01,0.03 0,0.02 0,0.02 -0.01,0.02 0,0.02 -0.01,0.02 -0.01,0.02 -0.01,0.02 -0.01,0.01 -0.01,0.02 -0.01,0.02 -0.01,0.01 -0.01,0.01 -0.02,0.02 -0.01,0.01 -0.01,0.01 -0.02,0.01 -0.01,0.01 -0.02,0.01 -0.01,0.01 -0.02,0 -0.02,0.01 -0.01,0.01 -0.02,0 -0.02,0 -0.01,0.01 -0.02,0 -0.02,0 -0.01,0.01 -0.02,0 -0.02,0 c -0.28,0 -0.55,-0.27 -0.55,-0.54 0,-0.17 0.13,-0.38 0.39,-0.38 0.26,0 0.55,0.23 0.55,0.54 z"
   id="path3274" />
</g>    <g
       style="font-style:normal;font-variant:normal;font-weight:normal;font-stretch:normal;letter-spacing:normal;word-spacing:normal;text-anchor:start;fill:none;stroke:#000000;stroke-linecap:butt;stroke-linejoin:miter;stroke-miterlimit:10.43299961;stroke-opacity:1;stroke-dasharray:none;stroke-dashoffset:0"
       ns0:preamble="/homes/50/alexf/work/papers/eccv10/preamble.tex"
       ns0:text="$\\vect{q_i}$"
       word-spacing="normal"
       letter-spacing="normal"
       font-size-adjust="none"
       font-stretch="normal"
       font-weight="normal"
       font-variant="normal"
       font-style="normal"
       fill-rule="even-odd"
       stroke-miterlimit="10.433"
       xml:space="preserve"
       transform="matrix(2.4,0,0,-2.4,-143.70909,1521.9109)"
       id="g3420">
<path
   id="path3422"
   d="m 228.84,481.56 0,0 0,0.01 0,0 0,0.01 0,0 0,0.01 0,0.01 -0.01,0.01 0,0 0,0.01 0,0.01 -0.01,0 0,0.01 -0.01,0.01 0,0.01 -0.01,0 0,0.01 -0.01,0.01 0,0.01 -0.01,0 -0.01,0.01 0,0 -0.01,0.01 -0.01,0 -0.01,0.01 -0.01,0 0,0.01 -0.01,0 0,0 -0.01,0 0,0 -0.01,0 -0.01,0 0,0 -0.01,0.01 0,0 -0.01,0 -0.01,0 c -0.01,0 -0.59,-0.14 -0.9,-0.43 -0.14,0.16 -0.48,0.43 -1.07,0.43 l 0.02,-0.36 c 0.59,0 0.83,-0.47 0.83,-0.58 0,-0.04 -0.01,-0.11 -0.02,-0.14 l -0.6,-2.36 c -0.05,-0.17 -0.05,-0.19 -0.16,-0.29 -0.32,-0.32 -0.74,-0.5 -1.09,-0.5 -0.61,0 -0.66,0.54 -0.66,0.76 0,0.52 0.34,1.74 0.5,2.13 0.3,0.73 0.79,0.98 1.2,0.98 l -0.02,0.36 c -1.73,0 -2.81,-1.58 -2.81,-2.94 0,-1.23 0.92,-1.65 1.74,-1.65 0.48,0 0.88,0.19 1.09,0.32 l -0.38,-1.51 c -0.04,-0.15 -0.05,-0.16 -0.12,-0.17 -0.11,-0.02 -0.27,-0.02 -0.38,-0.02 -0.17,0 -0.23,0 -0.28,-0.06 -0.04,-0.06 -0.07,-0.22 -0.07,-0.23 0,-0.06 0.03,-0.18 0.19,-0.18 0.34,0 0.71,0.03 1.06,0.03 0.37,0 0.75,-0.03 1.11,-0.03 0.07,0 0.26,0 0.26,0.29 0,0.17 -0.17,0.18 -0.26,0.18 -0.14,0 -0.3,0 -0.43,0.01 z"
   style="fill:#000000;stroke-width:0" />
<path
   id="path3424"
   d="m 231.78,476.77 0,0.01 0,0 0,0.01 0,0 0,0.01 0,0 0,0.01 0,0 0,0.01 -0.01,0 0,0.01 0,0 0,0 0,0.01 -0.01,0 0,0 0,0.01 -0.01,0.01 0,0 -0.01,0.01 -0.01,0 0,0.01 -0.01,0 -0.01,0 -0.01,0.01 -0.01,0 -0.01,0 0,0 -0.01,0 -0.01,0 -0.01,0.01 -0.01,0 -0.01,0 -0.01,0 -0.02,0 -0.02,0 -0.02,0 c -0.18,0 -0.19,-0.02 -0.23,-0.16 -0.13,-0.41 -0.43,-0.73 -0.71,-0.73 -0.1,0 -0.12,0.04 -0.12,0.16 0,0.13 0.03,0.23 0.07,0.31 0.06,0.16 0.06,0.17 0.16,0.4 0.15,0.34 0.28,0.68 0.42,1.02 0.08,0.2 0.09,0.23 0.09,0.35 0,0.47 -0.52,0.64 -0.89,0.64 -0.8,0 -1.21,-0.88 -1.21,-1.09 0,-0.12 0.12,-0.12 0.22,-0.12 0.18,0 0.19,0.01 0.23,0.15 0.13,0.42 0.43,0.74 0.71,0.74 0.1,0 0.12,-0.05 0.12,-0.17 0,-0.13 -0.03,-0.23 -0.07,-0.3 -0.06,-0.16 -0.06,-0.18 -0.16,-0.4 -0.14,-0.34 -0.28,-0.68 -0.42,-1.03 -0.08,-0.19 -0.09,-0.23 -0.09,-0.34 0,-0.47 0.52,-0.65 0.89,-0.65 0.8,0 1.21,0.89 1.21,1.09 z"
   style="fill:#000000;stroke-width:0" />
<path
   id="path3426"
   d="m 231.46,480.21 0,0.02 0,0.03 0,0.02 -0.01,0.02 0,0.02 -0.01,0.02 -0.01,0.02 0,0.02 -0.01,0.02 -0.01,0.01 -0.01,0.02 -0.01,0.02 -0.02,0.01 -0.01,0.01 -0.01,0.02 -0.01,0.01 -0.02,0.01 -0.01,0.01 -0.02,0.01 -0.01,0.01 -0.02,0.01 -0.02,0 -0.01,0.01 -0.02,0.01 -0.02,0 -0.01,0 -0.02,0.01 -0.02,0 -0.01,0 -0.02,0.01 -0.02,0 -0.01,0 c -0.28,0 -0.55,-0.27 -0.55,-0.54 0,-0.17 0.12,-0.38 0.39,-0.38 0.26,0 0.54,0.23 0.54,0.54 z"
   style="fill:#000000;stroke-width:0" />
</g>    <g
       id="g3557"
       transform="matrix(2.4,0,0,-2.4,-145.05172,1625.9421)"
       xml:space="preserve"
       stroke-miterlimit="10.433"
       fill-rule="even-odd"
       font-style="normal"
       font-variant="normal"
       font-weight="normal"
       font-stretch="normal"
       font-size-adjust="none"
       letter-spacing="normal"
       word-spacing="normal"
       ns0:text="$\\vect{r_i}$"
       ns0:preamble="/homes/50/alexf/work/papers/eccv10/preamble.tex"
       style="font-style:normal;font-variant:normal;font-weight:normal;font-stretch:normal;letter-spacing:normal;word-spacing:normal;text-anchor:start;fill:none;stroke:#000000;stroke-linecap:butt;stroke-linejoin:miter;stroke-miterlimit:10.43299961;stroke-opacity:1;stroke-dasharray:none;stroke-dashoffset:0">
<path
   style="fill:#000000;stroke-width:0"
   d="m 227.86,481.24 -0.03,-0.01 -0.02,0 -0.03,-0.01 -0.02,-0.01 -0.02,-0.01 -0.03,0 -0.02,-0.01 -0.02,-0.01 -0.02,-0.01 -0.02,-0.01 -0.02,-0.01 -0.01,-0.01 -0.04,-0.02 -0.03,-0.02 -0.03,-0.03 -0.03,-0.02 -0.02,-0.03 -0.03,-0.03 -0.02,-0.02 -0.02,-0.03 -0.02,-0.03 -0.01,-0.02 -0.02,-0.03 -0.01,-0.03 -0.01,-0.03 -0.01,-0.02 -0.01,-0.03 -0.01,-0.03 -0.01,-0.02 0,-0.02 -0.01,-0.03 0,-0.02 -0.01,-0.02 0,-0.02 0,-0.01 0,-0.02 0,-0.01 0,-0.01 c 0,-0.22 0.17,-0.46 0.5,-0.46 0.34,0 0.71,0.28 0.71,0.79 0,0.46 -0.36,0.87 -0.97,0.87 -0.56,0 -1.03,-0.28 -1.33,-0.6 -0.24,0.46 -0.81,0.6 -1.16,0.6 -0.37,0 -0.65,-0.21 -0.87,-0.57 -0.24,-0.39 -0.38,-0.93 -0.38,-0.99 0,-0.14 0.15,-0.14 0.24,-0.14 0.11,0 0.15,0 0.2,0.05 0.02,0.02 0.02,0.04 0.08,0.29 0.19,0.76 0.41,1 0.68,1 0.15,0 0.23,-0.1 0.23,-0.36 0,-0.18 -0.03,-0.29 -0.14,-0.76 -0.05,-0.17 -0.21,-0.83 -0.28,-1.08 -0.04,-0.18 -0.15,-0.63 -0.2,-0.81 -0.06,-0.26 -0.18,-0.71 -0.18,-0.78 0,-0.21 0.16,-0.44 0.47,-0.44 0.2,0 0.55,0.12 0.66,0.53 0,0.03 0.68,2.74 0.69,2.8 0.04,0.15 0.04,0.17 0.17,0.32 0.23,0.29 0.6,0.58 1.1,0.58 0.25,0 0.36,-0.11 0.39,-0.14 z"
   id="path3559" />
<path
   style="fill:#000000;stroke-width:0"
   d="m 231.65,476.77 0,0.01 0,0 0,0.01 0,0 -0.01,0.01 0,0 0,0.01 0,0 0,0.01 0,0 0,0.01 0,0 -0.01,0 0,0.01 0,0 0,0 -0.01,0.01 0,0.01 -0.01,0 -0.01,0.01 0,0 -0.01,0.01 -0.01,0 -0.01,0 0,0.01 -0.01,0 -0.01,0 -0.01,0 -0.01,0 -0.01,0 -0.01,0.01 -0.01,0 -0.01,0 -0.01,0 -0.02,0 -0.02,0 -0.02,0 c -0.17,0 -0.18,-0.02 -0.23,-0.16 -0.12,-0.41 -0.43,-0.73 -0.71,-0.73 -0.1,0 -0.12,0.04 -0.12,0.16 0,0.13 0.04,0.23 0.07,0.31 0.07,0.16 0.07,0.17 0.16,0.4 0.15,0.34 0.29,0.68 0.43,1.02 0.08,0.2 0.09,0.23 0.09,0.35 0,0.47 -0.52,0.64 -0.89,0.64 -0.8,0 -1.22,-0.88 -1.22,-1.09 0,-0.12 0.12,-0.12 0.23,-0.12 0.17,0 0.19,0.01 0.23,0.15 0.12,0.42 0.43,0.74 0.71,0.74 0.1,0 0.12,-0.05 0.12,-0.17 0,-0.13 -0.04,-0.23 -0.07,-0.3 -0.07,-0.16 -0.07,-0.18 -0.16,-0.4 -0.15,-0.34 -0.29,-0.68 -0.43,-1.03 -0.08,-0.19 -0.09,-0.23 -0.09,-0.34 0,-0.47 0.52,-0.65 0.89,-0.65 0.81,0 1.22,0.89 1.22,1.09 z"
   id="path3561" />
<path
   style="fill:#000000;stroke-width:0"
   d="m 231.33,480.21 0,0.02 -0.01,0.03 0,0.02 0,0.02 -0.01,0.02 0,0.02 -0.01,0.02 -0.01,0.02 -0.01,0.02 -0.01,0.01 -0.01,0.02 -0.01,0.02 -0.01,0.01 -0.01,0.01 -0.02,0.02 -0.01,0.01 -0.01,0.01 -0.02,0.01 -0.01,0.01 -0.02,0.01 -0.01,0.01 -0.02,0 -0.02,0.01 -0.01,0.01 -0.02,0 -0.02,0 -0.01,0.01 -0.02,0 -0.02,0 -0.01,0.01 -0.02,0 -0.02,0 c -0.28,0 -0.55,-0.27 -0.55,-0.54 0,-0.17 0.13,-0.38 0.39,-0.38 0.26,0 0.55,0.23 0.55,0.54 z"
   id="path3563" />
</g>    <g
       style="font-style:normal;font-variant:normal;font-weight:normal;font-stretch:normal;letter-spacing:normal;word-spacing:normal;text-anchor:start;fill:none;stroke:#000000;stroke-linecap:butt;stroke-linejoin:miter;stroke-miterlimit:10.43299961;stroke-opacity:1;stroke-dasharray:none;stroke-dashoffset:0"
       ns0:preamble="/homes/50/alexf/work/papers/eccv10/preamble.tex"
       ns0:text="$\\vect{s_i}$"
       word-spacing="normal"
       letter-spacing="normal"
       font-size-adjust="none"
       font-stretch="normal"
       font-weight="normal"
       font-variant="normal"
       font-style="normal"
       fill-rule="even-odd"
       stroke-miterlimit="10.433"
       xml:space="preserve"
       transform="matrix(2.4,0,0,-2.4,-388.3635,1678.5885)"
       id="g3689">
<path
   id="path3691"
   d="m 227.56,481.16 -0.03,-0.01 -0.03,-0.02 -0.03,-0.01 -0.03,-0.02 -0.02,-0.01 -0.02,-0.02 -0.03,-0.02 -0.02,-0.02 -0.02,-0.01 -0.02,-0.02 -0.01,-0.02 -0.02,-0.02 -0.02,-0.02 -0.01,-0.02 -0.01,-0.02 -0.02,-0.02 -0.01,-0.02 -0.01,-0.02 -0.01,-0.02 -0.01,-0.02 0,-0.02 -0.01,-0.02 -0.01,-0.02 0,-0.02 -0.01,-0.02 0,-0.02 0,-0.01 -0.01,-0.02 0,-0.02 0,-0.01 0,-0.02 0,-0.01 c 0,-0.26 0.21,-0.41 0.43,-0.41 0.24,0 0.61,0.2 0.61,0.68 0,0.53 -0.53,0.88 -1.43,0.88 -0.29,0 -0.85,-0.02 -1.3,-0.37 -0.45,-0.34 -0.61,-0.92 -0.61,-1.17 0,-0.3 0.14,-0.58 0.36,-0.76 0.28,-0.21 0.44,-0.24 1.12,-0.37 0.3,-0.05 0.9,-0.16 0.9,-0.61 0,-0.04 0,-0.95 -1.49,-0.95 -0.48,0 -0.85,0.1 -1.07,0.26 0.34,0.1 0.55,0.39 0.55,0.69 0,0.36 -0.29,0.46 -0.49,0.46 -0.34,0 -0.72,-0.28 -0.72,-0.78 0,-0.65 0.7,-0.99 1.71,-0.99 2.28,0 2.28,1.71 2.28,1.72 0,0.33 -0.17,0.6 -0.4,0.8 -0.31,0.27 -0.69,0.34 -1.04,0.4 -0.55,0.1 -0.94,0.17 -0.94,0.54 0,0.02 0,0.77 1.12,0.77 0.2,0 0.56,-0.02 0.83,-0.22 z"
   style="fill:#000000;stroke-width:0" />
<path
   id="path3693"
   d="m 231.68,476.77 0,0.01 0,0 0,0.01 0,0 -0.01,0.01 0,0 0,0.01 0,0 0,0.01 0,0 0,0.01 0,0 -0.01,0 0,0.01 0,0 0,0 -0.01,0.01 0,0.01 -0.01,0 -0.01,0.01 0,0 -0.01,0.01 -0.01,0 -0.01,0 0,0.01 -0.01,0 -0.01,0 -0.01,0 -0.01,0 -0.01,0 -0.01,0.01 -0.01,0 -0.01,0 -0.01,0 -0.02,0 -0.02,0 -0.02,0 c -0.17,0 -0.18,-0.02 -0.23,-0.16 -0.12,-0.41 -0.43,-0.73 -0.71,-0.73 -0.1,0 -0.12,0.04 -0.12,0.16 0,0.13 0.04,0.23 0.07,0.31 0.07,0.16 0.07,0.17 0.16,0.4 0.15,0.34 0.29,0.68 0.43,1.02 0.08,0.2 0.09,0.23 0.09,0.35 0,0.47 -0.52,0.64 -0.89,0.64 -0.8,0 -1.22,-0.88 -1.22,-1.09 0,-0.12 0.12,-0.12 0.23,-0.12 0.17,0 0.19,0.01 0.23,0.15 0.12,0.42 0.43,0.74 0.71,0.74 0.1,0 0.12,-0.05 0.12,-0.17 0,-0.13 -0.04,-0.23 -0.07,-0.3 -0.07,-0.16 -0.07,-0.18 -0.16,-0.4 -0.15,-0.34 -0.29,-0.68 -0.43,-1.03 -0.07,-0.19 -0.09,-0.23 -0.09,-0.34 0,-0.47 0.52,-0.65 0.89,-0.65 0.81,0 1.22,0.89 1.22,1.09 z"
   style="fill:#000000;stroke-width:0" />
<path
   id="path3695"
   d="m 231.36,480.21 0,0.02 -0.01,0.03 0,0.02 0,0.02 -0.01,0.02 0,0.02 -0.01,0.02 -0.01,0.02 -0.01,0.02 -0.01,0.01 -0.01,0.02 -0.01,0.02 -0.01,0.01 -0.01,0.01 -0.02,0.02 -0.01,0.01 -0.01,0.01 -0.02,0.01 -0.01,0.01 -0.02,0.01 -0.01,0.01 -0.02,0 -0.02,0.01 -0.01,0.01 -0.02,0 -0.02,0 -0.01,0.01 -0.02,0 -0.02,0 -0.01,0.01 -0.02,0 -0.02,0 c -0.28,0 -0.55,-0.27 -0.55,-0.54 0,-0.17 0.13,-0.38 0.39,-0.38 0.26,0 0.55,0.23 0.55,0.54 z"
   style="fill:#000000;stroke-width:0" />
</g>    <g
       style="font-style:normal;font-variant:normal;font-weight:normal;font-stretch:normal;letter-spacing:normal;word-spacing:normal;text-anchor:start;fill:none;stroke:#000000;stroke-width:0.76923078;stroke-linecap:butt;stroke-linejoin:miter;stroke-miterlimit:10.43299961;stroke-opacity:1;stroke-dasharray:none;stroke-dashoffset:0"
       id="g3799"
       transform="matrix(3.9,0,0,-3.9,-707.17064,2102.7895)"
       xml:space="preserve"
       stroke-miterlimit="10.433"
       fill-rule="even-odd"
       font-style="normal"
       font-variant="normal"
       font-weight="normal"
       font-stretch="normal"
       font-size-adjust="none"
       letter-spacing="normal"
       word-spacing="normal"
       ns0:text="$c_i$"
       ns0:preamble="/homes/50/alexf/work/papers/eccv10/preamble.tex">
<path
   style="fill:#000000;stroke-width:0"
   d="m 227.38,481.02 -0.03,0 -0.03,0 -0.03,0 -0.03,0 -0.03,-0.01 -0.02,0 -0.02,0 -0.01,0 -0.02,-0.01 -0.01,0 -0.01,0 -0.02,-0.01 -0.01,0 -0.01,-0.01 -0.02,0 -0.01,-0.01 -0.01,0 -0.02,-0.01 -0.01,-0.01 -0.01,-0.01 -0.02,-0.01 -0.01,-0.01 -0.01,-0.01 -0.01,-0.01 -0.02,-0.01 -0.01,-0.01 c -0.16,-0.15 -0.18,-0.32 -0.18,-0.39 0,-0.24 0.18,-0.35 0.37,-0.35 0.29,0 0.56,0.24 0.56,0.64 0,0.49 -0.47,0.86 -1.18,0.86 -1.34,0 -2.67,-1.43 -2.67,-2.83 0,-0.9 0.58,-1.69 1.62,-1.69 1.42,0 2.26,1.06 2.26,1.18 0,0.06 -0.06,0.13 -0.12,0.13 -0.05,0 -0.07,-0.02 -0.13,-0.1 -0.79,-0.99 -1.88,-0.99 -1.99,-0.99 -0.63,0 -0.9,0.49 -0.9,1.09 0,0.41 0.2,1.37 0.54,1.99 0.31,0.57 0.85,1 1.4,1 0.34,0 0.72,-0.13 0.86,-0.4 z"
   id="path3801" />
<path
   style="fill:#000000;stroke-width:0"
   d="m 230.01,480.1 -0.01,0.01 0,0.01 0,0.01 0,0.01 0,0.01 0,0.01 -0.01,0.02 0,0.01 -0.01,0.01 0,0.01 -0.01,0.01 0,0.01 -0.01,0.01 -0.01,0.01 0,0.01 -0.01,0.01 -0.01,0.01 -0.01,0.01 -0.01,0.01 -0.01,0.01 -0.01,0.01 -0.01,0 -0.02,0.01 -0.01,0.01 -0.01,0 -0.02,0.01 -0.01,0 -0.02,0.01 -0.01,0 -0.02,0 -0.02,0 -0.01,0 c -0.19,0 -0.39,-0.18 -0.39,-0.38 0,-0.12 0.09,-0.27 0.27,-0.27 0.21,0 0.4,0.2 0.4,0.39 z"
   id="path3803" />
<path
   style="fill:#000000;stroke-width:0"
   d="m 228.58,476.56 0,-0.02 -0.01,-0.02 -0.01,-0.03 -0.01,-0.02 0,-0.02 -0.01,-0.01 0,-0.02 0,-0.02 -0.01,-0.02 0,-0.01 -0.01,-0.02 0,-0.01 0,-0.01 0,-0.01 0,-0.01 0,-0.01 0,-0.02 0,-0.01 0,-0.01 c 0,-0.33 0.28,-0.59 0.66,-0.59 0.7,0 1.01,0.96 1.01,1.07 0,0.09 -0.09,0.09 -0.12,0.09 -0.09,0 -0.1,-0.04 -0.13,-0.12 -0.16,-0.56 -0.46,-0.84 -0.74,-0.84 -0.14,0 -0.17,0.09 -0.17,0.24 0,0.16 0.05,0.29 0.11,0.45 0.07,0.18 0.15,0.37 0.22,0.55 0.07,0.17 0.32,0.81 0.35,0.89 0.02,0.07 0.04,0.15 0.04,0.22 0,0.33 -0.28,0.6 -0.67,0.6 -0.69,0 -1.01,-0.95 -1.01,-1.07 0,-0.09 0.1,-0.09 0.12,-0.09 0.1,0 0.11,0.03 0.13,0.11 0.18,0.6 0.48,0.85 0.74,0.85 0.12,0 0.18,-0.06 0.18,-0.24 0,-0.16 -0.04,-0.27 -0.22,-0.7 z"
   id="path3805" />
</g>    <g
       style="font-style:normal;font-variant:normal;font-weight:normal;font-stretch:normal;letter-spacing:normal;word-spacing:normal;text-anchor:start;fill:none;stroke:#000000;stroke-width:0.76923078;stroke-linecap:butt;stroke-linejoin:miter;stroke-miterlimit:10.43299961;stroke-opacity:1;stroke-dasharray:none;stroke-dashoffset:0"
       ns0:preamble="/homes/50/alexf/work/papers/eccv10/preamble.tex"
       ns0:text="$c_{i+1}$"
       word-spacing="normal"
       letter-spacing="normal"
       font-size-adjust="none"
       font-stretch="normal"
       font-weight="normal"
       font-variant="normal"
       font-style="normal"
       fill-rule="even-odd"
       stroke-miterlimit="10.433"
       xml:space="preserve"
       transform="matrix(3.9,0,0,-3.9,-519.764,2099.3506)"
       id="g3943">
<path
   id="path3945"
   d="m 227.38,481.02 -0.03,0 -0.03,0 -0.03,0 -0.03,0 -0.03,-0.01 -0.02,0 -0.02,0 -0.01,0 -0.02,-0.01 -0.01,0 -0.01,0 -0.02,-0.01 -0.01,0 -0.01,-0.01 -0.02,0 -0.01,-0.01 -0.01,0 -0.02,-0.01 -0.01,-0.01 -0.01,-0.01 -0.02,-0.01 -0.01,-0.01 -0.01,-0.01 -0.01,-0.01 -0.02,-0.01 -0.01,-0.01 c -0.16,-0.15 -0.18,-0.32 -0.18,-0.39 0,-0.24 0.18,-0.35 0.37,-0.35 0.29,0 0.56,0.24 0.56,0.64 0,0.49 -0.47,0.86 -1.18,0.86 -1.34,0 -2.67,-1.43 -2.67,-2.83 0,-0.9 0.58,-1.69 1.62,-1.69 1.42,0 2.26,1.06 2.26,1.18 0,0.06 -0.06,0.13 -0.12,0.13 -0.05,0 -0.07,-0.02 -0.13,-0.1 -0.79,-0.99 -1.88,-0.99 -1.99,-0.99 -0.63,0 -0.9,0.49 -0.9,1.09 0,0.41 0.2,1.37 0.54,1.99 0.31,0.57 0.85,1 1.4,1 0.34,0 0.72,-0.13 0.86,-0.4 z"
   style="fill:#000000;stroke-width:0" />
<path
   id="path3947"
   d="m 230.01,480.1 -0.01,0.01 0,0.01 0,0.01 0,0.01 0,0.01 0,0.01 -0.01,0.02 0,0.01 -0.01,0.01 0,0.01 -0.01,0.01 0,0.01 -0.01,0.01 -0.01,0.01 0,0.01 -0.01,0.01 -0.01,0.01 -0.01,0.01 -0.01,0.01 -0.01,0.01 -0.01,0.01 -0.01,0 -0.02,0.01 -0.01,0.01 -0.01,0 -0.02,0.01 -0.01,0 -0.02,0.01 -0.01,0 -0.02,0 -0.02,0 -0.01,0 c -0.19,0 -0.39,-0.18 -0.39,-0.38 0,-0.12 0.09,-0.27 0.27,-0.27 0.21,0 0.4,0.2 0.4,0.39 z"
   style="fill:#000000;stroke-width:0" />
<path
   id="path3949"
   d="m 228.58,476.56 0,-0.02 -0.01,-0.02 -0.01,-0.03 -0.01,-0.02 0,-0.02 -0.01,-0.01 0,-0.02 0,-0.02 -0.01,-0.02 0,-0.01 -0.01,-0.02 0,-0.01 0,-0.01 0,-0.01 0,-0.01 0,-0.01 0,-0.02 0,-0.01 0,-0.01 c 0,-0.33 0.28,-0.59 0.66,-0.59 0.7,0 1.01,0.96 1.01,1.07 0,0.09 -0.09,0.09 -0.12,0.09 -0.09,0 -0.1,-0.04 -0.13,-0.12 -0.16,-0.56 -0.46,-0.84 -0.74,-0.84 -0.14,0 -0.17,0.09 -0.17,0.24 0,0.16 0.05,0.29 0.11,0.45 0.07,0.18 0.15,0.37 0.22,0.55 0.07,0.17 0.32,0.81 0.35,0.89 0.02,0.07 0.04,0.15 0.04,0.22 0,0.33 -0.28,0.6 -0.67,0.6 -0.69,0 -1.01,-0.95 -1.01,-1.07 0,-0.09 0.1,-0.09 0.12,-0.09 0.1,0 0.11,0.03 0.13,0.11 0.18,0.6 0.48,0.85 0.74,0.85 0.12,0 0.18,-0.06 0.18,-0.24 0,-0.16 -0.04,-0.27 -0.22,-0.7 z"
   style="fill:#000000;stroke-width:0" />
<path
   id="path3951"
   d="m 233.79,477.32 h 2.14 c 0.09,0 0.26,0 0.26,0.16 0,0.18 -0.16,0.18 -0.26,0.18 h -2.14 v 2.14 c 0,0.09 0,0.26 -0.16,0.26 -0.18,0 -0.18,-0.16 -0.18,-0.26 v -2.14 h -2.14 c -0.09,0 -0.26,0 -0.26,-0.17 0,-0.17 0.16,-0.17 0.26,-0.17 h 2.14 v -2.15 c 0,-0.09 0,-0.25 0.17,-0.25 0.17,0 0.17,0.16 0.17,0.25 z"
   style="fill:#000000;stroke-width:0" />
<path
   id="path3953"
   d="m 239.01,480.17 0,0.01 0,0.01 0,0.01 0,0.01 0,0.01 0,0 0,0.01 0,0.01 0,0 0,0.01 0,0.01 0,0 0,0.01 0,0 0,0.01 0,0.01 0,0 0,0.01 -0.01,0 0,0.01 0,0.01 0,0.01 -0.01,0 0,0.01 -0.01,0 0,0.01 -0.01,0 -0.01,0.01 0,0 -0.01,0 -0.01,0 -0.01,0.01 0,0 -0.01,0 -0.01,0 0,0 -0.01,0 0,0 -0.01,0 -0.01,0 0,0 -0.01,0 -0.01,0 0,0 -0.01,0 -0.01,0 -0.01,0 -0.01,0 -0.01,0 -0.01,0 c -0.44,-0.44 -1.08,-0.45 -1.36,-0.45 v -0.25 c 0.16,0 0.63,0 1.01,0.2 v -3.56 c 0,-0.23 0,-0.32 -0.7,-0.32 h -0.26 v -0.25 c 0.12,0.01 0.98,0.03 1.24,0.03 0.21,0 1.09,-0.02 1.25,-0.03 v 0.25 h -0.27 c -0.7,0 -0.7,0.09 -0.7,0.32 z"
   style="fill:#000000;stroke-width:0" />
</g>    <g
       id="g4089"
       transform="matrix(3.9,0,0,-3.9,-843.4071,2201.8098)"
       xml:space="preserve"
       stroke-miterlimit="10.433"
       fill-rule="even-odd"
       font-style="normal"
       font-variant="normal"
       font-weight="normal"
       font-stretch="normal"
       font-size-adjust="none"
       letter-spacing="normal"
       word-spacing="normal"
       ns0:text="$r_i$"
       ns0:preamble="/homes/50/alexf/work/papers/eccv10/preamble.tex"
       style="font-style:normal;font-variant:normal;font-weight:normal;font-stretch:normal;letter-spacing:normal;word-spacing:normal;text-anchor:start;fill:none;stroke:#000000;stroke-width:0.76923078;stroke-linecap:butt;stroke-linejoin:miter;stroke-miterlimit:10.43299961;stroke-opacity:1;stroke-dasharray:none;stroke-dashoffset:0">
<path
   style="fill:#000000;stroke-width:0"
   d="m 224.31,477.82 0,-0.01 -0.01,-0.02 0,-0.01 0,-0.02 -0.01,-0.03 -0.01,-0.03 0,-0.04 -0.01,-0.03 -0.01,-0.03 -0.01,-0.03 0,-0.02 0,-0.01 -0.01,-0.02 0,-0.01 0,-0.01 -0.01,-0.02 0,-0.01 0,-0.01 0,-0.01 0,-0.01 -0.01,-0.01 0,-0.01 0,-0.01 0,-0.01 0,0 0,-0.01 c 0,-0.18 0.14,-0.27 0.29,-0.27 0.12,0 0.3,0.08 0.37,0.28 0.02,0.04 0.36,1.4 0.4,1.58 0.07,0.32 0.26,1.02 0.31,1.29 0.04,0.13 0.32,0.6 0.56,0.82 0.08,0.07 0.37,0.33 0.8,0.33 0.26,0 0.41,-0.12 0.42,-0.12 -0.3,-0.05 -0.52,-0.29 -0.52,-0.55 0,-0.16 0.11,-0.35 0.38,-0.35 0.27,0 0.55,0.23 0.55,0.59 0,0.35 -0.32,0.65 -0.83,0.65 -0.65,0 -1.09,-0.49 -1.28,-0.77 -0.08,0.45 -0.43,0.77 -0.9,0.77 -0.46,0 -0.65,-0.39 -0.74,-0.57 -0.18,-0.34 -0.31,-0.94 -0.31,-0.97 0,-0.1 0.1,-0.1 0.12,-0.1 0.1,0 0.11,0.01 0.17,0.23 0.17,0.71 0.37,1.19 0.73,1.19 0.17,0 0.31,-0.08 0.31,-0.46 0,-0.21 -0.03,-0.32 -0.16,-0.84 z"
   id="path4091" />
<path
   style="fill:#000000;stroke-width:0"
   d="m 230.18,480.1 0,0.01 0,0.01 0,0.01 0,0.01 0,0.01 0,0.01 -0.01,0.02 0,0.01 -0.01,0.01 0,0.01 -0.01,0.01 0,0.01 -0.01,0.01 -0.01,0.01 0,0.01 -0.01,0.01 -0.01,0.01 -0.01,0.01 -0.01,0.01 -0.01,0.01 -0.01,0.01 -0.01,0 -0.02,0.01 -0.01,0.01 -0.01,0 -0.02,0.01 -0.01,0 -0.02,0.01 -0.01,0 -0.02,0 -0.02,0 -0.01,0 c -0.19,0 -0.4,-0.18 -0.4,-0.38 0,-0.12 0.1,-0.27 0.28,-0.27 0.21,0 0.39,0.2 0.39,0.39 z"
   id="path4093" />
<path
   style="fill:#000000;stroke-width:0"
   d="m 228.76,476.56 0,-0.02 -0.01,-0.02 -0.01,-0.03 -0.01,-0.02 0,-0.02 -0.01,-0.01 0,-0.02 0,-0.02 -0.01,-0.02 0,-0.01 -0.01,-0.02 0,-0.01 0,-0.01 0,-0.01 0,-0.01 0,-0.01 0,-0.02 0,-0.01 0,-0.01 c 0,-0.33 0.28,-0.59 0.66,-0.59 0.7,0 1.01,0.96 1.01,1.07 0,0.09 -0.1,0.09 -0.12,0.09 -0.09,0 -0.1,-0.04 -0.13,-0.12 -0.16,-0.56 -0.47,-0.84 -0.74,-0.84 -0.14,0 -0.17,0.09 -0.17,0.24 0,0.16 0.05,0.29 0.11,0.45 0.07,0.18 0.15,0.37 0.22,0.55 0.07,0.17 0.32,0.81 0.34,0.89 0.03,0.07 0.05,0.15 0.05,0.22 0,0.33 -0.28,0.6 -0.67,0.6 -0.69,0 -1.01,-0.95 -1.01,-1.07 0,-0.09 0.1,-0.09 0.12,-0.09 0.1,0 0.11,0.03 0.13,0.11 0.18,0.6 0.49,0.85 0.74,0.85 0.11,0 0.18,-0.06 0.18,-0.24 0,-0.16 -0.04,-0.27 -0.22,-0.7 z"
   id="path4095" />
</g>    <g
       style="font-style:normal;font-variant:normal;font-weight:normal;font-stretch:normal;letter-spacing:normal;word-spacing:normal;text-anchor:start;fill:none;stroke:#000000;stroke-linecap:butt;stroke-linejoin:miter;stroke-miterlimit:10.43299961;stroke-opacity:1;stroke-dasharray:none;stroke-dashoffset:0"
       ns0:preamble="/homes/50/alexf/work/papers/eccv10/preamble.tex"
       ns0:text="$\\vect{v_{a_i}}$"
       word-spacing="normal"
       letter-spacing="normal"
       font-size-adjust="none"
       font-stretch="normal"
       font-weight="normal"
       font-variant="normal"
       font-style="normal"
       fill-rule="even-odd"
       stroke-miterlimit="10.433"
       xml:space="preserve"
       transform="matrix(3,0,0,-3,-171.00987,1889.0239)"
       id="g4233">
<path
   id="path4235"
   d="m 228.82,480.84 0,0.04 0,0.04 0,0.04 -0.01,0.04 0,0.04 0,0.03 -0.01,0.04 -0.01,0.03 0,0.03 -0.01,0.03 -0.01,0.03 -0.01,0.03 -0.01,0.03 -0.01,0.02 -0.01,0.03 -0.01,0.02 -0.01,0.03 -0.02,0.02 -0.01,0.02 -0.01,0.02 -0.02,0.02 -0.01,0.02 -0.01,0.02 -0.02,0.01 -0.01,0.02 -0.02,0.02 -0.03,0.02 -0.03,0.03 -0.03,0.02 -0.03,0.02 -0.04,0.02 -0.03,0.02 -0.03,0.01 -0.03,0.01 -0.02,0.01 -0.03,0.01 -0.02,0 -0.03,0.01 -0.02,0 -0.02,0 -0.01,0 -0.02,0.01 -0.01,0 0,0 0,0 0,0 0,0 c -0.4,0 -0.76,-0.42 -0.76,-0.76 0,-0.28 0.21,-0.4 0.3,-0.45 0.41,-0.25 0.49,-0.43 0.49,-0.63 0,-0.22 -0.57,-2.4 -1.74,-2.4 -0.72,0 -0.72,0.6 -0.72,0.78 0,0.58 0.28,1.3 0.6,2.1 0.08,0.2 0.11,0.29 0.11,0.45 0,0.58 -0.58,0.9 -1.13,0.9 -1.05,0 -1.55,-1.36 -1.55,-1.56 0,-0.14 0.15,-0.14 0.24,-0.14 0.12,0 0.19,0 0.23,0.13 0.32,1.08 0.85,1.21 1.03,1.21 0.07,0 0.16,0 0.16,-0.21 0,-0.23 -0.11,-0.52 -0.14,-0.6 -0.46,-1.16 -0.61,-1.6 -0.61,-2.08 0,-1.06 0.85,-1.34 1.72,-1.34 1.72,0 2.44,2.83 2.44,3.69 z"
   style="fill:#000000;stroke-width:0" />
<path
   id="path4237"
   d="m 232.43,478.61 -0.01,0.01 -0.01,0.01 -0.01,0.01 -0.01,0.01 -0.02,0.01 -0.01,0.01 -0.02,0.01 -0.02,0.01 -0.02,0.02 -0.02,0.01 -0.02,0.01 -0.02,0.01 -0.02,0.01 -0.02,0.02 -0.03,0.01 -0.02,0.01 -0.03,0.01 -0.03,0.01 -0.03,0.01 -0.02,0.01 -0.04,0.01 -0.03,0.01 -0.03,0 -0.03,0.01 -0.04,0.01 -0.03,0 -0.04,0.01 -0.04,0 -0.04,0.01 -0.04,0 -0.04,0 -0.04,0 v -0.32 c 0.51,0 0.65,-0.37 0.65,-0.42 0,-0.03 0,-0.07 -0.01,-0.1 l -0.38,-1.47 c -0.02,-0.12 -0.02,-0.13 -0.14,-0.23 -0.16,-0.16 -0.47,-0.34 -0.82,-0.34 -0.32,0 -0.55,0.16 -0.55,0.55 0,0.26 0.19,1.08 0.38,1.44 0.19,0.38 0.53,0.57 0.87,0.57 v 0.32 c -1.35,0 -2.12,-1.08 -2.12,-2.01 0,-0.85 0.67,-1.2 1.38,-1.2 0.56,0 0.93,0.25 1.07,0.37 0.15,-0.22 0.51,-0.37 0.89,-0.37 0.75,0 0.98,1.05 0.98,1.09 0,0.13 -0.12,0.13 -0.22,0.13 -0.17,0 -0.19,-0.01 -0.23,-0.16 -0.09,-0.31 -0.21,-0.73 -0.48,-0.73 -0.17,0 -0.19,0.17 -0.19,0.27 0,0.1 0.08,0.43 0.14,0.64 l 0.27,1.09 c 0.03,0.14 0.09,0.37 0.09,0.41 0,0.22 -0.16,0.35 -0.37,0.35 -0.21,0 -0.36,-0.15 -0.38,-0.16 z"
   style="fill:#000000;stroke-width:0" />
<path
   id="path4239"
   d="m 236.71,475.48 0,0.01 0,0 0,0 0,0.01 0,0 0,0.01 -0.01,0 0,0.01 0,0 0,0 0,0.01 0,0 0,0 -0.01,0.01 0,0 0,0.01 -0.01,0 0,0.01 -0.01,0 -0.01,0.01 0,0 -0.01,0 -0.01,0.01 0,0 -0.01,0 -0.01,0 -0.01,0 -0.01,0 0,0.01 -0.01,0 -0.01,0 -0.01,0 -0.01,0 -0.01,0 -0.01,0 -0.02,0 -0.02,0 c -0.16,0 -0.18,0 -0.22,-0.12 -0.08,-0.29 -0.32,-0.5 -0.53,-0.5 -0.06,0 -0.12,0.03 -0.12,0.15 0,0.04 0.02,0.09 0.02,0.11 0.04,0.1 0.17,0.38 0.25,0.57 0.09,0.19 0.21,0.48 0.25,0.58 0.03,0.08 0.03,0.11 0.03,0.16 0,0.32 -0.36,0.46 -0.71,0.46 -0.65,0 -0.99,-0.6 -0.99,-0.78 0,-0.11 0.1,-0.11 0.2,-0.11 0.16,0 0.19,0 0.22,0.12 0.09,0.29 0.33,0.5 0.53,0.5 0.07,0 0.12,-0.03 0.12,-0.15 0,-0.04 -0.01,-0.09 -0.02,-0.11 -0.04,-0.1 -0.16,-0.39 -0.25,-0.58 -0.08,-0.19 -0.21,-0.47 -0.25,-0.57 -0.03,-0.08 -0.03,-0.11 -0.03,-0.16 0,-0.32 0.37,-0.47 0.72,-0.47 0.64,0 0.99,0.61 0.99,0.79 z"
   style="fill:#000000;stroke-width:0" />
<path
   id="path4241"
   d="m 236.33,477.9 0,0.02 0,0.02 0,0.01 0,0.02 -0.01,0.02 0,0.01 -0.01,0.02 0,0.01 -0.01,0.02 -0.01,0.01 0,0.01 -0.01,0.01 -0.01,0.02 -0.01,0.01 -0.01,0.01 -0.01,0.01 -0.01,0.01 -0.01,0.01 -0.01,0 -0.02,0.01 -0.01,0.01 -0.01,0 -0.02,0.01 -0.01,0 -0.01,0.01 -0.02,0 -0.01,0.01 -0.02,0 -0.01,0 -0.02,0 -0.01,0 -0.02,0 c -0.21,0 -0.42,-0.2 -0.42,-0.42 0,-0.14 0.11,-0.3 0.31,-0.3 0.21,0 0.42,0.2 0.42,0.42 z"
   style="fill:#000000;stroke-width:0" />
</g>    <path
       sodipodi:type="arc"
       style="color:#000000;fill:#000000;fill-opacity:1;stroke:#000000;stroke-width:3.93714261;stroke-linecap:butt;stroke-linejoin:miter;stroke-miterlimit:4;stroke-opacity:1;stroke-dasharray:none;stroke-dashoffset:0;marker:none;visibility:visible;display:inline;overflow:visible;enable-background:accumulate"
       id="path20997"
       sodipodi:cx="535.55328"
       sodipodi:cy="431.76791"
       sodipodi:rx="5.4303279"
       sodipodi:ry="5.4303279"
       d="m 540.98361,431.76791 a 5.4303279,5.4303279 0 1 1 -10.86065,0 5.4303279,5.4303279 0 1 1 10.86065,0 z"
       transform="matrix(0.66037736,0,0,0.66037736,181.88602,146.63816)" />
  </g>
</svg>
