<?xml version="1.0" encoding="UTF-8" standalone="no"?>
<!-- Created with Inkscape (http://www.inkscape.org/) -->

<svg
   xmlns:dc="http://purl.org/dc/elements/1.1/"
   xmlns:cc="http://creativecommons.org/ns#"
   xmlns:rdf="http://www.w3.org/1999/02/22-rdf-syntax-ns#"
   xmlns:svg="http://www.w3.org/2000/svg"
   xmlns="http://www.w3.org/2000/svg"
   xmlns:sodipodi="http://sodipodi.sourceforge.net/DTD/sodipodi-0.dtd"
   xmlns:inkscape="http://www.inkscape.org/namespaces/inkscape"
   width="744.09448819"
   height="1052.3622047"
   id="svg7525"
   version="1.1"
   inkscape:version="0.48.2 r9819"
   sodipodi:docname="New document 20">
  <defs
     id="defs7527" />
  <sodipodi:namedview
     id="base"
     pagecolor="#ffffff"
     bordercolor="#666666"
     borderopacity="1.0"
     inkscape:pageopacity="0.0"
     inkscape:pageshadow="2"
     inkscape:zoom="1.4"
     inkscape:cx="357.00312"
     inkscape:cy="605.5092"
     inkscape:document-units="px"
     inkscape:current-layer="layer1"
     showgrid="false"
     inkscape:window-width="1104"
     inkscape:window-height="733"
     inkscape:window-x="0"
     inkscape:window-y="24"
     inkscape:window-maximized="0" />
  <metadata
     id="metadata7530">
    <rdf:RDF>
      <cc:Work
         rdf:about="">
        <dc:format>image/svg+xml</dc:format>
        <dc:type
           rdf:resource="http://purl.org/dc/dcmitype/StillImage" />
        <dc:title></dc:title>
      </cc:Work>
    </rdf:RDF>
  </metadata>
  <g
     inkscape:label="Layer 1"
     inkscape:groupmode="layer"
     id="layer1">
    <path
       inkscape:connector-curvature="0"
       style="color:#000000;fill:none;stroke:#000000;stroke-width:1.5;stroke-linecap:butt;stroke-linejoin:miter;stroke-miterlimit:4;stroke-opacity:1;stroke-dasharray:none;stroke-dashoffset:0;marker:none;visibility:visible;display:inline;overflow:visible;enable-background:accumulate"
       d="m 343.08664,399.40543 -57.58563,-25.91354 -35.32262,10.29777"
       id="path4736"
       sodipodi:nodetypes="ccc" />
    <path
       inkscape:connector-curvature="0"
       style="color:#000000;fill:none;stroke:#000000;stroke-width:1.5;stroke-linecap:butt;stroke-linejoin:miter;stroke-miterlimit:4;stroke-opacity:1;stroke-dasharray:none;stroke-dashoffset:0;marker:none;visibility:visible;display:inline;overflow:visible;enable-background:accumulate"
       d="m 210.43402,371.69235 39.69295,12.01071 0,61.77088"
       id="path4738"
       sodipodi:nodetypes="ccc" />
    <path
       inkscape:connector-curvature="0"
       style="color:#000000;fill:none;stroke:#000000;stroke-width:1.5;stroke-linecap:butt;stroke-linejoin:miter;stroke-miterlimit:4;stroke-opacity:1;stroke-dasharray:none;stroke-dashoffset:0;marker:none;visibility:visible;display:inline;overflow:visible;enable-background:accumulate"
       d="m 343.12078,439.54956 -57.61532,8.80366 -35.59157,-3.1187"
       id="path4736-9"
       sodipodi:nodetypes="ccc" />
    <path
       inkscape:connector-curvature="0"
       style="color:#000000;fill:none;stroke:#000000;stroke-width:1.5;stroke-linecap:butt;stroke-linejoin:miter;stroke-miterlimit:4;stroke-opacity:1;stroke-dasharray:none;stroke-dashoffset:0;marker:none;visibility:visible;display:inline;overflow:visible;enable-background:accumulate"
       d="m 210.6878,449.09668 39.10269,-3.86216"
       id="path4738-8"
       sodipodi:nodetypes="cc" />
    <path
       inkscape:connector-curvature="0"
       style="fill:none;stroke:#000000;stroke-width:1.5;stroke-linecap:butt;stroke-linejoin:miter;stroke-miterlimit:4;stroke-opacity:1;stroke-dasharray:none;display:inline"
       d="m 285.50101,448.35322 0,-74.86133"
       id="path4788" />
    <path
       inkscape:connector-curvature="0"
       id="path4938"
       d="m 343.08664,399.19977 0,40.5156"
       style="fill:none;stroke:#000000;stroke-width:1.5;stroke-linecap:butt;stroke-linejoin:miter;stroke-miterlimit:4;stroke-opacity:1;stroke-dasharray:none;display:inline" />
    <path
       inkscape:connector-curvature="0"
       style="color:#000000;fill:#00ff00;fill-opacity:0.11764706;stroke:#000000;stroke-width:0.25253814;stroke-linecap:butt;stroke-linejoin:miter;stroke-miterlimit:4;stroke-opacity:1;stroke-dasharray:0.25253814, 1.01015255;stroke-dashoffset:0;marker:none;visibility:visible;display:inline;overflow:visible;enable-background:accumulate"
       d="m 211.36626,372.43866 c -1.03751,0.94838 -0.40596,2.7029 -0.65644,3.95349 -0.19095,23.93782 -0.0493,47.87734 -0.0933,71.81584 0.65249,1.30612 2.50016,0.10372 3.67759,0.28411 11.67469,-1.21815 23.37772,-2.20897 35.03966,-3.51975 1.15115,-0.98537 0.24834,-2.99932 0.53092,-4.40363 -0.0655,-13.30654 0.0567,-26.62618 -0.16,-39.92471 -0.073,-0.92918 -1.26252,-0.76653 -1.72831,-0.93912 -0.38306,-1.20965 1.51315,-0.24062 1.64939,-1.40475 0.54185,-4.14593 0.18328,-8.38472 0.18908,-12.56351 0.15547,-1.0319 -0.16793,-2.19386 -1.41176,-2.20669 -12.21848,-3.79901 -24.52645,-7.52355 -36.76063,-11.15441 l -0.24619,0.0563 -0.03,0.007 z m 2.10711,26.59542 c 0.98983,-0.48549 0.94143,1.3021 -0.0395,0.7734 -0.0757,-0.0689 -0.15785,-0.76336 0.0395,-0.7734 z m 3.53553,0 c 0.98984,-0.48549 0.94144,1.3021 -0.0395,0.7734 -0.0757,-0.0689 -0.15785,-0.76336 0.0395,-0.7734 z m 3.45662,0 c 1.24385,-0.36916 0.0405,1.71961 -0.0158,0.3867 0.0494,-0.0911 -0.0352,-0.28865 0.0158,-0.3867 z m 3.36191,0 c 0.98984,-0.48549 0.94144,1.3021 -0.0395,0.7734 -0.0757,-0.0689 -0.15785,-0.76336 0.0395,-0.7734 z m 3.53554,0 c 0.98983,-0.48549 0.94143,1.3021 -0.0395,0.7734 -0.0757,-0.0689 -0.15786,-0.76336 0.0395,-0.7734 z m 3.45661,0 c 1.24386,-0.36916 0.0405,1.71961 -0.0158,0.3867 0.0494,-0.0911 -0.0352,-0.28865 0.0158,-0.3867 z m 3.36192,0 c 0.98983,-0.48549 0.94143,1.3021 -0.0395,0.7734 -0.0757,-0.0689 -0.15786,-0.76336 0.0395,-0.7734 z m 3.53553,0 c 0.98983,-0.48549 0.94143,1.3021 -0.0395,0.7734 -0.0757,-0.0689 -0.15785,-0.76336 0.0395,-0.7734 z m 3.53554,0 c 0.98983,-0.48549 0.94143,1.3021 -0.0395,0.7734 -0.0757,-0.0689 -0.15786,-0.76336 0.0395,-0.7734 z m 3.28299,0 c 0.98983,-0.48549 0.94143,1.3021 -0.0395,0.7734 -0.0757,-0.0689 -0.15785,-0.76336 0.0395,-0.7734 z"
       id="path4134" />
    <path
       inkscape:connector-curvature="0"
       style="color:#000000;fill:#ff0000;fill-opacity:0.11764706;stroke:#000000;stroke-width:0.25253814;stroke-linecap:butt;stroke-linejoin:miter;stroke-miterlimit:4;stroke-opacity:1;stroke-dasharray:0.25253814, 1.01015255;stroke-dashoffset:0;marker:none;visibility:visible;display:inline;overflow:visible;enable-background:accumulate"
       d="m 284.04989,374.19854 c -10.99146,3.27634 -22.08939,6.23939 -32.9799,9.82531 -1.01193,0.92339 -0.4083,2.63005 -0.63883,3.85904 0.0818,3.49375 -0.22094,7.03915 0.22056,10.50406 0.15975,0.84917 1.2202,0.55905 1.63361,0.74973 0.40794,1.27746 -1.72306,0.16865 -1.72831,1.50733 -0.22081,14.57447 -0.0938,29.16978 -0.16573,43.75224 0.69087,1.23699 2.63588,0.54304 3.85828,0.92927 10.03399,0.86818 20.07249,1.94454 30.1081,2.63783 1.40556,-0.71322 0.50485,-2.712 0.77872,-3.93801 -0.0187,-22.56228 0.21869,-45.1274 -0.0624,-67.68793 -0.11653,-0.75342 0.17617,-2.25398 -1.02413,-2.13887 z m -29.16026,24.83554 c 0.98983,-0.48549 0.94143,1.3021 -0.0395,0.7734 -0.0757,-0.0689 -0.15786,-0.76336 0.0395,-0.7734 z m 3.53553,0 c 0.98983,-0.48549 0.94143,1.3021 -0.0395,0.7734 -0.0757,-0.0689 -0.15786,-0.76336 0.0395,-0.7734 z m 3.53553,0 c 0.98983,-0.48549 0.94144,1.3021 -0.0395,0.7734 -0.0757,-0.0689 -0.15785,-0.76336 0.0395,-0.7734 z m 3.283,0 c 0.98983,-0.48549 0.94143,1.3021 -0.0395,0.7734 -0.0757,-0.0689 -0.15786,-0.76336 0.0395,-0.7734 z m 3.53553,0 c 0.98983,-0.48549 0.94144,1.3021 -0.0395,0.7734 -0.0757,-0.0689 -0.15785,-0.76336 0.0395,-0.7734 z m 3.53554,0 c 0.98983,-0.48549 0.94143,1.3021 -0.0395,0.7734 -0.0757,-0.0689 -0.15786,-0.76336 0.0395,-0.7734 z m 3.45662,0 c 1.24385,-0.36916 0.0405,1.71961 -0.0158,0.3867 0.0494,-0.0911 -0.0352,-0.28865 0.0158,-0.3867 z m 3.36191,0 c 0.98983,-0.48549 0.94143,1.3021 -0.0395,0.7734 -0.0757,-0.0689 -0.15785,-0.76336 0.0395,-0.7734 z m 3.53553,0 c 0.98984,-0.48549 0.94144,1.3021 -0.0395,0.7734 -0.0757,-0.0689 -0.15786,-0.76336 0.0395,-0.7734 z"
       id="path4136" />
    <path
       inkscape:connector-curvature="0"
       style="color:#000000;fill:#00ff00;fill-opacity:0.11764706;stroke:#000000;stroke-width:0.25253814;stroke-linecap:butt;stroke-linejoin:miter;stroke-miterlimit:4;stroke-opacity:1;stroke-dasharray:0.25253814, 1.01015255;stroke-dashoffset:0;marker:none;visibility:visible;display:inline;overflow:visible;enable-background:accumulate"
       d="m 286.14122,374.65626 c -0.62473,1.87326 -0.0909,4.07073 -0.26832,6.06881 0.10036,5.85387 -0.21627,11.75702 0.22097,17.58297 0.24219,0.53788 0.81581,0.87321 0.4893,1.56258 -1.01386,1.05041 -0.39425,2.83435 -0.63957,4.15881 -0.13408,14.43364 -0.0442,28.86845 -0.0707,43.30257 0.66275,1.28074 2.48603,0.0381 3.64602,0.14995 17.54754,-2.73854 35.12883,-5.28948 52.6542,-8.15225 0.98359,-0.95884 0.23775,-2.62641 0.50794,-3.85908 0.0613,-11.59073 0.22895,-23.19652 -0.0344,-34.77925 -0.0143,-1.00819 -1.23939,-0.66995 -1.6336,-1.09697 -0.46219,-0.88273 -2.35873,-1.4208 -2.35966,0.0237 -0.58325,0.75 -0.92242,-0.40215 -0.82075,-1.08907 -0.12471,-1.08199 -1.39682,-1.08778 -1.82301,-1.9335 -0.88513,-0.74531 -2.40901,-0.0972 -2.95154,-1.30215 -0.98449,-0.84054 -2.55381,-0.26641 -3.29877,-1.52312 -1.05418,-0.57738 -2.52218,-0.3827 -3.283,-1.49155 -0.9404,-0.65958 -2.36281,-0.19882 -2.95154,-1.33372 -1.25998,-0.53729 -2.7021,-0.64251 -3.70126,-1.67306 -0.97171,-0.3128 -2.13907,-0.31884 -2.71479,-1.27848 -1.05317,-0.53849 -2.39567,-0.31576 -3.20407,-1.34161 -0.95023,-0.69989 -2.377,-0.33296 -3.0857,-1.41263 -1.08151,-0.56259 -2.49707,-0.4544 -3.283,-1.51523 -1.07685,-0.44458 -2.27162,-0.53524 -3.1804,-1.36529 -1.14548,-0.49328 -2.35556,-0.75279 -3.36981,-1.53101 -0.99606,-0.39053 -2.1422,-0.58126 -2.8884,-1.38896 -2.02266,-0.54347 -3.85028,-1.73604 -5.7926,-2.407 -1.05359,-0.97764 -2.69427,-0.87817 -3.79596,-1.84669 -0.71091,-0.34857 -1.57166,-0.73565 -2.36755,-0.52875 z m 3.34613,24.37782 c 0.98984,-0.48549 0.94144,1.3021 -0.0395,0.7734 -0.0757,-0.0689 -0.15786,-0.76336 0.0395,-0.7734 z m 3.53554,0 c 0.98983,-0.48549 0.94143,1.3021 -0.0395,0.7734 -0.0757,-0.0689 -0.15786,-0.76336 0.0395,-0.7734 z m 3.45661,0 c 1.24386,-0.36916 0.0404,1.71961 -0.0158,0.3867 0.0494,-0.0911 -0.0352,-0.28865 0.0158,-0.3867 z m 3.36192,0 c 0.98983,-0.48549 0.94143,1.3021 -0.0395,0.7734 -0.0757,-0.0689 -0.15786,-0.76336 0.0395,-0.7734 z m 3.53553,0 c 0.98983,-0.48549 0.94144,1.3021 -0.0395,0.7734 -0.0757,-0.0689 -0.15785,-0.76336 0.0395,-0.7734 z m 3.45662,0 c 1.24385,-0.36916 0.0404,1.71961 -0.0158,0.3867 0.0494,-0.0911 -0.0352,-0.28865 0.0158,-0.3867 z m 3.36191,0 c 0.98983,-0.48549 0.94143,1.3021 -0.0395,0.7734 -0.0757,-0.0689 -0.15785,-0.76336 0.0395,-0.7734 z m 3.53554,0 c 0.98983,-0.48549 0.94143,1.3021 -0.0395,0.7734 -0.0757,-0.0689 -0.15786,-0.76336 0.0395,-0.7734 z m 3.53553,0 c 0.98983,-0.48549 0.94143,1.3021 -0.0395,0.7734 -0.0757,-0.0689 -0.15785,-0.76336 0.0395,-0.7734 z m 3.283,0 c 0.98983,-0.48549 0.94143,1.3021 -0.0395,0.7734 -0.0757,-0.0689 -0.15786,-0.76336 0.0395,-0.7734 z m 3.53553,0 c 0.98983,-0.48549 0.94143,1.3021 -0.0395,0.7734 -0.0757,-0.0689 -0.15785,-0.76336 0.0395,-0.7734 z m 3.53553,0 c 0.98983,-0.48549 0.94143,1.3021 -0.0395,0.7734 -0.0757,-0.0689 -0.15785,-0.76336 0.0395,-0.7734 z m 3.283,0 c 0.98983,-0.48549 0.94143,1.3021 -0.0395,0.7734 -0.0757,-0.0689 -0.15785,-0.76336 0.0395,-0.7734 z m 3.53553,0 c 0.98983,-0.48549 0.94143,1.3021 -0.0395,0.7734 -0.0757,-0.0689 -0.15785,-0.76336 0.0395,-0.7734 z"
       id="path4138" />
    <path
       sodipodi:nodetypes="cc"
       style="fill:none;stroke:#808080;stroke-width:1.7275691;stroke-linecap:butt;stroke-linejoin:miter;stroke-miterlimit:4;stroke-opacity:1;stroke-dasharray:1.72756906, 1.72756906;stroke-dashoffset:0;display:inline"
       d="m 343.08664,349.67693 0,136.79908"
       id="path4095"
       inkscape:connector-curvature="0" />
    <rect
       style="fill:none;stroke:#000000;stroke-width:0.9570145;stroke-miterlimit:4;stroke-opacity:1;stroke-dasharray:none;display:inline"
       id="rect4089"
       width="166.99834"
       height="126.6884"
       x="210.63965"
       y="353.33691" />
    <path
       sodipodi:nodetypes="cc"
       style="fill:none;stroke:#808080;stroke-width:1.7275691;stroke-linecap:butt;stroke-linejoin:miter;stroke-miterlimit:4;stroke-opacity:1;stroke-dasharray:1.72756906, 1.72756906;stroke-dashoffset:0;display:inline"
       d="m 250.12697,349.67693 0,135.69313"
       id="path4095-8"
       inkscape:connector-curvature="0" />
    <path
       sodipodi:nodetypes="cc"
       style="fill:none;stroke:#808080;stroke-width:1.7275691;stroke-linecap:butt;stroke-linejoin:miter;stroke-miterlimit:4;stroke-opacity:1;stroke-dasharray:1.72756906, 1.72756906;stroke-dashoffset:0;display:inline"
       d="m 285.50101,349.67694 0,135.69312"
       id="path4095-9"
       inkscape:connector-curvature="0" />
    <path
       style="fill:none;stroke:#000000;stroke-width:1px;stroke-linecap:butt;stroke-linejoin:miter;stroke-opacity:1;display:inline"
       d="m 341.35817,399.87254 36.79051,-5.4061"
       id="path3275"
       inkscape:connector-curvature="0"
       sodipodi:nodetypes="cc" />
    <path
       style="fill:#ff0000;fill-opacity:0.11764706;stroke:#000000;stroke-width:1px;stroke-linecap:butt;stroke-linejoin:miter;stroke-opacity:1;display:inline"
       d="m 377.96516,393.77704 -35.71428,5.71429 0,39.28571 35,2.14286 z"
       id="path3279"
       inkscape:connector-curvature="0" />
    <path
       style="fill:none;stroke:#ff0000;stroke-width:8;stroke-linecap:butt;stroke-linejoin:miter;stroke-miterlimit:4;stroke-opacity:1;stroke-dasharray:none;display:inline"
       d="m 210.44305,449.01468 41.41625,-3.03046 34.34519,1.01015 58.58885,-8.08122 33.33504,2.0203"
       id="path7398"
       inkscape:connector-curvature="0" />
  </g>
</svg>
