<?xml version="1.0" encoding="UTF-8" standalone="no"?>
<!-- Created with Inkscape (http://www.inkscape.org/) -->

<svg
   xmlns:dc="http://purl.org/dc/elements/1.1/"
   xmlns:cc="http://creativecommons.org/ns#"
   xmlns:rdf="http://www.w3.org/1999/02/22-rdf-syntax-ns#"
   xmlns:svg="http://www.w3.org/2000/svg"
   xmlns="http://www.w3.org/2000/svg"
   xmlns:xlink="http://www.w3.org/1999/xlink"
   xmlns:sodipodi="http://sodipodi.sourceforge.net/DTD/sodipodi-0.dtd"
   xmlns:inkscape="http://www.inkscape.org/namespaces/inkscape"
   width="744.09448819"
   height="1052.3622047"
   id="svg6135"
   version="1.1"
   inkscape:version="0.47 r22583"
   sodipodi:docname="lab_ground1_030.svg"
   inkscape:export-filename="/home/alex/DPhil/Papers/eccv2010/poster/figures/true_models/lab_ground1_030.png"
   inkscape:export-xdpi="90"
   inkscape:export-ydpi="90">
  <defs
     id="defs6137">
    <inkscape:perspective
       sodipodi:type="inkscape:persp3d"
       inkscape:vp_x="0 : 526.18109 : 1"
       inkscape:vp_y="0 : 1000 : 0"
       inkscape:vp_z="744.09448 : 526.18109 : 1"
       inkscape:persp3d-origin="372.04724 : 350.78739 : 1"
       id="perspective6143" />
    <inkscape:perspective
       id="perspective6210"
       inkscape:persp3d-origin="0.5 : 0.33333333 : 1"
       inkscape:vp_z="1 : 0.5 : 1"
       inkscape:vp_y="0 : 1000 : 0"
       inkscape:vp_x="0 : 0.5 : 1"
       sodipodi:type="inkscape:persp3d" />
    <inkscape:perspective
       id="perspective6238"
       inkscape:persp3d-origin="0.5 : 0.33333333 : 1"
       inkscape:vp_z="1 : 0.5 : 1"
       inkscape:vp_y="0 : 1000 : 0"
       inkscape:vp_x="0 : 0.5 : 1"
       sodipodi:type="inkscape:persp3d" />
    <inkscape:perspective
       id="perspective6260"
       inkscape:persp3d-origin="0.5 : 0.33333333 : 1"
       inkscape:vp_z="1 : 0.5 : 1"
       inkscape:vp_y="0 : 1000 : 0"
       inkscape:vp_x="0 : 0.5 : 1"
       sodipodi:type="inkscape:persp3d" />
    <inkscape:perspective
       id="perspective6260-4"
       inkscape:persp3d-origin="0.5 : 0.33333333 : 1"
       inkscape:vp_z="1 : 0.5 : 1"
       inkscape:vp_y="0 : 1000 : 0"
       inkscape:vp_x="0 : 0.5 : 1"
       sodipodi:type="inkscape:persp3d" />
    <inkscape:perspective
       id="perspective6260-6"
       inkscape:persp3d-origin="0.5 : 0.33333333 : 1"
       inkscape:vp_z="1 : 0.5 : 1"
       inkscape:vp_y="0 : 1000 : 0"
       inkscape:vp_x="0 : 0.5 : 1"
       sodipodi:type="inkscape:persp3d" />
    <inkscape:perspective
       id="perspective6260-61"
       inkscape:persp3d-origin="0.5 : 0.33333333 : 1"
       inkscape:vp_z="1 : 0.5 : 1"
       inkscape:vp_y="0 : 1000 : 0"
       inkscape:vp_x="0 : 0.5 : 1"
       sodipodi:type="inkscape:persp3d" />
    <inkscape:perspective
       id="perspective22621"
       inkscape:persp3d-origin="0.5 : 0.33333333 : 1"
       inkscape:vp_z="1 : 0.5 : 1"
       inkscape:vp_y="0 : 1000 : 0"
       inkscape:vp_x="0 : 0.5 : 1"
       sodipodi:type="inkscape:persp3d" />
  </defs>
  <sodipodi:namedview
     id="base"
     pagecolor="#ffffff"
     bordercolor="#666666"
     borderopacity="1.0"
     inkscape:pageopacity="0.0"
     inkscape:pageshadow="2"
     inkscape:zoom="0.35"
     inkscape:cx="969.81736"
     inkscape:cy="361.76806"
     inkscape:document-units="px"
     inkscape:current-layer="layer1"
     showgrid="false"
     inkscape:window-width="1520"
     inkscape:window-height="952"
     inkscape:window-x="0"
     inkscape:window-y="24"
     inkscape:window-maximized="0" />
  <metadata
     id="metadata6140">
    <rdf:RDF>
      <cc:Work
         rdf:about="">
        <dc:format>image/svg+xml</dc:format>
        <dc:type
           rdf:resource="http://purl.org/dc/dcmitype/StillImage" />
        <dc:title></dc:title>
      </cc:Work>
    </rdf:RDF>
  </metadata>
  <g
     inkscape:label="Layer 1"
     inkscape:groupmode="layer"
     id="layer1">
    <image
       sodipodi:absref="/home/alex/DPhil/Papers/eccv2010/figures/true_models/lab_ground1/frame030_rectmodel.png"
       xlink:href="lab_ground1/frame030_rectmodel.png"
       y="158.24046"
       x="46.151009"
       id="image6212"
       height="480"
       width="640"
       style="opacity:0.5" />
    <rect
       style="color:#000000;fill:#ffffff;fill-opacity:1;stroke:none;stroke-width:10;marker:none;visibility:visible;display:inline;overflow:visible;enable-background:accumulate"
       id="rect22532"
       width="529.82141"
       height="26.607143"
       x="86.428566"
       y="178.43361" />
    <rect
       style="color:#000000;fill:#ffffff;fill-opacity:1;stroke:none;stroke-width:10;marker:none;visibility:visible;display:inline;overflow:visible;enable-background:accumulate"
       id="rect22526"
       width="611.8443"
       height="46.84338"
       x="71.395226"
       y="609.91534" />
    <g
       id="g22578"
       style="stroke-width:10;stroke-miterlimit:4;stroke-dasharray:none">
      <path
         id="path6216"
         d="m 87.043855,236.63331 24.464295,0 0,293.03571 -35.892865,-0.89286"
         style="fill:none;stroke:#000000;stroke-width:10;stroke-linecap:round;stroke-linejoin:round;stroke-miterlimit:4;stroke-opacity:1;stroke-dasharray:none" />
      <path
         sodipodi:nodetypes="cccccc"
         id="path6218"
         d="m 111.06172,237.16902 c 0,-0.44643 0,-19.28571 0,-19.28571 l 87.41071,-1.51786 0,369.28571 -85.89285,-5.26785 0.26785,-50.44643"
         style="fill:none;stroke:#000000;stroke-width:10;stroke-linecap:round;stroke-linejoin:round;stroke-miterlimit:4;stroke-opacity:1;stroke-dasharray:none" />
      <path
         id="path6220"
         d="m 197.93672,216.81188 86.07143,39.64286 0,220.71429 -86.07143,108.57142"
         style="fill:none;stroke:#000000;stroke-width:10;stroke-linecap:round;stroke-linejoin:round;stroke-miterlimit:4;stroke-opacity:1;stroke-dasharray:none" />
      <path
         id="path6222"
         d="m 283.29386,256.45474 200,-1.42857 0,227.5 -199.64285,-5.71429"
         style="fill:none;stroke:#000000;stroke-width:10;stroke-linecap:round;stroke-linejoin:round;stroke-miterlimit:4;stroke-opacity:1;stroke-dasharray:none" />
      <path
         id="path6224"
         d="m 482.93672,255.38331 51.78571,-46.07143 -2.14285,390.71429 -49.64286,-117.5"
         style="fill:none;stroke:#000000;stroke-width:10;stroke-linecap:round;stroke-linejoin:round;stroke-miterlimit:4;stroke-opacity:1;stroke-dasharray:none" />
      <path
         id="path6226"
         d="m 534.72243,210.02616 92.5,-1.25"
         style="fill:none;stroke:#000000;stroke-width:10;stroke-linecap:round;stroke-linejoin:round;stroke-miterlimit:4;stroke-opacity:1;stroke-dasharray:none" />
      <path
         id="path6228"
         d="m 532.57958,600.74045 c 0.89285,0 147.49999,6.96429 147.49999,6.96429"
         style="fill:none;stroke:#000000;stroke-width:10;stroke-linecap:round;stroke-linejoin:round;stroke-miterlimit:4;stroke-opacity:1;stroke-dasharray:none" />
    </g>
    <path
       style="opacity:1;color:#000000;fill:#ffffff;fill-opacity:1;stroke:none;stroke-width:10;marker:none;visibility:visible;display:inline;overflow:visible;enable-background:accumulate"
       d="m 71.746841,637.25874 c 0.0061,-0.69448 0.907754,-21.94556 2.003678,-47.22463 1.095925,-25.27907 2.000073,-48.81373 2.009218,-52.29925 l 0.01663,-6.33731 17.266792,0.27639 17.266795,0.2764 -0.0624,29.04188 c -0.0535,24.89319 0.14951,29.04189 1.42103,29.04189 1.02191,0 1.48343,-1.09996 1.48343,-3.53554 l 0,-3.53553 5.3033,0.0575 c 2.91681,0.0316 21.64055,1.08635 41.6083,2.34389 25.21241,1.58786 36.42636,2.65055 36.70221,3.47809 0.7074,2.12221 2.78906,1.26402 3.8681,-1.59467 0.85752,-2.27185 31.1825,-41.16176 62.45857,-80.09929 3.37045,-4.19611 9.76464,-12.28929 14.20931,-17.98488 l 8.08122,-10.35562 13.63706,0.54859 c 7.50038,0.30173 49.32069,1.48248 92.93403,2.62389 43.61334,1.14141 81.68346,2.31554 84.60028,2.60919 l 5.3033,0.53391 0,4.473 c 0,3.61439 0.34496,4.473 1.79711,4.473 1.41454,0 6.50745,11.12877 23.92306,52.27539 12.16927,28.75147 22.5914,53.98003 23.16031,56.06347 1.00441,3.67832 3.64745,5.32528 3.64745,2.27284 0,-1.91673 -5.64212,-2.03949 68.1853,1.48347 34.4462,1.64373 66.33513,3.0901 70.86429,3.21415 l 8.23483,0.22556 0.63751,3.98672 c 0.35063,2.1927 0.50878,4.0962 0.35146,4.23001 -0.15733,0.13382 -9.37741,0.76137 -20.48909,1.39458 -38.29114,2.18203 -108.40554,6.21191 -221.82515,12.74957 l -113.73882,6.55605 -127.4351,0 c -101.280555,0 -127.432821,-0.25915 -127.424009,-1.26269 z m 41.405169,-3.283 c 0,-2.46925 -0.45698,-3.53553 -1.51523,-3.53553 -1.05826,0 -1.51523,1.06628 -1.51523,3.53553 0,2.46926 0.45697,3.53554 1.51523,3.53554 1.05825,0 1.51523,-1.06628 1.51523,-3.53554 z m 86.87312,0 c 0,-2.46925 -0.45698,-3.53553 -1.51523,-3.53553 -1.05826,0 -1.51523,1.06628 -1.51523,3.53553 0,2.46926 0.45697,3.53554 1.51523,3.53554 1.05825,0 1.51523,-1.06628 1.51523,-3.53554 z m 84.85281,0 c 0,-2.46925 -0.45697,-3.53553 -1.51523,-3.53553 -1.05825,0 -1.51523,1.06628 -1.51523,3.53553 0,2.46926 0.45698,3.53554 1.51523,3.53554 1.05826,0 1.51523,-1.06628 1.51523,-3.53554 z M 113.15201,617.8133 c 0,-2.46925 -0.45698,-3.53553 -1.51523,-3.53553 -1.05826,0 -1.51523,1.06628 -1.51523,3.53553 0,2.46926 0.45697,3.53554 1.51523,3.53554 1.05825,0 1.51523,-1.06628 1.51523,-3.53554 z m 86.87312,0 c 0,-2.46925 -0.45698,-3.53553 -1.51523,-3.53553 -1.05826,0 -1.51523,1.06628 -1.51523,3.53553 0,2.46926 0.45697,3.53554 1.51523,3.53554 1.05825,0 1.51523,-1.06628 1.51523,-3.53554 z m 84.85281,0 c 0,-2.46925 -0.45697,-3.53553 -1.51523,-3.53553 -1.05825,0 -1.51523,1.06628 -1.51523,3.53553 0,2.46926 0.45698,3.53554 1.51523,3.53554 1.05826,0 1.51523,-1.06628 1.51523,-3.53554 z m 200.01021,0 c 0,-2.46925 -0.45698,-3.53553 -1.51523,-3.53553 -1.05826,0 -1.51523,1.06628 -1.51523,3.53553 0,2.46926 0.45697,3.53554 1.51523,3.53554 1.05825,0 1.51523,-1.06628 1.51523,-3.53554 z m 49.49747,0 c 0,-2.46925 -0.45697,-3.53553 -1.51523,-3.53553 -1.05825,0 -1.51523,1.06628 -1.51523,3.53553 0,2.46926 0.45698,3.53554 1.51523,3.53554 1.05826,0 1.51523,-1.06628 1.51523,-3.53554 z M 113.15201,602.15594 c 0,-2.91822 -0.4209,-4.04061 -1.51523,-4.04061 -1.09433,0 -1.51523,1.12239 -1.51523,4.04061 0,2.91822 0.4209,4.04061 1.51523,4.04061 1.09433,0 1.51523,-1.12239 1.51523,-4.04061 z m 86.87312,0 c 0,-2.91822 -0.4209,-4.04061 -1.51523,-4.04061 -1.09433,0 -1.51523,1.12239 -1.51523,4.04061 0,2.91822 0.4209,4.04061 1.51523,4.04061 1.09433,0 1.51523,-1.12239 1.51523,-4.04061 z m 84.85281,0 c 0,-2.91822 -0.4209,-4.04061 -1.51523,-4.04061 -1.09433,0 -1.51523,1.12239 -1.51523,4.04061 0,2.91822 0.4209,4.04061 1.51523,4.04061 1.09433,0 1.51523,-1.12239 1.51523,-4.04061 z m 200.01021,0 c 0,-2.91822 -0.4209,-4.04061 -1.51523,-4.04061 -1.09433,0 -1.51523,1.12239 -1.51523,4.04061 0,2.91822 0.4209,4.04061 1.51523,4.04061 1.09433,0 1.51523,-1.12239 1.51523,-4.04061 z M 284.87794,586.49857 c 0,-2.46925 -0.45697,-3.53553 -1.51523,-3.53553 -1.05825,0 -1.51523,1.06628 -1.51523,3.53553 0,2.46926 0.45698,3.53554 1.51523,3.53554 1.05826,0 1.51523,-1.06628 1.51523,-3.53554 z m 200.01021,0 c 0,-2.46925 -0.45698,-3.53553 -1.51523,-3.53553 -1.05826,0 -1.51523,1.06628 -1.51523,3.53553 0,2.46926 0.45697,3.53554 1.51523,3.53554 1.05825,0 1.51523,-1.06628 1.51523,-3.53554 z M 284.87794,570.33613 c 0,-2.46926 -0.45697,-3.53553 -1.51523,-3.53553 -1.05825,0 -1.51523,1.06627 -1.51523,3.53553 0,2.46926 0.45698,3.53554 1.51523,3.53554 1.05826,0 1.51523,-1.06628 1.51523,-3.53554 z m 200.01021,0 c 0,-2.46926 -0.45698,-3.53553 -1.51523,-3.53553 -1.05826,0 -1.51523,1.06627 -1.51523,3.53553 0,2.46926 0.45697,3.53554 1.51523,3.53554 1.05825,0 1.51523,-1.06628 1.51523,-3.53554 z M 284.87794,554.17369 c 0,-2.46926 -0.45697,-3.53553 -1.51523,-3.53553 -1.05825,0 -1.51523,1.06627 -1.51523,3.53553 0,2.46926 0.45698,3.53554 1.51523,3.53554 1.05826,0 1.51523,-1.06628 1.51523,-3.53554 z m 200.01021,0 c 0,-2.46926 -0.45698,-3.53553 -1.51523,-3.53553 -1.05826,0 -1.51523,1.06627 -1.51523,3.53553 0,2.46926 0.45697,3.53554 1.51523,3.53554 1.05825,0 1.51523,-1.06628 1.51523,-3.53554 z M 284.87794,538.01125 c 0,-2.46926 -0.45697,-3.53553 -1.51523,-3.53553 -1.05825,0 -1.51523,1.06627 -1.51523,3.53553 0,2.46926 0.45698,3.53554 1.51523,3.53554 1.05826,0 1.51523,-1.06628 1.51523,-3.53554 z m 200.01021,0 c 0,-2.46926 -0.45698,-3.53553 -1.51523,-3.53553 -1.05826,0 -1.51523,1.06627 -1.51523,3.53553 0,2.46926 0.45697,3.53554 1.51523,3.53554 1.05825,0 1.51523,-1.06628 1.51523,-3.53554 z M 284.87794,521.84881 c 0,-2.46926 -0.45697,-3.53553 -1.51523,-3.53553 -1.05825,0 -1.51523,1.06627 -1.51523,3.53553 0,2.46926 0.45698,3.53553 1.51523,3.53553 1.05826,0 1.51523,-1.06627 1.51523,-3.53553 z m 200.01021,0 c 0,-2.46926 -0.45698,-3.53553 -1.51523,-3.53553 -1.05826,0 -1.51523,1.06627 -1.51523,3.53553 0,2.46926 0.45697,3.53553 1.51523,3.53553 1.05825,0 1.51523,-1.06627 1.51523,-3.53553 z M 284.87794,506.19145 c 0,-2.91822 -0.4209,-4.04061 -1.51523,-4.04061 -1.09433,0 -1.51523,1.12239 -1.51523,4.04061 0,2.91821 0.4209,4.04061 1.51523,4.04061 1.09433,0 1.51523,-1.1224 1.51523,-4.04061 z m 200.01021,0 c 0,-2.91822 -0.4209,-4.04061 -1.51523,-4.04061 -1.09433,0 -1.51523,1.12239 -1.51523,4.04061 0,2.91821 0.4209,4.04061 1.51523,4.04061 1.09433,0 1.51523,-1.1224 1.51523,-4.04061 z M 284.87794,490.53408 c 0,-2.46926 -0.45697,-3.53553 -1.51523,-3.53553 -1.05825,0 -1.51523,1.06627 -1.51523,3.53553 0,2.46926 0.45698,3.53554 1.51523,3.53554 1.05826,0 1.51523,-1.06628 1.51523,-3.53554 z"
       id="path22522" />
    <rect
       style="color:#000000;fill:#ffffff;fill-opacity:1;stroke:none;stroke-width:10;marker:none;visibility:visible;display:inline;overflow:visible;enable-background:accumulate"
       id="rect22524"
       width="11.364216"
       height="106.94991"
       x="64.649765"
       y="531.24976" />
    <rect
       style="color:#000000;fill:#ffffff;fill-opacity:1;stroke:none;stroke-width:10;marker:none;visibility:visible;display:inline;overflow:visible;enable-background:accumulate"
       id="rect22530"
       width="5.3571429"
       height="33.035713"
       x="85.178574"
       y="200.39789" />
    <rect
       style="color:#000000;fill:#ffffff;fill-opacity:1;stroke:none;stroke-width:10;marker:none;visibility:visible;display:inline;overflow:visible;enable-background:accumulate"
       id="rect22534"
       width="14.532996"
       height="30.714287"
       x="617.5"
       y="175.75504" />
    <path
       style="color:#000000;fill:#ffffff;fill-opacity:1;stroke:none;stroke-width:10;marker:none;visibility:visible;display:inline;overflow:visible;enable-background:accumulate"
       d="m 285.5215,250.60445 c 0,-3.7061 -0.10493,-3.94299 -1.74658,-3.94299 -1.55077,0 -1.77098,0.34745 -1.96428,3.09922 l -0.21771,3.09921 -40,-18.40184 c -22,-10.121 -40.44081,-18.79691 -40.97957,-19.2798 -1.0427,-0.93455 -10.51406,-0.94043 -61.69979,-0.0383 -14.04507,0.24754 -25.53614,0.209 -25.53571,-0.0856 4.3e-4,-0.29464 -0.79667,-0.53572 -1.77132,-0.53572 -2.24867,0 -2.47081,0.94198 -2.69508,11.42858 l -0.17568,8.21428 -10.262362,0.1987 -10.262368,0.19869 0.280748,-14.26469 c 0.154411,-7.84559 0.463719,-14.44767 0.687351,-14.6713 0.223632,-0.22363 4.956432,-0.61358 10.517334,-0.86654 7.436997,-0.33831 10.110727,-0.24166 10.110727,0.36546 0,1.11681 3.37566,1.05607 3.74936,-0.0675 0.216,-0.64943 3.34811,-0.95902 11.48809,-1.13554 6.15512,-0.13347 11.19112,-0.49716 11.19112,-0.8082 0,-0.31104 9,-0.80243 20.00001,-1.09198 11,-0.28954 20,-0.80978 20,-1.15608 0,-0.34629 4.5,-0.62963 10,-0.62963 l 10,0 0,2.85714 c 0,2.57143 0.17857,2.85715 1.78571,2.85715 1.6334,0 1.78571,-0.26729 1.78571,-3.13364 l 0,-3.13364 18.39286,-0.51862 c 10.11607,-0.28524 18.71429,-0.76734 19.10714,-1.07133 0.39286,-0.30399 9.39286,-0.78421 20,-1.06716 10.60715,-0.28294 19.60715,-0.75709 20,-1.05366 0.39286,-0.29657 13.89286,-0.94683 30,-1.44501 16.10715,-0.49819 29.60715,-1.14996 30,-1.44838 0.39286,-0.29842 9.79465,-0.77681 20.89286,-1.06308 11.09822,-0.28628 20.17857,-0.75193 20.17857,-1.03478 0,-0.28285 13.5,-0.93952 30,-1.45928 16.5,-0.51975 30,-1.17643 30,-1.45928 0,-0.28285 9,-0.75117 20,-1.04072 11,-0.28954 20,-0.80978 20,-1.15608 0,-0.34629 0.64286,-0.62963 1.42857,-0.62963 1.15647,0 1.42858,0.47619 1.42858,2.5 0,2.19048 0.22108,2.5 1.78571,2.5 1.55066,0 1.78571,-0.3161 1.78571,-2.40137 l 0,-2.40137 13.03572,-0.46857 c 7.16964,-0.25771 17.43472,-0.66759 22.81129,-0.91084 l 9.77557,-0.44227 0.22443,3.13364 c 0.1879,2.62357 0.48602,3.17079 1.83157,3.36189 1.46549,0.20813 1.60714,-0.0594 1.60714,-3.03572 0,-3.25405 0.008,-3.26396 2.5,-3.26396 1.375,0 2.5,-0.28196 2.5,-0.62659 0,-0.34462 8.91964,-0.86374 19.82143,-1.15361 10.90178,-0.28987 19.98214,-0.76055 20.17857,-1.04596 0.32291,-0.4692 43.6119,-2.20901 44.16028,-1.77483 0.12744,0.1009 0.55503,3.66847 0.95021,7.92794 0.39517,4.25946 0.98875,8.38733 1.31906,9.17305 0.33031,0.78571 0.77659,3.38845 0.99174,5.78386 l 0.39117,4.3553 -30.15623,0.47596 c -16.58593,0.26178 -37.64943,0.50054 -46.80779,0.53059 l -16.65155,0.0546 -24.06273,21.46384 c -22.07467,19.69049 -24.0814,21.30806 -24.28875,19.57841 -0.17493,-1.4593 -0.61889,-1.88544 -1.96428,-1.88544 -1.57677,0 -1.73827,0.2905 -1.73827,3.12674 l 0,3.12675 -91.25,0.44346 c -50.1875,0.24391 -94.22322,0.61122 -97.85715,0.81624 l -6.60714,0.37279 0,-3.94299 0,0 z m 0,-16.44299 c 0,-3.71428 -0.0974,-3.92857 -1.78571,-3.92857 -1.68832,0 -1.78572,0.21429 -1.78572,3.92857 0,3.71429 0.0974,3.92857 1.78572,3.92857 1.68831,0 1.78571,-0.21428 1.78571,-3.92857 z m 199.28571,0 c 0,-3.71428 -0.0974,-3.92857 -1.78571,-3.92857 -1.68831,0 -1.78571,0.21429 -1.78571,3.92857 0,3.71429 0.0974,3.92857 1.78571,3.92857 1.68831,0 1.78571,-0.21428 1.78571,-3.92857 z M 285.5215,218.09003 c 0,-3.33333 -0.11905,-3.57143 -1.78571,-3.57143 -1.66667,0 -1.78572,0.2381 -1.78572,3.57143 0,3.33334 0.11905,3.57143 1.78572,3.57143 1.66666,0 1.78571,-0.23809 1.78571,-3.57143 z m 199.28571,0 c 0,-3.33333 -0.11905,-3.57143 -1.78571,-3.57143 -1.66666,0 -1.78571,0.2381 -1.78571,3.57143 0,3.33334 0.11905,3.57143 1.78571,3.57143 1.66666,0 1.78571,-0.23809 1.78571,-3.57143 z M 285.5215,202.0186 c 0,-3.71428 -0.0974,-3.92857 -1.78571,-3.92857 -1.68832,0 -1.78572,0.21429 -1.78572,3.92857 0,3.71429 0.0974,3.92858 1.78572,3.92858 1.68831,0 1.78571,-0.21429 1.78571,-3.92858 z m 199.28571,0 c 0,-3.71428 -0.0974,-3.92857 -1.78571,-3.92857 -1.68831,0 -1.78571,0.21429 -1.78571,3.92857 0,3.71429 0.0974,3.92858 1.78571,3.92858 1.68831,0 1.78571,-0.21429 1.78571,-3.92858 z m 49.28572,-0.0497 c 0,-3.71704 -0.10553,-3.96327 -1.60714,-3.75 -1.40012,0.19884 -1.63496,0.71132 -1.82305,3.97825 -0.2073,3.60068 -0.1433,3.75 1.60715,3.75 1.73631,0 1.82304,-0.18926 1.82304,-3.97826 l 0,1e-5 z"
       id="path22528" />
    <path
       style="fill:none;stroke:#000000;stroke-width:4;stroke-linecap:butt;stroke-linejoin:miter;stroke-miterlimit:4;stroke-opacity:1;stroke-dasharray:8, 8;stroke-dashoffset:0;display:inline"
       d="m 483.10547,166.15475 0,506.18861"
       id="path5683-2" />
    <path
       style="fill:none;stroke:#000000;stroke-width:4;stroke-linecap:butt;stroke-linejoin:miter;stroke-miterlimit:4;stroke-opacity:1;stroke-dasharray:8, 8;stroke-dashoffset:0;display:inline"
       d="m 111.36933,166.15477 0,506.18861"
       id="path5683" />
    <path
       style="fill:none;stroke:#000000;stroke-width:4;stroke-linecap:butt;stroke-linejoin:miter;stroke-miterlimit:4;stroke-opacity:1;stroke-dasharray:8, 8;stroke-dashoffset:0;display:inline"
       d="m 198.24245,166.15475 0,506.18861"
       id="path5683-3" />
    <path
       style="fill:none;stroke:#000000;stroke-width:4;stroke-linecap:butt;stroke-linejoin:miter;stroke-miterlimit:4;stroke-opacity:1;stroke-dasharray:8, 8;stroke-dashoffset:0;display:inline"
       d="m 283.60034,166.15475 0,506.18861"
       id="path5683-24" />
    <path
       style="fill:none;stroke:#000000;stroke-width:4;stroke-linecap:butt;stroke-linejoin:miter;stroke-miterlimit:4;stroke-opacity:1;stroke-dasharray:8, 8;stroke-dashoffset:0;display:inline"
       d="m 533.63865,166.33332 0,506.18861"
       id="path5683-8" />
  </g>
</svg>
