<?xml version="1.0" encoding="UTF-8" standalone="no"?>
<!-- Created with Inkscape (http://www.inkscape.org/) -->

<svg
   xmlns:ns0="http://www.iki.fi/pav/software/textext/"
   xmlns:dc="http://purl.org/dc/elements/1.1/"
   xmlns:cc="http://creativecommons.org/ns#"
   xmlns:rdf="http://www.w3.org/1999/02/22-rdf-syntax-ns#"
   xmlns:svg="http://www.w3.org/2000/svg"
   xmlns="http://www.w3.org/2000/svg"
   xmlns:sodipodi="http://sodipodi.sourceforge.net/DTD/sodipodi-0.dtd"
   xmlns:inkscape="http://www.inkscape.org/namespaces/inkscape"
   width="744.09448819"
   height="1052.3622047"
   id="svg2"
   version="1.1"
   inkscape:version="0.47pre4 r22446"
   sodipodi:docname="New document 1">
  <sodipodi:namedview
     id="base"
     pagecolor="#ffffff"
     bordercolor="#666666"
     borderopacity="1.0"
     inkscape:pageopacity="0.0"
     inkscape:pageshadow="2"
     inkscape:zoom="0.7"
     inkscape:cx="797.03974"
     inkscape:cy="1045.3604"
     inkscape:document-units="px"
     inkscape:current-layer="layer1"
     showgrid="false"
     inkscape:window-width="1138"
     inkscape:window-height="914"
     inkscape:window-x="443"
     inkscape:window-y="33"
     inkscape:window-maximized="0">
    <inkscape:grid
       id="grid3594"
       type="xygrid" />
  </sodipodi:namedview>
  <defs
     id="defs4">
    <marker
       inkscape:stockid="Arrow2Lend"
       orient="auto"
       refY="0.0"
       refX="0.0"
       id="Arrow2Lend"
       style="overflow:visible;">
      <path
         id="path4301"
         style="font-size:12.0;fill-rule:evenodd;stroke-width:0.62500000;stroke-linejoin:round;"
         d="M 8.7185878,4.0337352 L -2.2072895,0.016013256 L 8.7185884,-4.0017078 C 6.9730900,-1.6296469 6.9831476,1.6157441 8.7185878,4.0337352 z "
         transform="scale(1.1) rotate(180) translate(1,0)" />
    </marker>
    <marker
       inkscape:stockid="Arrow2Mend"
       orient="auto"
       refY="0.0"
       refX="0.0"
       id="Arrow2Mend"
       style="overflow:visible;">
      <path
         id="path4307"
         style="font-size:12.0;fill-rule:evenodd;stroke-width:0.62500000;stroke-linejoin:round;"
         d="M 8.7185878,4.0337352 L -2.2072895,0.016013256 L 8.7185884,-4.0017078 C 6.9730900,-1.6296469 6.9831476,1.6157441 8.7185878,4.0337352 z "
         transform="scale(0.6) rotate(180) translate(0,0)" />
    </marker>
    <marker
       inkscape:stockid="Arrow1Lend"
       orient="auto"
       refY="0.0"
       refX="0.0"
       id="Arrow1Lend"
       style="overflow:visible;">
      <path
         id="path4283"
         d="M 0.0,0.0 L 5.0,-5.0 L -12.5,0.0 L 5.0,5.0 L 0.0,0.0 z "
         style="fill-rule:evenodd;stroke:#000000;stroke-width:1.0pt;marker-start:none;"
         transform="scale(0.8) rotate(180) translate(12.5,0)" />
    </marker>
    <inkscape:perspective
       id="perspective10"
       inkscape:persp3d-origin="372.04724 : 350.78739 : 1"
       inkscape:vp_z="744.09448 : 526.18109 : 1"
       inkscape:vp_y="0 : 1000 : 0"
       inkscape:vp_x="0 : 526.18109 : 1"
       sodipodi:type="inkscape:persp3d" />
    <inkscape:perspective
       sodipodi:type="inkscape:persp3d"
       inkscape:vp_x="0 : 0.5 : 1"
       inkscape:vp_y="0 : 1000 : 0"
       inkscape:vp_z="1 : 0.5 : 1"
       inkscape:persp3d-origin="0.5 : 0.33333333 : 1"
       id="perspective3614" />
    <inkscape:perspective
       sodipodi:type="inkscape:persp3d"
       inkscape:vp_x="0 : 0.5 : 1"
       inkscape:vp_y="0 : 1000 : 0"
       inkscape:vp_z="1 : 0.5 : 1"
       inkscape:persp3d-origin="0.5 : 0.33333333 : 1"
       id="perspective3636" />
    <inkscape:perspective
       sodipodi:type="inkscape:persp3d"
       inkscape:vp_x="0 : 0.5 : 1"
       inkscape:vp_y="0 : 1000 : 0"
       inkscape:vp_z="1 : 0.5 : 1"
       inkscape:persp3d-origin="0.5 : 0.33333333 : 1"
       id="perspective3667" />
    <inkscape:perspective
       sodipodi:type="inkscape:persp3d"
       inkscape:vp_x="0 : 0.5 : 1"
       inkscape:vp_y="0 : 1000 : 0"
       inkscape:vp_z="1 : 0.5 : 1"
       inkscape:persp3d-origin="0.5 : 0.33333333 : 1"
       id="perspective3753" />
    <inkscape:perspective
       sodipodi:type="inkscape:persp3d"
       inkscape:vp_x="0 : 0.5 : 1"
       inkscape:vp_y="0 : 1000 : 0"
       inkscape:vp_z="1 : 0.5 : 1"
       inkscape:persp3d-origin="0.5 : 0.33333333 : 1"
       id="perspective3784" />
    <inkscape:perspective
       sodipodi:type="inkscape:persp3d"
       inkscape:vp_x="0 : 0.5 : 1"
       inkscape:vp_y="0 : 1000 : 0"
       inkscape:vp_z="1 : 0.5 : 1"
       inkscape:persp3d-origin="0.5 : 0.33333333 : 1"
       id="perspective3808" />
    <inkscape:perspective
       sodipodi:type="inkscape:persp3d"
       inkscape:vp_x="0 : 0.5 : 1"
       inkscape:vp_y="0 : 1000 : 0"
       inkscape:vp_z="1 : 0.5 : 1"
       inkscape:persp3d-origin="0.5 : 0.33333333 : 1"
       id="perspective3808-0" />
    <inkscape:perspective
       sodipodi:type="inkscape:persp3d"
       inkscape:vp_x="0 : 0.5 : 1"
       inkscape:vp_y="0 : 1000 : 0"
       inkscape:vp_z="1 : 0.5 : 1"
       inkscape:persp3d-origin="0.5 : 0.33333333 : 1"
       id="perspective3808-7" />
    <inkscape:perspective
       id="perspective3977"
       inkscape:persp3d-origin="0.5 : 0.33333333 : 1"
       inkscape:vp_z="1 : 0.5 : 1"
       inkscape:vp_y="0 : 1000 : 0"
       inkscape:vp_x="0 : 0.5 : 1"
       sodipodi:type="inkscape:persp3d" />
    <inkscape:perspective
       id="perspective3977-3"
       inkscape:persp3d-origin="0.5 : 0.33333333 : 1"
       inkscape:vp_z="1 : 0.5 : 1"
       inkscape:vp_y="0 : 1000 : 0"
       inkscape:vp_x="0 : 0.5 : 1"
       sodipodi:type="inkscape:persp3d" />
    <inkscape:perspective
       id="perspective5311"
       inkscape:persp3d-origin="0.5 : 0.33333333 : 1"
       inkscape:vp_z="1 : 0.5 : 1"
       inkscape:vp_y="0 : 1000 : 0"
       inkscape:vp_x="0 : 0.5 : 1"
       sodipodi:type="inkscape:persp3d" />
    <marker
       inkscape:stockid="Arrow2Lend"
       orient="auto"
       refY="0"
       refX="0"
       id="Arrow2Lend-9"
       style="overflow:visible">
      <path
         id="path4301-9"
         style="font-size:12px;fill-rule:evenodd;stroke-width:0.625;stroke-linejoin:round"
         d="M 8.7185878,4.0337352 -2.2072895,0.01601326 8.7185884,-4.0017078 c -1.7454984,2.3720609 -1.7354408,5.6174519 -6e-7,8.035443 z"
         transform="matrix(-1.1,0,0,-1.1,-1.1,0)" />
    </marker>
    <inkscape:perspective
       id="perspective5311-5"
       inkscape:persp3d-origin="0.5 : 0.33333333 : 1"
       inkscape:vp_z="1 : 0.5 : 1"
       inkscape:vp_y="0 : 1000 : 0"
       inkscape:vp_x="0 : 0.5 : 1"
       sodipodi:type="inkscape:persp3d" />
    <marker
       inkscape:stockid="Arrow2Lend"
       orient="auto"
       refY="0"
       refX="0"
       id="Arrow2Lend-5"
       style="overflow:visible">
      <path
         id="path4301-1"
         style="font-size:12px;fill-rule:evenodd;stroke-width:0.625;stroke-linejoin:round"
         d="M 8.7185878,4.0337352 -2.2072895,0.01601326 8.7185884,-4.0017078 c -1.7454984,2.3720609 -1.7354408,5.6174519 -6e-7,8.035443 z"
         transform="matrix(-1.1,0,0,-1.1,-1.1,0)" />
    </marker>
    <inkscape:perspective
       id="perspective5311-3"
       inkscape:persp3d-origin="0.5 : 0.33333333 : 1"
       inkscape:vp_z="1 : 0.5 : 1"
       inkscape:vp_y="0 : 1000 : 0"
       inkscape:vp_x="0 : 0.5 : 1"
       sodipodi:type="inkscape:persp3d" />
    <marker
       inkscape:stockid="Arrow2Lend"
       orient="auto"
       refY="0"
       refX="0"
       id="Arrow2Lend-98"
       style="overflow:visible">
      <path
         id="path4301-3"
         style="font-size:12px;fill-rule:evenodd;stroke-width:0.625;stroke-linejoin:round"
         d="M 8.7185878,4.0337352 -2.2072895,0.01601326 8.7185884,-4.0017078 c -1.7454984,2.3720609 -1.7354408,5.6174519 -6e-7,8.035443 z"
         transform="matrix(-1.1,0,0,-1.1,-1.1,0)" />
    </marker>
    <inkscape:perspective
       id="perspective5365"
       inkscape:persp3d-origin="0.5 : 0.33333333 : 1"
       inkscape:vp_z="1 : 0.5 : 1"
       inkscape:vp_y="0 : 1000 : 0"
       inkscape:vp_x="0 : 0.5 : 1"
       sodipodi:type="inkscape:persp3d" />
    <marker
       inkscape:stockid="Arrow2Lend"
       orient="auto"
       refY="0"
       refX="0"
       id="Arrow2Lend-7"
       style="overflow:visible">
      <path
         id="path4301-96"
         style="font-size:12px;fill-rule:evenodd;stroke-width:0.625;stroke-linejoin:round"
         d="M 8.7185878,4.0337352 -2.2072895,0.01601326 8.7185884,-4.0017078 c -1.7454984,2.3720609 -1.7354408,5.6174519 -6e-7,8.035443 z"
         transform="matrix(-1.1,0,0,-1.1,-1.1,0)" />
    </marker>
    <inkscape:perspective
       id="perspective5393"
       inkscape:persp3d-origin="0.5 : 0.33333333 : 1"
       inkscape:vp_z="1 : 0.5 : 1"
       inkscape:vp_y="0 : 1000 : 0"
       inkscape:vp_x="0 : 0.5 : 1"
       sodipodi:type="inkscape:persp3d" />
    <marker
       inkscape:stockid="Arrow2Lend"
       orient="auto"
       refY="0"
       refX="0"
       id="Arrow2Lend-6"
       style="overflow:visible">
      <path
         id="path4301-4"
         style="font-size:12px;fill-rule:evenodd;stroke-width:0.625;stroke-linejoin:round"
         d="M 8.7185878,4.0337352 -2.2072895,0.01601326 8.7185884,-4.0017078 c -1.7454984,2.3720609 -1.7354408,5.6174519 -6e-7,8.035443 z"
         transform="matrix(-1.1,0,0,-1.1,-1.1,0)" />
    </marker>
  </defs>
  <metadata
     id="metadata7">
    <rdf:RDF>
      <cc:Work
         rdf:about="">
        <dc:format>image/svg+xml</dc:format>
        <dc:type
           rdf:resource="http://purl.org/dc/dcmitype/StillImage" />
        <dc:title></dc:title>
      </cc:Work>
    </rdf:RDF>
  </metadata>
  <g
     id="layer1"
     inkscape:groupmode="layer"
     inkscape:label="Layer 1">
    <rect
       y="82.458351"
       x="205.2988"
       height="227.08168"
       width="484.14349"
       id="rect2816"
       style="color:#000000;fill:none;stroke:#000000;stroke-width:4.51244593;stroke-linecap:butt;stroke-linejoin:miter;stroke-miterlimit:4;stroke-opacity:1;stroke-dasharray:none;stroke-dashoffset:0;marker:none;visibility:visible;display:inline;overflow:visible;enable-background:accumulate" />
    <path
       sodipodi:nodetypes="cc"
       id="path3604"
       d="M 618.35773,114.75243 655.82121,82.815193"
       style="fill:none;stroke:#000000;stroke-width:1.15918291px;stroke-linecap:butt;stroke-linejoin:miter;stroke-opacity:1" />
    <path
       sodipodi:nodetypes="cc"
       id="path3600-8"
       d="M 411.82826,140.98021 568.40641,122.4245"
       style="fill:none;stroke:#000000;stroke-width:1.15918291px;stroke-linecap:butt;stroke-linejoin:miter;stroke-opacity:1" />
    <path
       sodipodi:nodetypes="ccc"
       id="path3596-3"
       d="m 205.2988,127.42027 121.03587,-24.97884 85.61014,38.28646"
       style="fill:none;stroke:#000000;stroke-width:1.15918291px;stroke-linecap:butt;stroke-linejoin:miter;stroke-opacity:1" />
    <path
       sodipodi:nodetypes="cc"
       id="path3604-7"
       d="m 618.59788,268.08874 50.19146,41.75034"
       style="fill:none;stroke:#000000;stroke-width:1.15918291px;stroke-linecap:butt;stroke-linejoin:miter;stroke-opacity:1" />
    <path
       sodipodi:nodetypes="cc"
       id="path3600-8-6"
       d="m 411.82826,244.18041 156.57815,18.55571"
       style="fill:none;stroke:#000000;stroke-width:1.15918291px;stroke-linecap:butt;stroke-linejoin:miter;stroke-opacity:1" />
    <path
       sodipodi:nodetypes="ccc"
       id="path3596-3-9"
       d="m 205.2988,257.74035 121.03587,24.97885 85.0133,-39.25247"
       style="fill:none;stroke:#000000;stroke-width:1.15918291px;stroke-linecap:butt;stroke-linejoin:miter;stroke-opacity:1" />
    <path
       id="path3715"
       d="m 618.71196,268.68143 0,-153.93117"
       style="fill:none;stroke:#000000;stroke-width:1.15918291;stroke-linecap:butt;stroke-linejoin:miter;stroke-miterlimit:4;stroke-opacity:1;stroke-dasharray:none" />
    <path
       id="path3717"
       d="m 568.44758,122.07431 0,140.79702"
       style="fill:none;stroke:#000000;stroke-width:1.15918291px;stroke-linecap:butt;stroke-linejoin:miter;stroke-opacity:1" />
    <path
       sodipodi:nodetypes="cc"
       id="path3719"
       d="m 411.54122,244.13624 0,-103.38993"
       style="fill:none;stroke:#000000;stroke-width:1.15918291px;stroke-linecap:butt;stroke-linejoin:miter;stroke-opacity:1" />
    <path
       id="path3721"
       d="m 326.63519,101.88835 0,179.65498"
       style="fill:none;stroke:#000000;stroke-width:1.15918291px;stroke-linecap:butt;stroke-linejoin:miter;stroke-opacity:1" />
    <path
       sodipodi:nodetypes="cc"
       id="path3602-4"
       d="m 567.9697,146.45887 49.90772,-4.40813"
       style="fill:none;stroke:#000000;stroke-width:1.15918291px;stroke-linecap:butt;stroke-linejoin:miter;stroke-opacity:1" />
    <path
       sodipodi:nodetypes="cc"
       id="path3602-5-0"
       d="m 568.74449,238.77167 49.13293,4.33822"
       style="fill:none;stroke:#000000;stroke-width:1.15918291px;stroke-linecap:butt;stroke-linejoin:miter;stroke-opacity:1" />
    <g
       ns0:preamble="/homes/50/alexf/work/papers/eccv10/preamble.tex"
       ns0:text="concave"
       word-spacing="normal"
       letter-spacing="normal"
       font-size-adjust="none"
       font-stretch="normal"
       font-weight="normal"
       font-variant="normal"
       font-style="normal"
       fill-rule="even-odd"
       stroke-miterlimit="10.433"
       xml:space="preserve"
       transform="matrix(2.0467358,0,0,-2.0467358,-165.52558,1306.9495)"
       id="content"
       style="font-style:normal;font-variant:normal;font-weight:normal;font-stretch:normal;letter-spacing:normal;word-spacing:normal;text-anchor:start;fill:none;stroke:#000000;stroke-linecap:butt;stroke-linejoin:miter;stroke-miterlimit:10.43299961;stroke-opacity:1;stroke-dasharray:none;stroke-dashoffset:0">
<path
   id="path3878"
   d="m 227.01,481.08 -0.02,0 -0.02,-0.01 -0.02,0 -0.01,0 -0.02,0 -0.02,-0.01 -0.01,0 -0.02,0 -0.01,-0.01 -0.02,0 -0.01,-0.01 -0.02,0 -0.01,-0.01 -0.01,-0.01 -0.03,-0.01 -0.02,-0.01 -0.02,-0.02 -0.02,-0.01 -0.02,-0.02 -0.02,-0.01 -0.01,-0.02 -0.02,-0.02 -0.01,-0.01 -0.01,-0.02 -0.01,-0.02 -0.01,-0.02 -0.01,-0.02 -0.01,-0.01 0,-0.02 -0.01,-0.02 0,-0.02 -0.01,-0.02 0,-0.01 0,-0.02 -0.01,-0.01 0,-0.02 0,-0.01 0,-0.02 0,-0.01 c 0,-0.26 0.18,-0.46 0.46,-0.46 0.26,0 0.46,0.17 0.46,0.47 0,0.68 -0.76,1.07 -1.53,1.07 -1.24,0 -2.16,-1.08 -2.16,-2.32 0,-1.27 0.99,-2.26 2.14,-2.26 1.34,0 1.66,1.2 1.66,1.3 0,0.1 -0.1,0.1 -0.13,0.1 -0.09,0 -0.11,-0.04 -0.13,-0.1 -0.29,-0.93 -0.94,-1.05 -1.31,-1.05 -0.52,0 -1.4,0.43 -1.4,2.03 0,1.63 0.81,2.05 1.34,2.05 0.09,0 0.72,-0.01 1.07,-0.37 z"
   style="fill:#000000;stroke-width:0" />
<path
   id="path3880"
   d="m 232.55,479.36 0,0.12 -0.01,0.12 -0.02,0.12 -0.02,0.11 -0.02,0.11 -0.03,0.11 -0.03,0.11 -0.04,0.11 -0.05,0.1 -0.05,0.1 -0.05,0.1 -0.06,0.09 -0.06,0.09 -0.07,0.09 -0.07,0.09 -0.07,0.08 -0.08,0.08 -0.08,0.07 -0.08,0.07 -0.09,0.06 -0.08,0.07 -0.1,0.05 -0.09,0.05 -0.1,0.05 -0.1,0.04 -0.1,0.04 -0.11,0.03 -0.1,0.03 -0.11,0.02 -0.11,0.01 -0.11,0.01 -0.11,0.01 -0.01,-0.22 c 0.44,0 0.87,-0.22 1.12,-0.65 0.26,-0.43 0.26,-1.01 0.26,-1.39 0,-0.35 0,-0.89 -0.22,-1.33 -0.21,-0.45 -0.65,-0.74 -1.15,-0.74 h 0 c -0.43,0 -0.87,0.21 -1.14,0.67 -0.25,0.44 -0.25,1.05 -0.25,1.4 0,0.39 0,0.93 0.24,1.37 0.27,0.46 0.74,0.67 1.14,0.67 l 0.01,0.22 c -1.25,0 -2.21,-1.09 -2.21,-2.34 0,-1.28 1.03,-2.24 2.2,-2.24 1.2,0 2.21,0.98 2.21,2.24 z"
   style="fill:#000000;stroke-width:0" />
<path
   id="path3882"
   d="m 233.93,480.66 v -2.67 c 0,-0.45 -0.11,-0.45 -0.77,-0.45 v -0.31 c 0.35,0.01 0.85,0.03 1.12,0.03 0.26,0 0.78,-0.02 1.12,-0.03 v 0.31 c -0.67,0 -0.78,0 -0.78,0.45 v 1.83 c 0,1.04 0.71,1.6 1.35,1.6 0.62,0 0.73,-0.54 0.73,-1.11 v -2.32 c 0,-0.45 -0.11,-0.45 -0.77,-0.45 v -0.31 c 0.34,0.01 0.85,0.03 1.12,0.03 0.26,0 0.78,-0.02 1.12,-0.03 v 0.31 c -0.52,0 -0.77,0 -0.78,0.3 v 1.9 c 0,0.86 0,1.17 -0.31,1.53 -0.14,0.17 -0.47,0.37 -1.04,0.37 -0.73,0 -1.2,-0.43 -1.48,-1.05 v 1.05 l -1.4,-0.11 v -0.31 c 0.69,0 0.77,-0.07 0.77,-0.56 z"
   style="fill:#000000;stroke-width:0" />
<path
   id="path3884"
   d="m 241.95,481.08 -0.02,0 -0.02,-0.01 -0.02,0 -0.01,0 -0.02,0 -0.02,-0.01 -0.01,0 -0.02,0 -0.01,-0.01 -0.02,0 -0.01,-0.01 -0.02,0 -0.01,-0.01 -0.01,-0.01 -0.03,-0.01 -0.02,-0.01 -0.02,-0.02 -0.02,-0.01 -0.02,-0.02 -0.02,-0.01 -0.01,-0.02 -0.02,-0.02 -0.01,-0.01 -0.01,-0.02 -0.01,-0.02 -0.01,-0.02 -0.01,-0.02 -0.01,-0.01 0,-0.02 -0.01,-0.02 0,-0.02 -0.01,-0.02 0,-0.01 0,-0.02 -0.01,-0.01 0,-0.02 0,-0.01 0,-0.02 0,-0.01 c 0,-0.26 0.18,-0.46 0.46,-0.46 0.26,0 0.46,0.17 0.46,0.47 0,0.68 -0.76,1.07 -1.53,1.07 -1.24,0 -2.16,-1.08 -2.16,-2.32 0,-1.27 0.99,-2.26 2.14,-2.26 1.34,0 1.66,1.2 1.66,1.3 0,0.1 -0.1,0.1 -0.13,0.1 -0.09,0 -0.11,-0.04 -0.13,-0.1 -0.29,-0.93 -0.94,-1.05 -1.31,-1.05 -0.53,0 -1.4,0.43 -1.4,2.03 0,1.63 0.81,2.05 1.34,2.05 0.09,0 0.72,-0.01 1.07,-0.37 z"
   style="fill:#000000;stroke-width:0" />
<path
   id="path3886"
   d="m 246.12,477.99 0.01,-0.04 0,-0.03 0.01,-0.04 0.01,-0.04 0.01,-0.04 0.01,-0.03 0.01,-0.04 0.01,-0.04 0.02,-0.03 0.02,-0.04 0.01,-0.03 0.02,-0.03 0.02,-0.04 0.02,-0.03 0.03,-0.03 0.02,-0.03 0.03,-0.03 0.02,-0.02 0.03,-0.03 0.03,-0.02 0.03,-0.03 0.03,-0.02 0.03,-0.02 0.04,-0.02 0.03,-0.01 0.04,-0.02 0.03,-0.01 0.04,-0.01 0.04,-0.01 0.04,0 0.05,-0.01 0.04,0 c 0.21,0 0.82,0.14 0.82,0.95 v 0.56 h -0.25 v -0.56 c 0,-0.58 -0.25,-0.64 -0.36,-0.64 -0.33,0 -0.37,0.45 -0.37,0.5 v 1.99 c 0,0.42 0,0.81 -0.36,1.18 -0.39,0.39 -0.89,0.55 -1.36,0.55 -0.82,0 -1.51,-0.47 -1.51,-1.13 0,-0.3 0.2,-0.47 0.46,-0.47 0.28,0 0.46,0.2 0.46,0.46 0,0.12 -0.05,0.45 -0.51,0.46 0.27,0.35 0.76,0.46 1.08,0.46 0.49,0 1.05,-0.39 1.05,-1.28 v -0.37 -0.21 -0.99 c 0,-0.95 -0.71,-1.29 -1.16,-1.29 -0.49,0 -0.9,0.35 -0.9,0.85 0,0.55 0.42,1.37 2.06,1.43 h 0 v 0.21 c -0.51,-0.03 -1.2,-0.06 -1.83,-0.36 -0.75,-0.33 -1,-0.85 -1,-1.29 0,-0.81 0.97,-1.06 1.6,-1.06 0.66,0 1.11,0.4 1.3,0.87 z"
   style="fill:#000000;stroke-width:0" />
<path
   id="path3888"
   d="m 251.65,480.55 0.01,0.02 0.01,0.03 0.01,0.02 0.01,0.02 0.01,0.03 0.01,0.03 0.02,0.02 0.01,0.03 0.02,0.03 0.01,0.02 0.02,0.03 0.02,0.03 0.02,0.03 0.02,0.02 0.02,0.03 0.03,0.03 0.02,0.02 0.03,0.03 0.03,0.02 0.03,0.02 0.04,0.02 0.03,0.02 0.04,0.02 0.04,0.02 0.04,0.02 0.05,0.01 0.04,0.01 0.05,0.02 0.06,0 0.02,0.01 0.03,0 0.03,0 0.03,0.01 0.03,0 0.03,0 v 0.31 c -0.23,-0.02 -0.52,-0.03 -0.75,-0.03 -0.24,0 -0.7,0.02 -0.86,0.03 v -0.31 c 0.36,-0.01 0.47,-0.24 0.47,-0.43 0,-0.09 -0.02,-0.13 -0.06,-0.24 l -1.01,-2.54 -1.12,2.78 c -0.06,0.13 -0.06,0.15 -0.06,0.17 0,0.26 0.39,0.26 0.57,0.26 v 0.31 c -0.3,-0.01 -0.86,-0.03 -1.09,-0.03 -0.27,0 -0.66,0.01 -0.96,0.03 v -0.31 c 0.62,0 0.66,-0.06 0.79,-0.37 l 1.44,-3.54 c 0.06,-0.14 0.08,-0.19 0.21,-0.19 0.13,0 0.17,0.09 0.21,0.19 z"
   style="fill:#000000;stroke-width:0" />
<path
   id="path3890"
   d="m 256.37,479.53 0.01,0 0.01,0 0.01,0 0.01,0 0.01,0 0.01,0 0.01,0 0.01,0 0,0 0.01,0 0.01,0.01 0.01,0 0.01,0 0.01,0 0.02,0 0.01,0 0.01,0 0.01,0.01 0.01,0 0.01,0 0,0.01 0.01,0 0.01,0.01 0,0 0.01,0.01 0,0.01 0,0 0.01,0.01 0,0.01 0,0 0,0.01 0,0 0.01,0.01 0,0 0,0.01 0,0.01 0,0 0,0.01 0,0.01 0,0 0,0.01 0,0.01 0,0.01 0,0.01 0,0 0,0.01 0,0.01 0,0.01 c 0,0.99 -0.54,1.96 -1.78,1.96 -1.16,0 -2.07,-1.03 -2.07,-2.28 0,-1.33 1.04,-2.3 2.19,-2.3 1.21,0 1.66,1.11 1.66,1.3 0,0.1 -0.08,0.12 -0.13,0.12 -0.09,0 -0.11,-0.06 -0.13,-0.14 -0.35,-1.03 -1.24,-1.03 -1.34,-1.03 -0.5,0 -0.9,0.3 -1.13,0.67 -0.3,0.48 -0.3,1.13 -0.3,1.49 l 0.01,0.21 c 0.06,1.49 0.9,1.74 1.24,1.74 1.03,0 1.12,-1.35 1.12,-1.74 h -2.36 l -0.01,-0.21 z"
   style="fill:#000000;stroke-width:0" />
</g>    <g
       id="g4081"
       transform="matrix(2.0467358,0,0,-2.0467358,97.23591,1306.9495)"
       xml:space="preserve"
       stroke-miterlimit="10.433"
       fill-rule="even-odd"
       font-style="normal"
       font-variant="normal"
       font-weight="normal"
       font-stretch="normal"
       font-size-adjust="none"
       letter-spacing="normal"
       word-spacing="normal"
       ns0:text="occluding"
       ns0:preamble="/homes/50/alexf/work/papers/eccv10/preamble.tex"
       style="font-style:normal;font-variant:normal;font-weight:normal;font-stretch:normal;letter-spacing:normal;word-spacing:normal;text-anchor:start;fill:none;stroke:#000000;stroke-linecap:butt;stroke-linejoin:miter;stroke-miterlimit:10.43299961;stroke-opacity:1;stroke-dasharray:none;stroke-dashoffset:0">
<path
   d="m 228.12,479.36 0,0.12 -0.01,0.12 -0.01,0.12 -0.02,0.11 -0.02,0.11 -0.03,0.11 -0.04,0.11 -0.04,0.11 -0.04,0.1 -0.05,0.1 -0.06,0.1 -0.05,0.09 -0.07,0.09 -0.06,0.09 -0.07,0.09 -0.07,0.08 -0.08,0.08 -0.08,0.07 -0.08,0.07 -0.09,0.06 -0.09,0.07 -0.09,0.05 -0.1,0.05 -0.09,0.05 -0.1,0.04 -0.11,0.04 -0.1,0.03 -0.11,0.03 -0.1,0.02 -0.11,0.01 -0.11,0.01 -0.12,0.01 -0.01,-0.22 c 0.44,0 0.87,-0.22 1.13,-0.65 0.26,-0.43 0.26,-1.01 0.26,-1.39 0,-0.35 0,-0.89 -0.22,-1.33 -0.22,-0.45 -0.66,-0.74 -1.16,-0.74 h 0 c -0.43,0 -0.86,0.21 -1.13,0.67 -0.25,0.44 -0.25,1.05 -0.25,1.4 0,0.39 0,0.93 0.24,1.37 0.27,0.46 0.73,0.67 1.13,0.67 l 0.01,0.22 c -1.24,0 -2.21,-1.09 -2.21,-2.34 0,-1.28 1.04,-2.24 2.2,-2.24 1.21,0 2.21,0.98 2.21,2.24 z"
   id="path4083"
   style="fill:#000000;stroke-width:0" />
<path
   d="m 232.27,481.08 -0.02,0 -0.02,-0.01 -0.02,0 -0.02,0 -0.01,0 -0.02,-0.01 -0.02,0 -0.01,0 -0.02,-0.01 -0.01,0 -0.01,-0.01 -0.02,0 -0.01,-0.01 -0.01,-0.01 -0.03,-0.01 -0.02,-0.01 -0.02,-0.02 -0.02,-0.01 -0.02,-0.02 -0.02,-0.01 -0.01,-0.02 -0.02,-0.02 -0.01,-0.01 -0.01,-0.02 -0.01,-0.02 -0.01,-0.02 -0.01,-0.02 -0.01,-0.01 -0.01,-0.02 0,-0.02 -0.01,-0.02 0,-0.02 0,-0.01 -0.01,-0.02 0,-0.01 0,-0.02 0,-0.01 0,-0.02 0,-0.01 c 0,-0.26 0.18,-0.46 0.46,-0.46 0.26,0 0.45,0.17 0.45,0.47 0,0.68 -0.75,1.07 -1.52,1.07 -1.24,0 -2.16,-1.08 -2.16,-2.32 0,-1.27 0.98,-2.26 2.14,-2.26 1.34,0 1.65,1.2 1.65,1.3 0,0.1 -0.09,0.1 -0.12,0.1 -0.1,0 -0.11,-0.04 -0.13,-0.1 -0.29,-0.93 -0.94,-1.05 -1.31,-1.05 -0.53,0 -1.4,0.43 -1.4,2.03 0,1.63 0.81,2.05 1.34,2.05 0.09,0 0.72,-0.01 1.07,-0.37 z"
   id="path4085"
   style="fill:#000000;stroke-width:0" />
<path
   d="m 236.7,481.08 -0.02,0 -0.02,-0.01 -0.02,0 -0.01,0 -0.02,0 -0.02,-0.01 -0.01,0 -0.02,0 -0.01,-0.01 -0.02,0 -0.01,-0.01 -0.02,0 -0.01,-0.01 -0.01,-0.01 -0.03,-0.01 -0.02,-0.01 -0.02,-0.02 -0.02,-0.01 -0.02,-0.02 -0.02,-0.01 -0.01,-0.02 -0.02,-0.02 -0.01,-0.01 -0.01,-0.02 -0.01,-0.02 -0.01,-0.02 -0.01,-0.02 -0.01,-0.01 0,-0.02 -0.01,-0.02 0,-0.02 -0.01,-0.02 0,-0.01 0,-0.02 -0.01,-0.01 0,-0.02 0,-0.01 0,-0.02 0,-0.01 c 0,-0.26 0.18,-0.46 0.46,-0.46 0.26,0 0.46,0.17 0.46,0.47 0,0.68 -0.76,1.07 -1.53,1.07 -1.24,0 -2.16,-1.08 -2.16,-2.32 0,-1.27 0.99,-2.26 2.14,-2.26 1.34,0 1.66,1.2 1.66,1.3 0,0.1 -0.1,0.1 -0.13,0.1 -0.09,0 -0.11,-0.04 -0.13,-0.1 -0.29,-0.93 -0.94,-1.05 -1.31,-1.05 -0.53,0 -1.4,0.43 -1.4,2.03 0,1.63 0.81,2.05 1.34,2.05 0.09,0 0.72,-0.01 1.07,-0.37 z"
   id="path4087"
   style="fill:#000000;stroke-width:0" />
<path
   d="m 239.31,484.15 -1.43,-0.11 v -0.31 c 0.69,0 0.77,-0.07 0.77,-0.56 v -5.18 c 0,-0.45 -0.11,-0.45 -0.77,-0.45 v -0.31 c 0.33,0.01 0.85,0.03 1.1,0.03 0.25,0 0.74,-0.02 1.11,-0.03 v 0.31 c -0.67,0 -0.78,0 -0.78,0.45 z"
   id="path4089"
   style="fill:#000000;stroke-width:0" />
<path
   d="m 244.21,478.02 v -0.9 l 1.44,0.11 v 0.31 c -0.7,0 -0.78,0.07 -0.78,0.56 v 3.54 l -1.47,-0.11 v -0.31 c 0.7,0 0.78,-0.07 0.78,-0.56 v -1.77 c 0,-0.87 -0.48,-1.55 -1.2,-1.55 -0.84,0 -0.88,0.47 -0.88,0.99 v 3.31 l -1.47,-0.11 v -0.31 c 0.78,0 0.78,-0.03 0.78,-0.92 v -1.49 c 0,-0.78 0,-1.69 1.52,-1.69 0.55,0 0.99,0.28 1.28,0.9 z"
   id="path4091"
   style="fill:#000000;stroke-width:0" />
<path
   d="m 249.64,477.78 v -0.66 l 1.46,0.11 v 0.31 c -0.7,0 -0.78,0.07 -0.78,0.56 v 6.05 l -1.43,-0.11 v -0.31 c 0.7,0 0.78,-0.07 0.78,-0.56 v -2.15 c -0.29,0.36 -0.72,0.62 -1.26,0.62 l 0.04,-0.22 c 0.35,0 0.77,-0.15 1.08,-0.6 0.11,-0.17 0.11,-0.19 0.11,-0.37 h 0 v -2.04 c 0,-0.18 0,-0.2 -0.11,-0.37 -0.3,-0.48 -0.75,-0.7 -1.18,-0.7 -0.45,0 -0.81,0.26 -1.05,0.64 -0.25,0.41 -0.28,0.98 -0.28,1.38 0,0.37 0.02,0.97 0.3,1.42 0.21,0.31 0.59,0.64 1.13,0.64 l -0.04,0.22 c -1.17,0 -2.22,-0.98 -2.22,-2.27 0,-1.26 0.97,-2.25 2.11,-2.25 0.64,0 1.09,0.34 1.34,0.66 z"
   id="path4093"
   style="fill:#000000;stroke-width:0" />
<path
   d="m 253.15,481.64 -1.4,-0.11 v -0.31 c 0.65,0 0.74,-0.06 0.74,-0.55 v -2.68 c 0,-0.45 -0.11,-0.45 -0.78,-0.45 v -0.31 c 0.32,0.01 0.86,0.03 1.1,0.03 0.35,0 0.7,-0.02 1.04,-0.03 v 0.31 c -0.66,0 -0.7,0.05 -0.7,0.44 z"
   id="path4095"
   style="fill:#000000;stroke-width:0" />
<path
   d="m 253.19,483.37 0,0.03 0,0.03 -0.01,0.03 0,0.02 -0.01,0.03 -0.01,0.03 -0.01,0.02 -0.01,0.03 -0.01,0.02 -0.01,0.02 -0.01,0.02 -0.02,0.03 -0.01,0.02 -0.02,0.02 -0.01,0.01 -0.02,0.02 -0.02,0.02 -0.02,0.02 -0.02,0.01 -0.02,0.01 -0.02,0.02 -0.02,0.01 -0.03,0.01 -0.02,0.01 -0.02,0.01 -0.03,0.01 -0.02,0 -0.03,0.01 -0.02,0 -0.03,0 -0.02,0.01 -0.03,0 c -0.31,0 -0.53,-0.27 -0.53,-0.53 0,-0.27 0.22,-0.53 0.53,-0.53 0.28,0 0.53,0.21 0.53,0.53 z"
   id="path4097"
   style="fill:#000000;stroke-width:0" />
<path
   d="m 255.25,480.66 v -2.67 c 0,-0.45 -0.11,-0.45 -0.78,-0.45 v -0.31 c 0.35,0.01 0.86,0.03 1.13,0.03 0.26,0 0.77,-0.02 1.11,-0.03 v 0.31 c -0.66,0 -0.77,0 -0.77,0.45 v 1.83 c 0,1.04 0.7,1.6 1.34,1.6 0.63,0 0.74,-0.54 0.74,-1.11 v -2.32 c 0,-0.45 -0.11,-0.45 -0.78,-0.45 v -0.31 c 0.35,0.01 0.86,0.03 1.13,0.03 0.26,0 0.77,-0.02 1.11,-0.03 v 0.31 c -0.52,0 -0.77,0 -0.78,0.3 v 1.9 c 0,0.86 0,1.17 -0.3,1.53 -0.14,0.17 -0.47,0.37 -1.05,0.37 -0.73,0 -1.2,-0.43 -1.47,-1.05 v 1.05 l -1.41,-0.11 v -0.31 c 0.7,0 0.78,-0.07 0.78,-0.56 z"
   id="path4099"
   style="fill:#000000;stroke-width:0" />
<path
   d="m 260.91,479.03 0.04,-0.03 0.04,-0.02 0.03,-0.03 0.04,-0.02 0.04,-0.02 0.03,-0.02 0.04,-0.01 0.03,-0.02 0.04,-0.02 0.04,-0.01 0.03,-0.01 0.04,-0.01 0.03,-0.02 0.03,-0.01 0.04,0 0.03,-0.01 0.03,-0.01 0.03,-0.01 0.04,0 0.03,-0.01 0.03,0 0.02,-0.01 0.03,0 0.03,0 0.03,-0.01 0.02,0 0.03,0 0.02,0 0.02,0 0.02,0 0.02,0 0.02,0 c 0.93,0 1.61,0.68 1.61,1.45 0,0.37 -0.16,0.74 -0.4,0.97 0.35,0.34 0.71,0.39 0.89,0.39 0.02,0 0.07,0 0.1,-0.01 -0.11,-0.04 -0.16,-0.15 -0.16,-0.27 0,-0.17 0.13,-0.29 0.29,-0.29 0.1,0 0.29,0.07 0.29,0.3 0,0.17 -0.12,0.49 -0.51,0.49 -0.2,0 -0.64,-0.06 -1.06,-0.47 -0.41,0.33 -0.83,0.36 -1.05,0.36 v -0.23 c 0.87,0 0.87,-1 0.87,-1.23 0,-0.27 -0.01,-0.59 -0.16,-0.83 -0.08,-0.12 -0.31,-0.4 -0.71,-0.4 h 0 c -0.87,0 -0.87,0.99 -0.87,1.22 0,0.27 0.01,0.59 0.16,0.84 0.08,0.12 0.31,0.4 0.71,0.4 v 0.23 c -0.93,0 -1.61,-0.69 -1.61,-1.46 0,-0.44 0.21,-0.82 0.46,-1.03 -0.13,-0.14 -0.3,-0.47 -0.3,-0.82 0,-0.31 0.12,-0.69 0.43,-0.89 -0.59,-0.17 -0.91,-0.6 -0.91,-0.99 0,-0.72 0.98,-1.27 2.2,-1.27 l 0.01,0.23 c -1.01,0 -1.7,0.51 -1.7,1.04 0,0.45 0.38,0.82 0.82,0.85 h 0.59 c 0.86,0 1.97,0 1.97,-0.85 0,-0.54 -0.71,-1.04 -1.68,-1.04 h 0 l -0.01,-0.23 c 1.17,0 2.21,0.51 2.21,1.28 0,0.35 -0.14,0.86 -0.65,1.14 -0.53,0.28 -1.1,0.28 -1.71,0.28 -0.25,0 -0.68,0 -0.75,0.01 -0.32,0.04 -0.53,0.35 -0.53,0.67 0,0.04 0,0.27 0.17,0.47 z"
   id="path4101"
   style="fill:#000000;stroke-width:0" />
</g>    <g
       style="font-style:normal;font-variant:normal;font-weight:normal;font-stretch:normal;letter-spacing:normal;word-spacing:normal;text-anchor:start;fill:none;stroke:#000000;stroke-linecap:butt;stroke-linejoin:miter;stroke-miterlimit:10.43299961;stroke-opacity:1;stroke-dasharray:none;stroke-dashoffset:0"
       ns0:preamble="/homes/50/alexf/work/papers/eccv10/preamble.tex"
       ns0:text="convex"
       word-spacing="normal"
       letter-spacing="normal"
       font-size-adjust="none"
       font-stretch="normal"
       font-weight="normal"
       font-variant="normal"
       font-style="normal"
       fill-rule="even-odd"
       stroke-miterlimit="10.433"
       xml:space="preserve"
       transform="matrix(2.0467358,0,0,-2.0467358,-77.581394,1306.9495)"
       id="g4207">
<path
   id="path4209"
   d="m 227.01,481.08 -0.02,0 -0.02,-0.01 -0.02,0 -0.01,0 -0.02,0 -0.02,-0.01 -0.01,0 -0.02,0 -0.01,-0.01 -0.02,0 -0.01,-0.01 -0.02,0 -0.01,-0.01 -0.01,-0.01 -0.03,-0.01 -0.02,-0.01 -0.02,-0.02 -0.02,-0.01 -0.02,-0.02 -0.02,-0.01 -0.01,-0.02 -0.02,-0.02 -0.01,-0.01 -0.01,-0.02 -0.01,-0.02 -0.01,-0.02 -0.01,-0.02 -0.01,-0.01 0,-0.02 -0.01,-0.02 0,-0.02 -0.01,-0.02 0,-0.01 0,-0.02 -0.01,-0.01 0,-0.02 0,-0.01 0,-0.02 0,-0.01 c 0,-0.26 0.18,-0.46 0.46,-0.46 0.26,0 0.46,0.17 0.46,0.47 0,0.68 -0.76,1.07 -1.53,1.07 -1.24,0 -2.16,-1.08 -2.16,-2.32 0,-1.27 0.99,-2.26 2.14,-2.26 1.34,0 1.66,1.2 1.66,1.3 0,0.1 -0.1,0.1 -0.13,0.1 -0.09,0 -0.11,-0.04 -0.13,-0.1 -0.29,-0.93 -0.94,-1.05 -1.31,-1.05 -0.52,0 -1.4,0.43 -1.4,2.03 0,1.63 0.81,2.05 1.34,2.05 0.09,0 0.72,-0.01 1.07,-0.37 z"
   style="fill:#000000;stroke-width:0" />
<path
   id="path4211"
   d="m 232.55,479.36 0,0.12 -0.01,0.12 -0.02,0.12 -0.02,0.11 -0.02,0.11 -0.03,0.11 -0.03,0.11 -0.04,0.11 -0.05,0.1 -0.05,0.1 -0.05,0.1 -0.06,0.09 -0.06,0.09 -0.07,0.09 -0.07,0.09 -0.07,0.08 -0.08,0.08 -0.08,0.07 -0.08,0.07 -0.09,0.06 -0.08,0.07 -0.1,0.05 -0.09,0.05 -0.1,0.05 -0.1,0.04 -0.1,0.04 -0.11,0.03 -0.1,0.03 -0.11,0.02 -0.11,0.01 -0.11,0.01 -0.11,0.01 -0.01,-0.22 c 0.44,0 0.87,-0.22 1.12,-0.65 0.26,-0.43 0.26,-1.01 0.26,-1.39 0,-0.35 0,-0.89 -0.22,-1.33 -0.21,-0.45 -0.65,-0.74 -1.15,-0.74 h 0 c -0.43,0 -0.87,0.21 -1.14,0.67 -0.25,0.44 -0.25,1.05 -0.25,1.4 0,0.39 0,0.93 0.24,1.37 0.27,0.46 0.74,0.67 1.14,0.67 l 0.01,0.22 c -1.25,0 -2.21,-1.09 -2.21,-2.34 0,-1.28 1.03,-2.24 2.2,-2.24 1.2,0 2.21,0.98 2.21,2.24 z"
   style="fill:#000000;stroke-width:0" />
<path
   id="path4213"
   d="m 233.93,480.66 v -2.67 c 0,-0.45 -0.11,-0.45 -0.77,-0.45 v -0.31 c 0.35,0.01 0.85,0.03 1.12,0.03 0.26,0 0.78,-0.02 1.12,-0.03 v 0.31 c -0.67,0 -0.78,0 -0.78,0.45 v 1.83 c 0,1.04 0.71,1.6 1.35,1.6 0.62,0 0.73,-0.54 0.73,-1.11 v -2.32 c 0,-0.45 -0.11,-0.45 -0.77,-0.45 v -0.31 c 0.34,0.01 0.85,0.03 1.12,0.03 0.26,0 0.78,-0.02 1.12,-0.03 v 0.31 c -0.52,0 -0.77,0 -0.78,0.3 v 1.9 c 0,0.86 0,1.17 -0.31,1.53 -0.14,0.17 -0.47,0.37 -1.04,0.37 -0.73,0 -1.2,-0.43 -1.48,-1.05 v 1.05 l -1.4,-0.11 v -0.31 c 0.69,0 0.77,-0.07 0.77,-0.56 z"
   style="fill:#000000;stroke-width:0" />
<path
   id="path4215"
   d="m 242.24,480.55 0.01,0.02 0.01,0.03 0.01,0.02 0.01,0.02 0.01,0.03 0.01,0.03 0.01,0.02 0.02,0.03 0.01,0.03 0.02,0.02 0.02,0.03 0.02,0.03 0.02,0.03 0.02,0.02 0.02,0.03 0.02,0.03 0.03,0.02 0.03,0.03 0.03,0.02 0.03,0.02 0.03,0.02 0.04,0.02 0.04,0.02 0.04,0.02 0.04,0.02 0.04,0.01 0.05,0.01 0.05,0.02 0.05,0 0.03,0.01 0.03,0 0.03,0 0.03,0.01 0.03,0 0.03,0 v 0.31 c -0.23,-0.02 -0.52,-0.03 -0.75,-0.03 -0.24,0 -0.7,0.02 -0.87,0.03 v -0.31 c 0.37,-0.01 0.48,-0.24 0.48,-0.43 0,-0.09 -0.02,-0.13 -0.06,-0.24 l -1.02,-2.54 -1.11,2.78 c -0.06,0.13 -0.06,0.15 -0.06,0.17 0,0.26 0.39,0.26 0.57,0.26 v 0.31 c -0.3,-0.01 -0.86,-0.03 -1.09,-0.03 -0.27,0 -0.67,0.01 -0.97,0.03 v -0.31 c 0.63,0 0.67,-0.06 0.8,-0.37 l 1.44,-3.54 c 0.06,-0.14 0.08,-0.19 0.21,-0.19 0.12,0 0.17,0.09 0.2,0.19 z"
   style="fill:#000000;stroke-width:0" />
<path
   id="path4217"
   d="m 246.96,479.53 0.01,0 0.01,0 0.01,0 0.01,0 0.01,0 0.01,0 0.01,0 0,0 0.01,0 0.01,0 0.01,0.01 0,0 0.02,0 0.01,0 0.01,0 0.02,0 0.01,0 0.01,0.01 0,0 0.01,0 0.01,0.01 0.01,0 0,0.01 0.01,0 0,0.01 0.01,0.01 0,0 0.01,0.01 0,0.01 0,0 0,0.01 0,0 0,0.01 0,0 0,0.01 0.01,0.01 0,0 0,0.01 0,0.01 0,0 0,0.01 0,0.01 0,0.01 0,0.01 0,0 0,0.01 0,0.01 0,0.01 c 0,0.99 -0.54,1.96 -1.78,1.96 -1.16,0 -2.08,-1.03 -2.08,-2.28 0,-1.33 1.05,-2.3 2.2,-2.3 1.21,0 1.66,1.11 1.66,1.3 0,0.1 -0.08,0.12 -0.13,0.12 -0.09,0 -0.11,-0.06 -0.13,-0.14 -0.35,-1.03 -1.24,-1.03 -1.35,-1.03 -0.49,0 -0.89,0.3 -1.12,0.67 -0.3,0.48 -0.3,1.13 -0.3,1.49 l 0.01,0.21 c 0.06,1.49 0.9,1.74 1.24,1.74 1.02,0 1.12,-1.35 1.12,-1.74 h -2.36 l -0.01,-0.21 z"
   style="fill:#000000;stroke-width:0" />
<path
   id="path4219"
   d="m 250.36,479.57 0.06,0.08 0.05,0.07 0.06,0.08 0.06,0.07 0.13,0.16 0.06,0.07 0.06,0.08 0.06,0.08 0.06,0.07 0.06,0.07 0.05,0.07 0.03,0.03 0.03,0.03 0.02,0.03 0.03,0.03 0.03,0.03 0.02,0.03 0.02,0.02 0.03,0.03 c 0.31,0.36 0.71,0.51 1.18,0.52 v 0.31 c -0.26,-0.02 -0.56,-0.03 -0.82,-0.03 -0.29,0 -0.82,0.02 -0.95,0.03 v -0.31 c 0.21,-0.02 0.29,-0.15 0.29,-0.31 0,-0.16 -0.1,-0.29 -0.15,-0.35 l -0.62,-0.78 -0.78,1.01 c -0.09,0.1 -0.09,0.12 -0.09,0.18 0,0.15 0.15,0.24 0.35,0.25 v 0.31 c -0.26,-0.01 -0.92,-0.03 -1.07,-0.03 -0.21,0 -0.68,0.01 -0.95,0.03 v -0.31 c 0.7,0 0.71,-0.01 1.18,-0.61 l 0.98,-1.28 c -0.47,-0.6 -0.47,-0.62 -0.93,-1.19 -0.48,-0.58 -1.07,-0.6 -1.28,-0.6 v -0.31 c 0.26,0.02 0.57,0.03 0.83,0.03 0.29,0 0.7,-0.02 0.94,-0.03 v 0.31 c -0.22,0.03 -0.29,0.16 -0.29,0.31 0,0.22 0.29,0.55 0.9,1.26 0.29,-0.38 0.37,-0.49 0.76,-0.99 0.08,-0.11 0.21,-0.27 0.21,-0.33 0,-0.09 -0.09,-0.24 -0.36,-0.25 v -0.31 c 0.3,0.01 0.85,0.03 1.07,0.03 0.27,0 0.66,-0.01 0.96,-0.03 v 0.31 c -0.54,0 -0.72,0.02 -0.95,0.31 z"
   style="fill:#000000;stroke-width:0" />
</g>    <path
       style="fill:none;stroke:#000000;stroke-width:1px;stroke-linecap:butt;stroke-linejoin:miter;stroke-opacity:1;marker-end:url(#Arrow2Lend)"
       d="m 326.42857,315.93361 0,-29.28571"
       id="path4275"
       sodipodi:nodetypes="cc" />
    <path
       style="fill:none;stroke:#000000;stroke-width:1px;stroke-linecap:butt;stroke-linejoin:miter;stroke-opacity:1;marker-end:url(#Arrow2Lend)"
       d="m 326.42857,315.93361 0,-29.28571"
       id="path4275-4"
       sodipodi:nodetypes="cc" />
    <path
       style="fill:none;stroke:#000000;stroke-width:1px;stroke-linecap:butt;stroke-linejoin:miter;stroke-opacity:1;marker-end:url(#Arrow2Lend)"
       d="m 409.28571,315.93361 0,-67.85714"
       id="path4275-6"
       sodipodi:nodetypes="cc" />
    <path
       style="fill:none;stroke:#000000;stroke-width:1px;stroke-linecap:butt;stroke-linejoin:miter;stroke-opacity:1;marker-end:url(#Arrow2Lend)"
       d="m 606.42857,313.79075 10.71429,-39.99999"
       id="path4275-60"
       sodipodi:nodetypes="cc" />
    <path
       style="fill:none;stroke:#000000;stroke-width:1px;stroke-linecap:butt;stroke-linejoin:miter;stroke-opacity:1;marker-end:url(#Arrow2Lend)"
       d="M 582.12884,313.79075 571.41455,273.79076"
       id="path4275-60-7"
       sodipodi:nodetypes="cc" />
  </g>
</svg>
