<?xml version="1.0" encoding="UTF-8" standalone="no"?>
<!-- Created with Inkscape (http://www.inkscape.org/) -->

<svg
   xmlns:ns0="http://www.iki.fi/pav/software/textext/"
   xmlns:dc="http://purl.org/dc/elements/1.1/"
   xmlns:cc="http://creativecommons.org/ns#"
   xmlns:rdf="http://www.w3.org/1999/02/22-rdf-syntax-ns#"
   xmlns:svg="http://www.w3.org/2000/svg"
   xmlns="http://www.w3.org/2000/svg"
   xmlns:sodipodi="http://sodipodi.sourceforge.net/DTD/sodipodi-0.dtd"
   xmlns:inkscape="http://www.inkscape.org/namespaces/inkscape"
   width="744.09448819"
   height="1052.3622047"
   id="svg7070"
   version="1.1"
   inkscape:version="0.47 r22583"
   sodipodi:docname="pixel-residuals.svg">
  <sodipodi:namedview
     id="base"
     pagecolor="#ffffff"
     bordercolor="#666666"
     borderopacity="1.0"
     inkscape:pageopacity="0.0"
     inkscape:pageshadow="2"
     inkscape:zoom="2.8"
     inkscape:cx="198.30463"
     inkscape:cy="882.21748"
     inkscape:document-units="px"
     inkscape:current-layer="layer1"
     showgrid="false"
     inkscape:window-width="1413"
     inkscape:window-height="941"
     inkscape:window-x="0"
     inkscape:window-y="25"
     inkscape:window-maximized="0"
     inkscape:snap-global="false">
    <inkscape:grid
       type="xygrid"
       id="grid7080" />
  </sodipodi:namedview>
  <defs
     id="defs7072">
    <marker
       inkscape:stockid="Arrow2Lend"
       orient="auto"
       refY="0.0"
       refX="0.0"
       id="Arrow2Lend"
       style="overflow:visible;">
      <path
         id="path4412"
         style="font-size:12.0;fill-rule:evenodd;stroke-width:0.62500000;stroke-linejoin:round;"
         d="M 8.7185878,4.0337352 L -2.2072895,0.016013256 L 8.7185884,-4.0017078 C 6.9730900,-1.6296469 6.9831476,1.6157441 8.7185878,4.0337352 z "
         transform="scale(1.1) rotate(180) translate(1,0)" />
    </marker>
    <marker
       style="overflow:visible;"
       id="Arrow2Mend"
       refX="0.0"
       refY="0.0"
       orient="auto"
       inkscape:stockid="Arrow2Mend">
      <path
         transform="scale(0.6) rotate(180) translate(0,0)"
         d="M 8.7185878,4.0337352 L -2.2072895,0.016013256 L 8.7185884,-4.0017078 C 6.9730900,-1.6296469 6.9831476,1.6157441 8.7185878,4.0337352 z "
         style="font-size:12.0;fill-rule:evenodd;stroke-width:0.62500000;stroke-linejoin:round;"
         id="path8420" />
    </marker>
    <inkscape:perspective
       sodipodi:type="inkscape:persp3d"
       inkscape:vp_x="0 : 526.18109 : 1"
       inkscape:vp_y="0 : 1000 : 0"
       inkscape:vp_z="744.09448 : 526.18109 : 1"
       inkscape:persp3d-origin="372.04724 : 350.78739 : 1"
       id="perspective7078" />
    <inkscape:perspective
       id="perspective7065"
       inkscape:persp3d-origin="0.5 : 0.33333333 : 1"
       inkscape:vp_z="1 : 0.5 : 1"
       inkscape:vp_y="0 : 1000 : 0"
       inkscape:vp_x="0 : 0.5 : 1"
       sodipodi:type="inkscape:persp3d" />
    <inkscape:perspective
       id="perspective7641"
       inkscape:persp3d-origin="0.5 : 0.33333333 : 1"
       inkscape:vp_z="1 : 0.5 : 1"
       inkscape:vp_y="0 : 1000 : 0"
       inkscape:vp_x="0 : 0.5 : 1"
       sodipodi:type="inkscape:persp3d" />
    <inkscape:perspective
       id="perspective7667"
       inkscape:persp3d-origin="0.5 : 0.33333333 : 1"
       inkscape:vp_z="1 : 0.5 : 1"
       inkscape:vp_y="0 : 1000 : 0"
       inkscape:vp_x="0 : 0.5 : 1"
       sodipodi:type="inkscape:persp3d" />
    <inkscape:perspective
       id="perspective7667-5"
       inkscape:persp3d-origin="0.5 : 0.33333333 : 1"
       inkscape:vp_z="1 : 0.5 : 1"
       inkscape:vp_y="0 : 1000 : 0"
       inkscape:vp_x="0 : 0.5 : 1"
       sodipodi:type="inkscape:persp3d" />
    <inkscape:perspective
       id="perspective7667-0"
       inkscape:persp3d-origin="0.5 : 0.33333333 : 1"
       inkscape:vp_z="1 : 0.5 : 1"
       inkscape:vp_y="0 : 1000 : 0"
       inkscape:vp_x="0 : 0.5 : 1"
       sodipodi:type="inkscape:persp3d" />
    <inkscape:perspective
       id="perspective7667-7"
       inkscape:persp3d-origin="0.5 : 0.33333333 : 1"
       inkscape:vp_z="1 : 0.5 : 1"
       inkscape:vp_y="0 : 1000 : 0"
       inkscape:vp_x="0 : 0.5 : 1"
       sodipodi:type="inkscape:persp3d" />
    <inkscape:perspective
       id="perspective7716"
       inkscape:persp3d-origin="0.5 : 0.33333333 : 1"
       inkscape:vp_z="1 : 0.5 : 1"
       inkscape:vp_y="0 : 1000 : 0"
       inkscape:vp_x="0 : 0.5 : 1"
       sodipodi:type="inkscape:persp3d" />
    <inkscape:perspective
       id="perspective7716-8"
       inkscape:persp3d-origin="0.5 : 0.33333333 : 1"
       inkscape:vp_z="1 : 0.5 : 1"
       inkscape:vp_y="0 : 1000 : 0"
       inkscape:vp_x="0 : 0.5 : 1"
       sodipodi:type="inkscape:persp3d" />
    <inkscape:perspective
       id="perspective7747"
       inkscape:persp3d-origin="0.5 : 0.33333333 : 1"
       inkscape:vp_z="1 : 0.5 : 1"
       inkscape:vp_y="0 : 1000 : 0"
       inkscape:vp_x="0 : 0.5 : 1"
       sodipodi:type="inkscape:persp3d" />
    <inkscape:perspective
       id="perspective7747-3"
       inkscape:persp3d-origin="0.5 : 0.33333333 : 1"
       inkscape:vp_z="1 : 0.5 : 1"
       inkscape:vp_y="0 : 1000 : 0"
       inkscape:vp_x="0 : 0.5 : 1"
       sodipodi:type="inkscape:persp3d" />
    <inkscape:perspective
       id="perspective7778"
       inkscape:persp3d-origin="0.5 : 0.33333333 : 1"
       inkscape:vp_z="1 : 0.5 : 1"
       inkscape:vp_y="0 : 1000 : 0"
       inkscape:vp_x="0 : 0.5 : 1"
       sodipodi:type="inkscape:persp3d" />
    <inkscape:perspective
       id="perspective7800"
       inkscape:persp3d-origin="0.5 : 0.33333333 : 1"
       inkscape:vp_z="1 : 0.5 : 1"
       inkscape:vp_y="0 : 1000 : 0"
       inkscape:vp_x="0 : 0.5 : 1"
       sodipodi:type="inkscape:persp3d" />
    <inkscape:perspective
       id="perspective7800-9"
       inkscape:persp3d-origin="0.5 : 0.33333333 : 1"
       inkscape:vp_z="1 : 0.5 : 1"
       inkscape:vp_y="0 : 1000 : 0"
       inkscape:vp_x="0 : 0.5 : 1"
       sodipodi:type="inkscape:persp3d" />
    <inkscape:perspective
       id="perspective7800-4"
       inkscape:persp3d-origin="0.5 : 0.33333333 : 1"
       inkscape:vp_z="1 : 0.5 : 1"
       inkscape:vp_y="0 : 1000 : 0"
       inkscape:vp_x="0 : 0.5 : 1"
       sodipodi:type="inkscape:persp3d" />
    <inkscape:perspective
       sodipodi:type="inkscape:persp3d"
       inkscape:vp_x="0 : 0.5 : 1"
       inkscape:vp_y="0 : 1000 : 0"
       inkscape:vp_z="1 : 0.5 : 1"
       inkscape:persp3d-origin="0.5 : 0.33333333 : 1"
       id="perspective8014" />
    <inkscape:perspective
       sodipodi:type="inkscape:persp3d"
       inkscape:vp_x="0 : 0.5 : 1"
       inkscape:vp_y="0 : 1000 : 0"
       inkscape:vp_z="1 : 0.5 : 1"
       inkscape:persp3d-origin="0.5 : 0.33333333 : 1"
       id="perspective8846" />
    <marker
       style="overflow:visible"
       id="Arrow2Mend-6"
       refX="0"
       refY="0"
       orient="auto"
       inkscape:stockid="Arrow2Mend">
      <path
         transform="scale(-0.6,-0.6)"
         d="M 8.7185878,4.0337352 -2.2072895,0.01601326 8.7185884,-4.0017078 c -1.7454984,2.3720609 -1.7354408,5.6174519 -6e-7,8.035443 z"
         style="font-size:12px;fill-rule:evenodd;stroke-width:0.625;stroke-linejoin:round"
         id="path8420-2" />
    </marker>
    <inkscape:perspective
       id="perspective25779"
       inkscape:persp3d-origin="0.5 : 0.33333333 : 1"
       inkscape:vp_z="1 : 0.5 : 1"
       inkscape:vp_y="0 : 1000 : 0"
       inkscape:vp_x="0 : 0.5 : 1"
       sodipodi:type="inkscape:persp3d" />
    <inkscape:perspective
       id="perspective25779-9"
       inkscape:persp3d-origin="0.5 : 0.33333333 : 1"
       inkscape:vp_z="1 : 0.5 : 1"
       inkscape:vp_y="0 : 1000 : 0"
       inkscape:vp_x="0 : 0.5 : 1"
       sodipodi:type="inkscape:persp3d" />
    <inkscape:perspective
       id="perspective25779-5"
       inkscape:persp3d-origin="0.5 : 0.33333333 : 1"
       inkscape:vp_z="1 : 0.5 : 1"
       inkscape:vp_y="0 : 1000 : 0"
       inkscape:vp_x="0 : 0.5 : 1"
       sodipodi:type="inkscape:persp3d" />
    <inkscape:perspective
       id="perspective25823"
       inkscape:persp3d-origin="0.5 : 0.33333333 : 1"
       inkscape:vp_z="1 : 0.5 : 1"
       inkscape:vp_y="0 : 1000 : 0"
       inkscape:vp_x="0 : 0.5 : 1"
       sodipodi:type="inkscape:persp3d" />
  </defs>
  <metadata
     id="metadata7075">
    <rdf:RDF>
      <cc:Work
         rdf:about="">
        <dc:format>image/svg+xml</dc:format>
        <dc:type
           rdf:resource="http://purl.org/dc/dcmitype/StillImage" />
        <dc:title></dc:title>
      </cc:Work>
    </rdf:RDF>
  </metadata>
  <g
     inkscape:label="Layer 1"
     inkscape:groupmode="layer"
     id="layer1"
     style="display:inline">
    <path
       style="fill:none;stroke:#808080;stroke-width:1.5;stroke-linecap:butt;stroke-linejoin:miter;stroke-miterlimit:4;stroke-opacity:1;stroke-dasharray:3, 3;stroke-dashoffset:0"
       d="m 341.55283,122.36218 -240,0"
       id="path7091"
       sodipodi:nodetypes="cc" />
    <path
       style="fill:none;stroke:#808080;stroke-width:1.5;stroke-linecap:butt;stroke-linejoin:miter;stroke-miterlimit:4;stroke-opacity:1;stroke-dasharray:3, 3;stroke-dashoffset:0"
       d="m 101.55283,162.36218 240,0"
       id="path7093"
       sodipodi:nodetypes="cc" />
    <path
       style="fill:none;stroke:#808080;stroke-width:1.5;stroke-linecap:butt;stroke-linejoin:miter;stroke-miterlimit:4;stroke-opacity:1;stroke-dasharray:3, 3;stroke-dashoffset:0"
       d="m 341.55283,202.36218 -240,0"
       id="path7095"
       sodipodi:nodetypes="cc" />
    <path
       style="fill:none;stroke:#808080;stroke-width:1.5;stroke-linecap:butt;stroke-linejoin:miter;stroke-miterlimit:4;stroke-opacity:1;stroke-dasharray:3, 3;stroke-dashoffset:0"
       d="m 301.55283,82.362183 0,159.999997"
       id="path7101" />
    <path
       style="fill:none;stroke:#808080;stroke-width:1.5;stroke-linecap:butt;stroke-linejoin:miter;stroke-miterlimit:4;stroke-opacity:1;stroke-dasharray:3, 3;stroke-dashoffset:0"
       d="m 261.55283,242.36218 0,-159.999997"
       id="path7103" />
    <path
       style="fill:none;stroke:#808080;stroke-width:1.5;stroke-linecap:butt;stroke-linejoin:miter;stroke-miterlimit:4;stroke-opacity:1;stroke-dasharray:3, 3;stroke-dashoffset:0"
       d="m 221.55283,82.362183 0,159.999997"
       id="path7105" />
    <path
       style="fill:none;stroke:#808080;stroke-width:1.5;stroke-linecap:butt;stroke-linejoin:miter;stroke-miterlimit:4;stroke-opacity:1;stroke-dasharray:3, 3;stroke-dashoffset:0"
       d="m 181.55283,242.36218 0,-159.999997"
       id="path7107" />
    <path
       style="fill:none;stroke:#808080;stroke-width:1.5;stroke-linecap:butt;stroke-linejoin:miter;stroke-miterlimit:4;stroke-opacity:1;stroke-dasharray:3, 3;stroke-dashoffset:0"
       d="m 141.55283,82.362183 0,159.999997"
       id="path7109" />
    <path
       style="fill:#666666;stroke:#008000;stroke-width:2.50000000000000000;stroke-linecap:round;stroke-linejoin:miter;stroke-miterlimit:4;stroke-opacity:1;stroke-dasharray:none;stroke-dashoffset:0"
       d="m 322.62612,100.08934 -84.73264,37.20475 -0.003,-0.13011"
       id="path7111"
       sodipodi:nodetypes="ccc" />
    <path
       transform="matrix(-1.5,0,0,1.5,406.55283,-111.18109)"
       sodipodi:type="arc"
       style="color:#000000;fill:#008000;fill-opacity:1;stroke:none;stroke-width:2.5;marker:none;visibility:visible;display:inline;overflow:visible;enable-background:accumulate"
       id="path7657-9"
       sodipodi:cx="110"
       sodipodi:cy="142.36218"
       sodipodi:rx="2"
       sodipodi:ry="2"
       d="m 112,142.36218 a 2,2 0 1 1 -4,0 2,2 0 1 1 4,0 z" />
    <path
       transform="matrix(-1.5,0,0,1.5,366.55283,-111.18109)"
       sodipodi:type="arc"
       style="color:#000000;fill:#008000;fill-opacity:0.2585366;stroke:none;stroke-width:2.5;marker:none;visibility:visible;display:inline;overflow:visible;enable-background:accumulate"
       id="path7657-9-3"
       sodipodi:cx="110"
       sodipodi:cy="142.36218"
       sodipodi:rx="2"
       sodipodi:ry="2"
       d="m 112,142.36218 a 2,2 0 1 1 -4,0 2,2 0 1 1 4,0 z" />
    <path
       transform="matrix(-1.5,0,0,1.5,326.55283,-111.18109)"
       sodipodi:type="arc"
       style="color:#000000;fill:#008000;fill-opacity:0.2585366;stroke:none;stroke-width:2.5;marker:none;visibility:visible;display:inline;overflow:visible;enable-background:accumulate"
       id="path7657-9-7"
       sodipodi:cx="110"
       sodipodi:cy="142.36218"
       sodipodi:rx="2"
       sodipodi:ry="2"
       d="m 112,142.36218 a 2,2 0 1 1 -4,0 2,2 0 1 1 4,0 z" />
    <path
       transform="matrix(-1.5,0,0,1.5,446.55283,-111.18109)"
       sodipodi:type="arc"
       style="color:#000000;fill:#008000;fill-opacity:1;stroke:none;stroke-width:2.5;marker:none;visibility:visible;display:inline;overflow:visible;enable-background:accumulate"
       id="path7657-9-32"
       sodipodi:cx="110"
       sodipodi:cy="142.36218"
       sodipodi:rx="2"
       sodipodi:ry="2"
       d="m 112,142.36218 a 2,2 0 1 1 -4,0 2,2 0 1 1 4,0 z" />
    <path
       transform="matrix(-1.5,0,0,1.5,486.55283,-111.18109)"
       sodipodi:type="arc"
       style="color:#000000;fill:#008000;fill-opacity:1;stroke:none;stroke-width:2.5;marker:none;visibility:visible;display:inline;overflow:visible;enable-background:accumulate"
       id="path7657-9-6"
       sodipodi:cx="110"
       sodipodi:cy="142.36218"
       sodipodi:rx="2"
       sodipodi:ry="2"
       d="m 112,142.36218 a 2,2 0 1 1 -4,0 2,2 0 1 1 4,0 z" />
    <path
       transform="matrix(-1.5,0,0,1.5,286.55283,-111.18109)"
       sodipodi:type="arc"
       style="color:#000000;fill:#008000;fill-opacity:0.2585366;stroke:none;stroke-width:2.5;marker:none;visibility:visible;display:inline;overflow:visible;enable-background:accumulate"
       id="path7657-9-7-6"
       sodipodi:cx="110"
       sodipodi:cy="142.36218"
       sodipodi:rx="2"
       sodipodi:ry="2"
       d="m 112,142.36218 a 2,2 0 1 1 -4,0 2,2 0 1 1 4,0 z" />
    <path
       transform="matrix(-1.5,0,0,1.5,366.55283,-71.181091)"
       sodipodi:type="arc"
       style="color:#000000;fill:#008000;fill-opacity:1;stroke:none;stroke-width:2.5;marker:none;visibility:visible;display:inline;overflow:visible;enable-background:accumulate"
       id="path7657-9-3-9"
       sodipodi:cx="110"
       sodipodi:cy="142.36218"
       sodipodi:rx="2"
       sodipodi:ry="2"
       d="m 112,142.36218 a 2,2 0 1 1 -4,0 2,2 0 1 1 4,0 z" />
    <path
       transform="matrix(-1.5,0,0,1.5,326.55283,-71.181091)"
       sodipodi:type="arc"
       style="color:#000000;fill:#008000;fill-opacity:1;stroke:none;stroke-width:2.5;marker:none;visibility:visible;display:inline;overflow:visible;enable-background:accumulate"
       id="path7657-9-7-5"
       sodipodi:cx="110"
       sodipodi:cy="142.36218"
       sodipodi:rx="2"
       sodipodi:ry="2"
       d="m 112,142.36218 a 2,2 0 1 1 -4,0 2,2 0 1 1 4,0 z" />
    <path
       sodipodi:type="arc"
       style="color:#000000;fill:#008000;fill-opacity:1;stroke:none;stroke-width:2.5;marker:none;visibility:visible;display:inline;overflow:visible;enable-background:accumulate"
       id="path7657-9-32-0"
       sodipodi:cx="110"
       sodipodi:cy="142.36218"
       sodipodi:rx="2"
       sodipodi:ry="2"
       d="m 112,142.36218 a 2,2 0 1 1 -4,0 2,2 0 1 1 4,0 z"
       transform="matrix(-1.5,0,0,1.5,446.55283,-71.181091)" />
    <path
       transform="matrix(-1.5,0,0,1.5,486.55283,-71.181091)"
       sodipodi:type="arc"
       style="color:#000000;fill:#008000;fill-opacity:0.2585366;stroke:none;stroke-width:2.5;marker:none;visibility:visible;display:inline;overflow:visible;enable-background:accumulate"
       id="path7657-9-6-8"
       sodipodi:cx="110"
       sodipodi:cy="142.36218"
       sodipodi:rx="2"
       sodipodi:ry="2"
       d="m 112,142.36218 a 2,2 0 1 1 -4,0 2,2 0 1 1 4,0 z" />
    <path
       transform="matrix(-1.5,0,0,1.5,286.55283,-71.181091)"
       sodipodi:type="arc"
       style="color:#000000;fill:#008000;fill-opacity:0.2585366;stroke:none;stroke-width:2.5;marker:none;visibility:visible;display:inline;overflow:visible;enable-background:accumulate"
       id="path7657-9-7-6-6"
       sodipodi:cx="110"
       sodipodi:cy="142.36218"
       sodipodi:rx="2"
       sodipodi:ry="2"
       d="m 112,142.36218 a 2,2 0 1 1 -4,0 2,2 0 1 1 4,0 z" />
    <path
       transform="matrix(-1.5,0,0,1.5,406.55283,-31.181091)"
       sodipodi:type="arc"
       style="color:#000000;fill:#008000;fill-opacity:0.2585366;stroke:none;stroke-width:2.5;marker:none;visibility:visible;display:inline;overflow:visible;enable-background:accumulate"
       id="path7657-9-0"
       sodipodi:cx="110"
       sodipodi:cy="142.36218"
       sodipodi:rx="2"
       sodipodi:ry="2"
       d="m 112,142.36218 a 2,2 0 1 1 -4,0 2,2 0 1 1 4,0 z" />
    <path
       transform="matrix(-1.5,0,0,1.5,366.55283,-31.181091)"
       sodipodi:type="arc"
       style="color:#000000;fill:#008000;fill-opacity:1;stroke:none;stroke-width:2.5;marker:none;visibility:visible;display:inline;overflow:visible;enable-background:accumulate"
       id="path7657-9-3-3"
       sodipodi:cx="110"
       sodipodi:cy="142.36218"
       sodipodi:rx="2"
       sodipodi:ry="2"
       d="m 112,142.36218 a 2,2 0 1 1 -4,0 2,2 0 1 1 4,0 z" />
    <path
       transform="matrix(-1.5,0,0,1.5,326.55283,-31.181091)"
       sodipodi:type="arc"
       style="color:#000000;fill:#008000;fill-opacity:1;stroke:none;stroke-width:2.5;marker:none;visibility:visible;display:inline;overflow:visible;enable-background:accumulate"
       id="path7657-9-7-3"
       sodipodi:cx="110"
       sodipodi:cy="142.36218"
       sodipodi:rx="2"
       sodipodi:ry="2"
       d="m 112,142.36218 a 2,2 0 1 1 -4,0 2,2 0 1 1 4,0 z" />
    <path
       transform="matrix(-1.5,0,0,1.5,446.55283,-31.181091)"
       sodipodi:type="arc"
       style="color:#000000;fill:#008000;fill-opacity:0.2585366;stroke:none;stroke-width:2.5;marker:none;visibility:visible;display:inline;overflow:visible;enable-background:accumulate"
       id="path7657-9-32-3"
       sodipodi:cx="110"
       sodipodi:cy="142.36218"
       sodipodi:rx="2"
       sodipodi:ry="2"
       d="m 112,142.36218 a 2,2 0 1 1 -4,0 2,2 0 1 1 4,0 z" />
    <path
       transform="matrix(-1.5,0,0,1.5,486.55283,-31.181091)"
       sodipodi:type="arc"
       style="color:#000000;fill:#008000;fill-opacity:0.2585366;stroke:none;stroke-width:2.5;marker:none;visibility:visible;display:inline;overflow:visible;enable-background:accumulate"
       id="path7657-9-6-6"
       sodipodi:cx="110"
       sodipodi:cy="142.36218"
       sodipodi:rx="2"
       sodipodi:ry="2"
       d="m 112,142.36218 a 2,2 0 1 1 -4,0 2,2 0 1 1 4,0 z" />
    <path
       transform="matrix(-1.5,0,0,1.5,286.55283,-31.181091)"
       sodipodi:type="arc"
       style="color:#000000;fill:#008000;fill-opacity:1;stroke:none;stroke-width:2.5;marker:none;visibility:visible;display:inline;overflow:visible;enable-background:accumulate"
       id="path7657-9-7-6-0"
       sodipodi:cx="110"
       sodipodi:cy="142.36218"
       sodipodi:rx="2"
       sodipodi:ry="2"
       d="m 112,142.36218 a 2,2 0 1 1 -4,0 2,2 0 1 1 4,0 z" />
    <path
       transform="matrix(-1.5,0,0,1.5,406.55283,8.8189087)"
       sodipodi:type="arc"
       style="color:#000000;fill:#008000;fill-opacity:0.2585366;stroke:none;stroke-width:2.5;marker:none;visibility:visible;display:inline;overflow:visible;enable-background:accumulate"
       id="path7657-9-35"
       sodipodi:cx="110"
       sodipodi:cy="142.36218"
       sodipodi:rx="2"
       sodipodi:ry="2"
       d="m 112,142.36218 a 2,2 0 1 1 -4,0 2,2 0 1 1 4,0 z" />
    <path
       transform="matrix(-1.5,0,0,1.5,366.55283,8.8189087)"
       sodipodi:type="arc"
       style="color:#000000;fill:#008000;fill-opacity:0.2585366;stroke:none;stroke-width:2.5;marker:none;visibility:visible;display:inline;overflow:visible;enable-background:accumulate"
       id="path7657-9-3-34"
       sodipodi:cx="110"
       sodipodi:cy="142.36218"
       sodipodi:rx="2"
       sodipodi:ry="2"
       d="m 112,142.36218 a 2,2 0 1 1 -4,0 2,2 0 1 1 4,0 z" />
    <path
       transform="matrix(-1.5,0,0,1.5,326.55283,8.8189087)"
       sodipodi:type="arc"
       style="color:#000000;fill:#008000;fill-opacity:0.2585366;stroke:none;stroke-width:2.5;marker:none;visibility:visible;display:inline;overflow:visible;enable-background:accumulate"
       id="path7657-9-7-0"
       sodipodi:cx="110"
       sodipodi:cy="142.36218"
       sodipodi:rx="2"
       sodipodi:ry="2"
       d="m 112,142.36218 a 2,2 0 1 1 -4,0 2,2 0 1 1 4,0 z" />
    <path
       transform="matrix(-1.5,0,0,1.5,446.55283,8.8189087)"
       sodipodi:type="arc"
       style="color:#000000;fill:#008000;fill-opacity:0.2585366;stroke:none;stroke-width:2.5;marker:none;visibility:visible;display:inline;overflow:visible;enable-background:accumulate"
       id="path7657-9-32-4"
       sodipodi:cx="110"
       sodipodi:cy="142.36218"
       sodipodi:rx="2"
       sodipodi:ry="2"
       d="m 112,142.36218 a 2,2 0 1 1 -4,0 2,2 0 1 1 4,0 z" />
    <path
       transform="matrix(-1.5,0,0,1.5,486.55283,8.8189087)"
       sodipodi:type="arc"
       style="color:#000000;fill:#008000;fill-opacity:0.2585366;stroke:none;stroke-width:2.5;marker:none;visibility:visible;display:inline;overflow:visible;enable-background:accumulate"
       id="path7657-9-6-4"
       sodipodi:cx="110"
       sodipodi:cy="142.36218"
       sodipodi:rx="2"
       sodipodi:ry="2"
       d="m 112,142.36218 a 2,2 0 1 1 -4,0 2,2 0 1 1 4,0 z" />
    <path
       transform="matrix(-1.5,0,0,1.5,286.55283,8.8189087)"
       sodipodi:type="arc"
       style="color:#000000;fill:#008000;fill-opacity:1;stroke:none;stroke-width:2.5;marker:none;visibility:visible;display:inline;overflow:visible;enable-background:accumulate"
       id="path7657-9-7-6-4"
       sodipodi:cx="110"
       sodipodi:cy="142.36218"
       sodipodi:rx="2"
       sodipodi:ry="2"
       d="m 112,142.36218 a 2,2 0 1 1 -4,0 2,2 0 1 1 4,0 z" />
    <path
       style="fill:none;stroke:#000000;stroke-width:1px;stroke-linecap:butt;stroke-linejoin:miter;stroke-opacity:1"
       d="m 281.55283,102.36218 6.78571,13.75"
       id="path7867" />
    <path
       style="fill:none;stroke:#000000;stroke-width:1px;stroke-linecap:butt;stroke-linejoin:miter;stroke-opacity:1"
       d="M 281.46354,142.45147 270.92783,123.43361"
       id="path7873" />
    <path
       style="fill:none;stroke:#000000;stroke-width:1px;stroke-linecap:butt;stroke-linejoin:miter;stroke-opacity:1"
       d="m 201.37426,142.36218 4.46428,8.03571"
       id="path7875" />
    <path
       style="fill:none;stroke:#000000;stroke-width:1px;stroke-linecap:butt;stroke-linejoin:miter;stroke-opacity:1"
       d="m 161.37426,142.36218 12.67857,21.42857"
       id="path7877" />
    <path
       style="fill:none;stroke:#000000;stroke-width:1px;stroke-linecap:butt;stroke-linejoin:miter;stroke-opacity:1"
       d="m 161.37426,182.54075 -5.89286,-11.25"
       id="path7879" />
    <g
       style="font-style:normal;font-variant:normal;font-weight:normal;font-stretch:normal;letter-spacing:normal;word-spacing:normal;text-anchor:start;fill:none;stroke:#000000;stroke-width:1;stroke-linecap:butt;stroke-linejoin:miter;stroke-miterlimit:10.43299961;stroke-opacity:1;stroke-dasharray:none;stroke-dashoffset:0"
       id="content"
       transform="matrix(1.8601824,0,0,-1.8601824,-100.79211,982.10332)"
       xml:space="preserve"
       stroke-miterlimit="10.433"
       fill-rule="even-odd"
       font-style="normal"
       font-variant="normal"
       font-weight="normal"
       font-stretch="normal"
       font-size-adjust="none"
       letter-spacing="normal"
       word-spacing="normal"
       ns0:text="$\\vect{x}$"
       ns0:preamble="/homes/50/alexf/work/papers/eccv10/preamble.tex">
<path
   style="fill:#000000;stroke-width:0"
   d="m 228.77,481.23 -0.03,-0.01 -0.03,-0.01 -0.03,-0.02 -0.03,-0.01 -0.03,-0.02 -0.03,-0.01 -0.03,-0.02 -0.02,-0.02 -0.03,-0.02 -0.02,-0.02 -0.02,-0.02 -0.03,-0.02 -0.02,-0.02 -0.02,-0.02 -0.01,-0.03 -0.02,-0.02 -0.02,-0.02 -0.01,-0.03 -0.02,-0.02 -0.01,-0.03 -0.01,-0.02 -0.01,-0.03 -0.01,-0.03 -0.01,-0.02 -0.01,-0.03 -0.01,-0.02 0,-0.03 -0.01,-0.02 0,-0.03 0,-0.02 -0.01,-0.03 0,-0.02 c 0,-0.22 0.17,-0.46 0.5,-0.46 0.35,0 0.72,0.29 0.72,0.78 0,0.53 -0.53,0.88 -1.14,0.88 -0.56,0 -0.93,-0.43 -1.06,-0.61 -0.25,0.42 -0.81,0.61 -1.38,0.61 -1.25,0 -1.93,-1.23 -1.93,-1.56 0,-0.14 0.15,-0.14 0.24,-0.14 0.12,0 0.19,0 0.23,0.13 0.29,0.91 1,1.21 1.41,1.21 0.38,0 0.56,-0.18 0.56,-0.5 0,-0.19 -0.14,-0.74 -0.23,-1.1 -0.09,-0.37 -0.27,-1.09 -0.34,-1.36 -0.15,-0.61 -0.51,-0.91 -0.84,-0.91 -0.05,0 -0.28,0 -0.48,0.15 0.36,0.1 0.54,0.44 0.54,0.69 0,0.22 -0.17,0.46 -0.5,0.46 -0.35,0 -0.72,-0.29 -0.72,-0.78 0,-0.53 0.53,-0.88 1.14,-0.88 0.56,0 0.93,0.43 1.06,0.61 0.25,-0.42 0.81,-0.61 1.38,-0.61 1.25,0 1.93,1.23 1.93,1.56 0,0.14 -0.15,0.14 -0.24,0.14 -0.12,0 -0.19,0 -0.23,-0.13 -0.29,-0.91 -1,-1.21 -1.41,-1.21 -0.38,0 -0.56,0.18 -0.56,0.5 0,0.21 0.13,0.74 0.22,1.1 0.07,0.26 0.3,1.2 0.35,1.36 0.15,0.6 0.5,0.91 0.84,0.91 0.05,0 0.28,0 0.48,-0.15 z"
   id="path7943" />
</g>    <g
       style="font-style:normal;font-variant:normal;font-weight:normal;font-stretch:normal;letter-spacing:normal;word-spacing:normal;text-anchor:start;fill:none;stroke:#000000;stroke-linecap:butt;stroke-linejoin:miter;stroke-miterlimit:10.43299961;stroke-opacity:1;stroke-dasharray:none;stroke-dashoffset:0"
       ns0:preamble="/homes/50/alexf/work/papers/eccv10/preamble.tex"
       ns0:text="$\\vect{v_a}$"
       word-spacing="normal"
       letter-spacing="normal"
       font-size-adjust="none"
       font-stretch="normal"
       font-weight="normal"
       font-variant="normal"
       font-style="normal"
       fill-rule="even-odd"
       stroke-miterlimit="10.433"
       xml:space="preserve"
       transform="matrix(1.8232525,0,0,-1.8232525,-359.16625,1100.023)"
       id="g8095"
       inkscape:transform-center-x="-5.2092914"
       inkscape:transform-center-y="2.6046545">
<path
   id="path8097"
   d="m 228.82,480.84 0,0.04 0,0.04 0,0.04 -0.01,0.04 0,0.04 0,0.03 -0.01,0.04 -0.01,0.03 0,0.03 -0.01,0.03 -0.01,0.03 -0.01,0.03 -0.01,0.03 -0.01,0.02 -0.01,0.03 -0.01,0.02 -0.01,0.03 -0.02,0.02 -0.01,0.02 -0.01,0.02 -0.02,0.02 -0.01,0.02 -0.01,0.02 -0.02,0.01 -0.01,0.02 -0.02,0.02 -0.03,0.02 -0.03,0.03 -0.03,0.02 -0.03,0.02 -0.04,0.02 -0.03,0.02 -0.03,0.01 -0.03,0.01 -0.02,0.01 -0.03,0.01 -0.02,0 -0.03,0.01 -0.02,0 -0.02,0 -0.01,0 -0.02,0.01 -0.01,0 0,0 0,0 0,0 0,0 c -0.4,0 -0.76,-0.42 -0.76,-0.76 0,-0.28 0.21,-0.4 0.3,-0.45 0.41,-0.25 0.49,-0.43 0.49,-0.63 0,-0.22 -0.57,-2.4 -1.74,-2.4 -0.72,0 -0.72,0.6 -0.72,0.78 0,0.58 0.28,1.3 0.6,2.1 0.08,0.2 0.11,0.29 0.11,0.45 0,0.58 -0.58,0.9 -1.13,0.9 -1.05,0 -1.55,-1.36 -1.55,-1.56 0,-0.14 0.15,-0.14 0.24,-0.14 0.12,0 0.19,0 0.23,0.13 0.32,1.08 0.85,1.21 1.03,1.21 0.07,0 0.16,0 0.16,-0.21 0,-0.23 -0.11,-0.52 -0.14,-0.6 -0.46,-1.16 -0.61,-1.6 -0.61,-2.08 0,-1.06 0.85,-1.34 1.72,-1.34 1.72,0 2.44,2.83 2.44,3.69 z"
   style="fill:#000000;stroke-width:0" />
<path
   id="path8099"
   d="m 232.43,478.61 -0.01,0.01 -0.01,0.01 -0.01,0.01 -0.01,0.01 -0.02,0.01 -0.01,0.01 -0.02,0.01 -0.02,0.01 -0.02,0.02 -0.02,0.01 -0.02,0.01 -0.02,0.01 -0.02,0.01 -0.02,0.02 -0.03,0.01 -0.02,0.01 -0.03,0.01 -0.03,0.01 -0.03,0.01 -0.02,0.01 -0.04,0.01 -0.03,0.01 -0.03,0 -0.03,0.01 -0.04,0.01 -0.03,0 -0.04,0.01 -0.04,0 -0.04,0.01 -0.04,0 -0.04,0 -0.04,0 v -0.32 c 0.51,0 0.65,-0.37 0.65,-0.42 0,-0.03 0,-0.07 -0.01,-0.1 l -0.38,-1.47 c -0.02,-0.12 -0.02,-0.13 -0.14,-0.23 -0.16,-0.16 -0.47,-0.34 -0.82,-0.34 -0.32,0 -0.55,0.16 -0.55,0.55 0,0.26 0.19,1.08 0.38,1.44 0.19,0.38 0.53,0.57 0.87,0.57 v 0.32 c -1.35,0 -2.12,-1.08 -2.12,-2.01 0,-0.85 0.67,-1.2 1.38,-1.2 0.56,0 0.93,0.25 1.07,0.37 0.15,-0.22 0.51,-0.37 0.89,-0.37 0.75,0 0.98,1.05 0.98,1.09 0,0.13 -0.12,0.13 -0.22,0.13 -0.17,0 -0.19,-0.01 -0.23,-0.16 -0.09,-0.31 -0.21,-0.73 -0.48,-0.73 -0.17,0 -0.19,0.17 -0.19,0.27 0,0.1 0.08,0.43 0.14,0.64 l 0.27,1.09 c 0.03,0.14 0.09,0.37 0.09,0.41 0,0.22 -0.16,0.35 -0.37,0.35 -0.21,0 -0.36,-0.15 -0.38,-0.16 z"
   style="fill:#000000;stroke-width:0" />
</g>    <path
       sodipodi:nodetypes="cc"
       id="path8388-6"
       d="M 211.26762,77.838749 237.48383,134.6131"
       style="fill:none;stroke:#000000;stroke-width:0.625;stroke-linecap:butt;stroke-linejoin:miter;stroke-miterlimit:4;stroke-opacity:1;stroke-dasharray:none;marker-end:url(#Arrow2Lend)" />
    <g
       style="font-style:normal;font-variant:normal;font-weight:normal;font-stretch:normal;letter-spacing:normal;word-spacing:normal;text-anchor:start;fill:none;stroke:#000000;stroke-width:1;stroke-linecap:butt;stroke-linejoin:miter;stroke-miterlimit:10.43299961;stroke-opacity:1;stroke-dasharray:none;stroke-dashoffset:0"
       ns0:preamble="/homes/50/alexf/work/papers/eccv10/preamble.tex"
       ns0:text="$d&lt;\\alpha$"
       word-spacing="normal"
       letter-spacing="normal"
       font-size-adjust="none"
       font-stretch="normal"
       font-weight="normal"
       font-variant="normal"
       font-style="normal"
       fill-rule="even-odd"
       stroke-miterlimit="10.433"
       xml:space="preserve"
       transform="matrix(1.7944545,0,0,-1.7944545,-219.20667,929.3758)"
       id="g8982">
<path
   id="path8984"
   d="m 228.57,484.04 0,0 0,0 0,0 0,0 0,0 0,0.01 0,0 0,0 0,0.01 0,0 0,0.01 0,0 0,0.01 -0.01,0 0,0.01 0,0 0,0.01 -0.01,0 0,0.01 0,0 -0.01,0 0,0.01 0,0 -0.01,0 0,0 0,0.01 0,0 -0.01,0 0,0 0,0 -0.01,0 0,0.01 -0.01,0 0,0 0,0 -0.01,0 0,0 -0.01,0 0,0 -0.01,0.01 0,0 -0.01,0 0,0 -0.01,0 -0.01,0 c -0.15,0 -1.09,-0.09 -1.26,-0.11 -0.08,-0.01 -0.14,-0.06 -0.14,-0.19 0,-0.12 0.09,-0.12 0.24,-0.12 0.48,0 0.5,-0.07 0.5,-0.17 l -0.03,-0.2 -0.6,-2.36 c -0.18,0.37 -0.47,0.64 -0.92,0.64 l 0.01,-0.22 c 0.65,0 0.79,-0.82 0.79,-0.88 0,-0.06 -0.02,-0.12 -0.03,-0.17 l -0.5,-1.95 c -0.05,-0.18 -0.05,-0.2 -0.2,-0.37 -0.44,-0.55 -0.84,-0.71 -1.12,-0.71 -0.5,0 -0.64,0.55 -0.64,0.94 0,0.5 0.32,1.72 0.55,2.18 0.31,0.59 0.75,0.96 1.15,0.96 l -0.01,0.22 c -1.16,0 -2.4,-1.47 -2.4,-2.92 0,-0.94 0.55,-1.6 1.33,-1.6 0.19,0 0.69,0.04 1.29,0.75 0.08,-0.42 0.43,-0.75 0.91,-0.75 0.35,0 0.58,0.23 0.74,0.55 0.16,0.36 0.29,0.97 0.29,0.99 0,0.1 -0.09,0.1 -0.12,0.1 -0.09,0 -0.11,-0.04 -0.14,-0.18 -0.17,-0.65 -0.34,-1.24 -0.75,-1.24 -0.27,0 -0.3,0.26 -0.3,0.46 0,0.24 0.02,0.31 0.06,0.48 z"
   style="fill:#000000;stroke-width:0" />
<path
   id="path8986"
   d="m 238.12,482.19 0.01,0.01 0.01,0.01 0.01,0 0.01,0.01 0.01,0 0.01,0.01 0.01,0 0,0.01 0.01,0 0.01,0.01 0.01,0 0.01,0.01 0,0.01 0.01,0 0.01,0.01 0,0 0.01,0.01 0.01,0.01 0,0 0.01,0.01 0,0.01 0,0.01 0.01,0 0,0.01 0,0.01 0.01,0.01 0,0.01 0,0 0,0.01 0,0.01 0,0.01 0,0.01 c 0,0.11 -0.09,0.2 -0.2,0.2 -0.03,0 -0.05,0 -0.17,-0.07 l -5.52,-2.6 c -0.11,-0.05 -0.19,-0.1 -0.19,-0.22 0,-0.12 0.08,-0.17 0.19,-0.22 l 5.52,-2.6 c 0.12,-0.07 0.14,-0.07 0.17,-0.07 0.11,0 0.2,0.09 0.2,0.2 0,0.11 -0.07,0.16 -0.18,0.22 l -5.24,2.47 z"
   style="fill:#000000;stroke-width:0" />
<path
   id="path8988"
   d="m 246.66,479.58 0,0.08 -0.01,0.07 0,0.07 0,0.06 -0.02,0.14 -0.01,0.12 -0.03,0.12 -0.02,0.11 -0.03,0.11 -0.04,0.1 -0.04,0.1 -0.04,0.09 -0.05,0.09 -0.04,0.08 -0.06,0.08 -0.05,0.07 -0.06,0.06 -0.06,0.07 -0.06,0.05 -0.06,0.06 -0.07,0.04 -0.07,0.05 -0.06,0.04 -0.07,0.04 -0.07,0.03 -0.08,0.03 -0.07,0.02 -0.07,0.02 -0.07,0.02 -0.07,0.01 -0.08,0.01 -0.07,0.01 -0.07,0 -0.07,0.01 -0.01,-0.22 c 0.99,0 0.99,-1.31 0.99,-2.09 0,-0.36 0,-0.94 0.02,-1.11 h 0 c -0.88,-0.77 -1.64,-0.88 -2.04,-0.88 -0.6,0 -0.9,0.45 -0.9,1.09 0,0.49 0.26,1.56 0.58,2.07 0.47,0.73 1,0.92 1.35,0.92 l 0.01,0.22 c -1.36,0 -2.68,-1.43 -2.68,-2.83 0,-0.93 0.6,-1.69 1.62,-1.69 0.62,0 1.34,0.23 2.1,0.84 0.13,-0.53 0.46,-0.84 0.91,-0.84 0.52,0 0.83,0.55 0.83,0.71 0,0.07 -0.06,0.1 -0.12,0.1 -0.07,0 -0.1,-0.03 -0.13,-0.1 -0.17,-0.49 -0.53,-0.49 -0.55,-0.49 -0.31,0 -0.31,0.78 -0.31,1.02 0,0.21 0,0.23 0.1,0.35 0.93,1.17 1.14,2.33 1.14,2.34 0,0.02 -0.01,0.1 -0.12,0.1 -0.1,0 -0.1,-0.03 -0.15,-0.21 -0.18,-0.63 -0.51,-1.39 -0.97,-1.97 z"
   style="fill:#000000;stroke-width:0" />
</g>    <g
       id="g9145"
       transform="matrix(-1.738354,0,0,-1.738354,640.45034,989.04363)"
       xml:space="preserve"
       stroke-miterlimit="10.433"
       fill-rule="even-odd"
       font-style="normal"
       font-variant="normal"
       font-weight="normal"
       font-stretch="normal"
       font-size-adjust="none"
       letter-spacing="normal"
       word-spacing="normal"
       ns0:text="*"
       ns0:preamble="/homes/50/alexf/work/papers/eccv10/preamble.tex"
       style="font-style:normal;font-variant:normal;font-weight:normal;font-stretch:normal;letter-spacing:normal;word-spacing:normal;text-anchor:start;fill:#0000ff;stroke:#000000;stroke-linecap:butt;stroke-linejoin:miter;stroke-miterlimit:10.43299961;stroke-opacity:1;stroke-dasharray:none;stroke-dashoffset:0">
<path
   d="m 226.14,482.55 1.39,0.66 c 0.19,0.09 0.23,0.16 0.23,0.28 0,0.13 -0.11,0.28 -0.27,0.28 -0.07,0 -0.09,0 -0.35,-0.19 -0.24,-0.18 -0.86,-0.64 -1.11,-0.82 l 0.15,1.69 c 0,0.16 -0.13,0.25 -0.26,0.25 -0.16,0 -0.27,-0.12 -0.27,-0.25 0,-0.09 0.13,-1.47 0.15,-1.69 l -1.23,0.9 c -0.14,0.11 -0.16,0.11 -0.22,0.11 -0.16,0 -0.27,-0.15 -0.27,-0.28 0,-0.11 0.04,-0.19 0.21,-0.27 l 1.4,-0.66 -1.38,-0.66 c -0.19,-0.08 -0.23,-0.15 -0.23,-0.27 0,-0.02 0,-0.28 0.33,-0.28 l 1.39,1 -0.15,-1.69 c 0,-0.15 0.13,-0.25 0.26,-0.25 0.16,0 0.27,0.12 0.27,0.25 0,0.1 -0.13,1.47 -0.15,1.69 0.5,-0.36 1.25,-0.91 1.3,-0.94 0.05,-0.03 0.08,-0.06 0.16,-0.06 0.16,0 0.27,0.15 0.27,0.28 0,0.11 -0.04,0.19 -0.21,0.26 z"
   id="path9147"
   style="fill:#0000ff;stroke-width:0" />
</g>    <path
       style="fill:none;stroke:#000000;stroke-width:1px;stroke-linecap:butt;stroke-linejoin:miter;stroke-opacity:1;display:inline"
       d="m 241.43625,102.42418 14.7181,27.19661"
       id="path7873-2"
       sodipodi:nodetypes="cc" />
    <path
       style="fill:none;stroke:#000000;stroke-width:1px;stroke-linecap:butt;stroke-linejoin:miter;stroke-opacity:1;display:inline"
       d="m 187.9814,158.07647 13.48214,24.46428"
       id="path7873-4"
       sodipodi:nodetypes="cc" />
    <path
       style="fill:none;stroke:#000000;stroke-width:1px;stroke-linecap:butt;stroke-linejoin:miter;stroke-opacity:1;display:inline"
       d="m 105.74925,192.62107 15.73503,29.98003"
       id="path7873-9"
       sodipodi:nodetypes="cc" />
    <path
       sodipodi:type="arc"
       style="color:#000000;fill:#000000;fill-opacity:1;stroke:none;stroke-width:2;marker:none;visibility:visible;display:inline;overflow:visible;enable-background:accumulate"
       id="path25811"
       sodipodi:cx="337.39096"
       sodipodi:cy="213.4305"
       sodipodi:rx="4.5456862"
       sodipodi:ry="4.5456862"
       d="m 341.93665,213.4305 a 4.5456862,4.5456862 0 1 1 -9.09138,0 4.5456862,4.5456862 0 1 1 9.09138,0 z"
       transform="matrix(-1,0,0,1,390.79522,0.75761436)" />
    <path
       transform="matrix(-1.5,0,0,1.5,406.55283,-71.181091)"
       sodipodi:type="arc"
       style="color:#000000;fill:#008000;fill-opacity:1;stroke:none;stroke-width:2.5;marker:none;visibility:visible;display:inline;overflow:visible;enable-background:accumulate"
       id="path7657-9-66"
       sodipodi:cx="110"
       sodipodi:cy="142.36218"
       sodipodi:rx="2"
       sodipodi:ry="2"
       d="m 112,142.36218 a 2,2 0 1 1 -4,0 2,2 0 1 1 4,0 z" />
    <path
       style="fill:none;stroke:#000000;stroke-width:1px;stroke-linecap:butt;stroke-linejoin:miter;stroke-opacity:1"
       d="m 241.55283,142.45147 -2.85714,-5.44643"
       id="path7871" />
    <path
       style="fill:none;stroke:#008000;stroke-width:2.5;stroke-linecap:square;stroke-linejoin:miter;stroke-opacity:1;stroke-miterlimit:4;stroke-dasharray:2.5,7.5;stroke-dashoffset:0"
       d="M 53.033009,213.93557 238.57143,137.00504"
       id="path26625" />
  </g>
  <g
     inkscape:groupmode="layer"
     id="layer7"
     inkscape:label="dots"
     style="display:none" />
</svg>
