<?xml version="1.0" encoding="UTF-8" standalone="no"?>
<!-- Created with Inkscape (http://www.inkscape.org/) -->

<svg
   xmlns:dc="http://purl.org/dc/elements/1.1/"
   xmlns:cc="http://creativecommons.org/ns#"
   xmlns:rdf="http://www.w3.org/1999/02/22-rdf-syntax-ns#"
   xmlns:svg="http://www.w3.org/2000/svg"
   xmlns="http://www.w3.org/2000/svg"
   xmlns:xlink="http://www.w3.org/1999/xlink"
   xmlns:sodipodi="http://sodipodi.sourceforge.net/DTD/sodipodi-0.dtd"
   xmlns:inkscape="http://www.inkscape.org/namespaces/inkscape"
   width="744.09448819"
   height="1052.3622047"
   id="svg5785"
   version="1.1"
   inkscape:version="0.47 r22583"
   sodipodi:docname="lab_ground1_010.svg"
   inkscape:export-filename="/home/alex/DPhil/Papers/eccv2010/poster/figures/true_models/lab_ground1_010.png"
   inkscape:export-xdpi="90"
   inkscape:export-ydpi="90">
  <defs
     id="defs5787">
    <inkscape:perspective
       sodipodi:type="inkscape:persp3d"
       inkscape:vp_x="0 : 526.18109 : 1"
       inkscape:vp_y="0 : 1000 : 0"
       inkscape:vp_z="744.09448 : 526.18109 : 1"
       inkscape:persp3d-origin="372.04724 : 350.78739 : 1"
       id="perspective5793" />
    <inkscape:perspective
       id="perspective5899"
       inkscape:persp3d-origin="0.5 : 0.33333333 : 1"
       inkscape:vp_z="1 : 0.5 : 1"
       inkscape:vp_y="0 : 1000 : 0"
       inkscape:vp_x="0 : 0.5 : 1"
       sodipodi:type="inkscape:persp3d" />
    <inkscape:perspective
       id="perspective5913"
       inkscape:persp3d-origin="0.5 : 0.33333333 : 1"
       inkscape:vp_z="1 : 0.5 : 1"
       inkscape:vp_y="0 : 1000 : 0"
       inkscape:vp_x="0 : 0.5 : 1"
       sodipodi:type="inkscape:persp3d" />
    <inkscape:perspective
       id="perspective5988"
       inkscape:persp3d-origin="0.5 : 0.33333333 : 1"
       inkscape:vp_z="1 : 0.5 : 1"
       inkscape:vp_y="0 : 1000 : 0"
       inkscape:vp_x="0 : 0.5 : 1"
       sodipodi:type="inkscape:persp3d" />
    <inkscape:perspective
       id="perspective21314"
       inkscape:persp3d-origin="0.5 : 0.33333333 : 1"
       inkscape:vp_z="1 : 0.5 : 1"
       inkscape:vp_y="0 : 1000 : 0"
       inkscape:vp_x="0 : 0.5 : 1"
       sodipodi:type="inkscape:persp3d" />
  </defs>
  <sodipodi:namedview
     id="base"
     pagecolor="#ffffff"
     bordercolor="#666666"
     borderopacity="1.0"
     inkscape:pageopacity="0.0"
     inkscape:pageshadow="2"
     inkscape:zoom="0.7"
     inkscape:cx="568.54837"
     inkscape:cy="476.36996"
     inkscape:document-units="px"
     inkscape:current-layer="layer1"
     showgrid="false"
     inkscape:window-width="1492"
     inkscape:window-height="968"
     inkscape:window-x="0"
     inkscape:window-y="24"
     inkscape:window-maximized="0" />
  <metadata
     id="metadata5790">
    <rdf:RDF>
      <cc:Work
         rdf:about="">
        <dc:format>image/svg+xml</dc:format>
        <dc:type
           rdf:resource="http://purl.org/dc/dcmitype/StillImage" />
        <dc:title></dc:title>
      </cc:Work>
    </rdf:RDF>
  </metadata>
  <g
     inkscape:label="Layer 1"
     inkscape:groupmode="layer"
     id="layer1"
     style="display:inline">
    <image
       sodipodi:absref="/home/alex/DPhil/Papers/eccv2010/figures/true_models/lab_ground1/frame010_rectmodel.png"
       xlink:href="lab_ground1/frame010_rectmodel.png"
       style="opacity:0.5;display:inline"
       y="292.36218"
       x="55"
       id="image5901"
       height="480"
       width="640" />
    <path
       style="fill:none;stroke:#000000;stroke-width:10;stroke-linecap:round;stroke-linejoin:round;stroke-miterlimit:4;stroke-opacity:1;stroke-dasharray:none"
       d="m 70.714286,616.6479 c 0.357143,0 5.446428,3.39285 5.446428,3.39285 l 0,-52.5"
       id="path6012" />
    <path
       style="fill:none;stroke:#000000;stroke-width:10;stroke-linecap:round;stroke-linejoin:round;stroke-miterlimit:4;stroke-opacity:1;stroke-dasharray:none"
       d="m 76.071429,619.68361 91.785711,-18.39286 0,-183.03571 -78.749997,-3.92857"
       id="path6014" />
    <path
       style="fill:none;stroke:#000000;stroke-width:10;stroke-linecap:round;stroke-linejoin:round;stroke-miterlimit:4;stroke-opacity:1;stroke-dasharray:none"
       d="m 167.54412,418.53494 -0.56594,-12.58793 26.22221,-4.4638 0,256.93651 -24.996,-15.71259 0,-41.95974"
       id="path6016" />
    <path
       style="fill:none;stroke:#000000;stroke-width:10;stroke-linecap:round;stroke-linejoin:round;stroke-miterlimit:4;stroke-opacity:1;stroke-dasharray:none"
       d="m 193.21429,401.64789 151.7528,12.80296 0,199.00005 -152.02795,44.95179"
       id="path6018" />
    <path
       style="fill:none;stroke:#000000;stroke-width:10;stroke-linecap:butt;stroke-linejoin:miter;stroke-miterlimit:4;stroke-opacity:1;stroke-dasharray:none"
       d="m 344.71456,415.461 0,-41.41625 278.8021,-53.53809"
       id="path6020" />
    <path
       style="fill:none;stroke:#000000;stroke-width:10;stroke-linecap:round;stroke-linejoin:round;stroke-miterlimit:4;stroke-opacity:1;stroke-dasharray:none"
       d="m 345.3459,613.07209 0,141.42136 26.5165,16.41498"
       id="path6022"
       sodipodi:nodetypes="ccc" />
    <path
       style="color:#000000;fill:#ffffff;fill-opacity:1;stroke:none;stroke-width:10;marker:none;visibility:visible;display:inline;overflow:visible;enable-background:accumulate"
       d="m 125.46766,411.05318 c -18.54261,-0.94635 -34.083176,-1.72753 -34.534588,-1.73596 l -0.820749,-0.0153 0,-3.91434 c 0,-3.74599 0.02172,-3.91434 0.505076,-3.91434 0.489771,0 0.505076,-0.16836 0.505076,-5.55584 0,-5.38748 0.01531,-5.55584 0.505077,-5.55584 0.489415,0 0.505076,-0.16836 0.505076,-5.42957 0,-4.65793 0.05384,-5.42957 0.378807,-5.42957 0.325239,0 0.378807,-0.78568 0.378807,-5.55584 0,-5.38748 0.01531,-5.55584 0.505077,-5.55584 0.489771,0 0.505076,-0.16836 0.505076,-5.55584 0,-5.38748 0.01531,-5.55584 0.505076,-5.55584 0.489415,0 0.505076,-0.16836 0.505076,-5.42957 0,-5.26121 0.01566,-5.42957 0.505077,-5.42957 0.489771,0 0.505076,-0.16836 0.505076,-5.55584 0,-5.38748 0.01531,-5.55584 0.505076,-5.55584 0.489415,0 0.505077,-0.16835 0.505077,-5.42957 0,-5.26121 0.01566,-5.42957 0.505076,-5.42957 0.48637,0 0.505076,-0.16835 0.505076,-4.54568 l 0,-4.54569 30.052035,0 c 29.88368,0 30.05204,0.003 30.05204,0.50508 0,0.48168 0.16836,0.50507 3.63479,0.50507 2.99795,0 3.66025,0.0664 3.78014,0.37881 0.21025,0.54789 3.90026,0.54789 4.1105,0 0.21964,-0.57238 21.42875,-0.57238 21.64839,0 0.21025,0.54789 3.90026,0.54789 4.1105,0 0.12846,-0.33475 5.36997,-0.37881 45.07013,-0.37881 44.75641,0 44.92477,0.002 44.92477,0.50508 0,0.50374 0.16836,0.50508 63.51334,0.50508 63.34498,0 63.51334,10e-4 63.51334,0.50507 0,0.50348 0.16837,0.50508 53.15928,0.50508 l 53.15928,0 0,8.53037 0,8.53037 -89.46164,17.1797 -89.46163,17.1797 -0.0647,19.49426 -0.0647,19.49425 -0.52905,0 c -0.76078,0 -141.30776,-11.83653 -142.59382,-12.00891 l -1.07328,-0.14387 0,-3.89886 0,-3.89887 -2.14658,0 -2.14657,0 0,3.89427 0,3.89428 -0.69448,0.14228 c -0.38197,0.0783 -6.05214,1.05152 -12.60039,2.16281 -6.54825,1.11129 -12.20359,2.1337 -12.56742,2.27203 -1.13775,0.43257 -2.19894,1.35835 -2.75998,2.40781 -0.49836,0.9322 -0.53446,1.32684 -0.46775,5.1139 l 0.0723,4.10374 -1.46417,-0.0318 c -0.8053,-0.0175 -16.63541,-0.80609 -35.17802,-1.75244 z m 44.19418,-18.16626 0,-4.04061 -2.14658,0 -2.14657,0 0,4.04061 0,4.04061 2.14657,0 2.14658,0 0,-4.04061 z m -0.12627,-16.03617 0,-4.04061 -2.02031,0 -2.0203,0 -0.0694,4.11406 -0.0694,4.11406 2.08974,-0.0734 2.08975,-0.0734 0,-4.04061 z m 25.82828,0.0631 -0.0694,-4.10374 -2.02031,0 -2.0203,0 -0.0694,4.10374 -0.0694,4.10375 2.15908,0 2.15909,0 -0.0694,-4.10375 z m -25.82828,-15.97304 0,-4.04061 -2.08344,-0.0733 -2.08344,-0.0734 0,4.1873 0,4.18731 2.08344,-0.0734 2.08344,-0.0734 0,-4.04061 0,0 z m 25.82828,-0.0631 0.0694,-4.10374 -2.15283,0 -2.15283,0 0,3.99852 c 0,2.19918 0.0801,4.07864 0.17805,4.17657 0.0979,0.0979 1.03547,0.14527 2.08344,0.10522 l 1.90539,-0.0728 0.0694,-4.10374 z m 151.27035,0 0.0694,-4.10374 -2.15281,0 -2.15284,0 0,3.99852 c 0,2.19918 0.0801,4.07864 0.17804,4.17657 0.0979,0.0979 1.03548,0.14527 2.08344,0.10522 l 1.9054,-0.0728 0.0694,-4.10374 z m -176.97236,-15.97304 0,-4.04061 -2.14658,0 -2.14657,0 0,4.04061 0,4.04061 2.14657,0 2.14658,0 0,-4.04061 z m 25.75889,0 0,-4.04061 -2.14658,0 -2.14657,0 0,4.04061 0,4.04061 2.14657,0 2.14658,0 0,-4.04061 z m 151.27034,0 0,-4.04061 -2.14658,0 -2.14657,0 0,4.04061 0,4.04061 2.14657,0 2.14658,0 0,-4.04061 z m -177.1555,-16.03617 0,-4.04061 -2.08344,-0.0734 -2.08344,-0.0733 0,4.1873 0,4.18731 2.08344,-0.0734 2.08344,-0.0734 0,-4.04061 z m 25.82828,0.0631 -0.0694,-4.10375 -2.02031,0 -2.0203,0 -0.0694,4.10375 -0.0694,4.10374 2.15908,0 2.15909,0 -0.0694,-4.10374 z m 151.27035,0 -0.0694,-4.10375 -2.02031,0 -2.0203,0 -0.0694,4.10375 -0.0694,4.10374 2.15907,0 2.15908,0 -0.0694,-4.10374 0,0 z"
       id="path21858" />
    <path
       style="color:#000000;fill:#ffffff;fill-opacity:1;stroke:none;stroke-width:10;marker:none;visibility:visible;display:inline;overflow:visible;enable-background:accumulate"
       d="m 518.57201,326.95072 0,-8.61332 9.84899,0 c 9.6743,0 9.84898,0.009 9.84898,0.50411 0,0.50077 0.2102,0.50453 31.80974,0.56821 l 31.80974,0.0641 -41.34305,7.93102 c -22.73868,4.36206 -41.48511,7.98236 -41.65873,8.04511 -0.2486,0.0898 -0.31567,-1.71609 -0.31567,-8.49923 z"
       id="path21860" />
    <path
       style="color:#000000;fill:#ffffff;fill-opacity:1;stroke:none;stroke-width:10;marker:none;visibility:visible;display:inline;overflow:visible;enable-background:accumulate"
       d="m 78.187812,777.05201 -0.176481,-4.29315 -10.613654,0 -10.613655,0 0.614608,-6.81853 c 0.338034,-3.75019 3.420947,-37.54978 6.850919,-75.11021 l 6.236311,-68.29169 2.167504,1.43917 c 1.94157,1.28916 6.677228,0.53667 45.431526,-7.21894 23.79522,-4.76197 43.58554,-8.65734 43.97851,-8.65639 0.39296,9.5e-4 0.91252,8.29761 1.15456,18.43701 0.5629,23.57943 1.10096,27.02158 4.2239,27.02158 1.28987,0 2.49219,-0.68724 2.67183,-1.5272 0.24492,-1.14525 2.90818,0.0548 10.649,4.79823 9.71661,5.9542 10.32427,6.52221 10.35407,9.67867 0.0273,2.89239 0.34403,3.30889 2.3045,3.03046 1.71088,-0.24298 2.34792,-1.09169 2.57646,-3.43259 l 0.30363,-3.10979 70.91213,-20.91694 c 39.00167,-11.50432 71.24366,-20.90092 71.64886,-20.88133 0.40521,0.0196 0.90212,30.37807 1.10424,67.46329 0.20213,37.08523 0.77974,69.47324 1.28357,71.97337 0.72614,3.60319 1.38732,4.61261 3.18891,4.86848 1.72455,0.24492 2.27285,-0.17809 2.27285,-1.75353 0,-1.84202 0.9651,-1.47946 8.55205,3.21274 l 8.55206,5.28907 -10.51592,0.28613 -10.51593,0.28615 -0.38503,4.25954 -0.38504,4.25955 -0.17647,-4.29315 -0.17649,-4.29315 -72.67289,0 -72.6729,0 -0.38668,4.29315 -0.38669,4.29315 -0.17647,-4.29315 -0.17648,-4.29315 -58.02569,0 -58.025693,0 -0.386677,4.29315 -0.386677,4.29315 -0.176481,-4.29315 0,0 z m -0.176481,-15.9099 c 0,-3.87225 -0.299304,-4.54569 -2.020305,-4.54569 -1.721001,0 -2.020305,0.67344 -2.020305,4.54569 0,3.87225 0.299304,4.54568 2.020305,4.54568 1.721001,0 2.020305,-0.67343 2.020305,-4.54568 z m 91.923879,0 c 0,-4.1753 -0.20577,-4.54569 -2.52538,-4.54569 -2.25454,0 -2.52538,0.41528 -2.52538,3.87225 0,4.35087 0.53216,5.21912 3.19882,5.21912 1.52146,0 1.85194,-0.81118 1.85194,-4.54568 z m 25.75889,0 c 0,-3.42119 -0.34843,-4.0901 -2.27284,-4.36341 -2.07679,-0.29495 -2.27284,0.0814 -2.27284,4.36341 0,4.28197 0.19605,4.65836 2.27284,4.3634 1.92441,-0.27331 2.27284,-0.94222 2.27284,-4.3634 z M 78.011331,744.97967 c 0,-3.87225 -0.299304,-4.54569 -2.020305,-4.54569 -1.721001,0 -2.020305,0.67344 -2.020305,4.54569 0,3.87224 0.299304,4.54568 2.020305,4.54568 1.721001,0 2.020305,-0.67344 2.020305,-4.54568 z m 91.923879,0 c 0,-4.1753 -0.20577,-4.54569 -2.52538,-4.54569 -2.31961,0 -2.52538,0.37039 -2.52538,4.54569 0,4.17529 0.20577,4.54568 2.52538,4.54568 2.31961,0 2.52538,-0.37039 2.52538,-4.54568 z m 25.75889,0 c 0,-3.42119 -0.34843,-4.0901 -2.27284,-4.36341 -2.07679,-0.29495 -2.27284,0.0814 -2.27284,4.36341 0,4.28197 0.19605,4.65836 2.27284,4.3634 1.92441,-0.27331 2.27284,-0.94222 2.27284,-4.3634 z M 78.011331,728.81723 c 0,-3.87225 -0.299304,-4.54569 -2.020305,-4.54569 -1.721001,0 -2.020305,0.67344 -2.020305,4.54569 0,3.87224 0.299304,4.54568 2.020305,4.54568 1.721001,0 2.020305,-0.67344 2.020305,-4.54568 z m 91.923879,0 c 0,-4.1753 -0.20577,-4.54569 -2.52538,-4.54569 -2.31961,0 -2.52538,0.37039 -2.52538,4.54569 0,4.17529 0.20577,4.54568 2.52538,4.54568 2.31961,0 2.52538,-0.37039 2.52538,-4.54568 z m 25.75889,0 c 0,-3.42119 -0.34843,-4.0901 -2.27284,-4.36341 -2.07679,-0.29495 -2.27284,0.0814 -2.27284,4.36341 0,4.28197 0.19605,4.65835 2.27284,4.3634 1.92441,-0.27331 2.27284,-0.94222 2.27284,-4.3634 z M 78.011331,712.65479 c 0,-3.87225 -0.299304,-4.54569 -2.020305,-4.54569 -1.721001,0 -2.020305,0.67344 -2.020305,4.54569 0,3.87224 0.299304,4.54568 2.020305,4.54568 1.721001,0 2.020305,-0.67344 2.020305,-4.54568 z m 91.923879,-0.0703 c 0,-4.20911 -0.20032,-4.5875 -2.27284,-4.29315 -1.88941,0.26834 -2.32524,1.04705 -2.58347,4.61594 -0.29031,4.01263 -0.14181,4.29315 2.27285,4.29315 2.39427,0 2.58346,-0.33803 2.58346,-4.61594 l 0,0 z m 25.75889,0.0703 c 0,-3.42119 -0.34843,-4.0901 -2.27284,-4.36341 -2.07679,-0.29495 -2.27284,0.0814 -2.27284,4.36341 0,4.28197 0.19605,4.65835 2.27284,4.3634 1.92441,-0.27331 2.27284,-0.94222 2.27284,-4.3634 z M 78.011331,696.99742 c 0,-3.36717 -0.336717,-4.04061 -2.020305,-4.04061 -1.683588,0 -2.020305,0.67344 -2.020305,4.04061 0,3.36718 0.336717,4.04061 2.020305,4.04061 1.683588,0 2.020305,-0.67343 2.020305,-4.04061 z m 91.923879,0 c 0,-3.63655 -0.25254,-4.04061 -2.52538,-4.04061 -2.27284,0 -2.52538,0.40406 -2.52538,4.04061 0,3.63655 0.25254,4.04061 2.52538,4.04061 2.27284,0 2.52538,-0.40406 2.52538,-4.04061 z m 26.07241,-0.25254 c 0.28741,-3.47262 0.0981,-3.78807 -2.27284,-3.78807 -2.35135,0 -2.58636,0.37353 -2.58636,4.11087 0,3.68533 0.23527,4.07745 2.27284,3.78807 1.82568,-0.25929 2.33452,-1.06807 2.58636,-4.11087 z M 78.011331,680.83498 c 0,-3.36717 -0.336717,-4.04061 -2.020305,-4.04061 -1.683588,0 -2.020305,0.67344 -2.020305,4.04061 0,3.36718 0.336717,4.04061 2.020305,4.04061 1.683588,0 2.020305,-0.67343 2.020305,-4.04061 z m 91.923879,0 c 0,-3.63655 -0.25254,-4.04061 -2.52538,-4.04061 -2.27284,0 -2.52538,0.40406 -2.52538,4.04061 0,3.63655 0.25254,4.04061 2.52538,4.04061 2.27284,0 2.52538,-0.40406 2.52538,-4.04061 z m 26.07241,0.25254 c -0.25184,-3.0428 -0.76068,-3.85158 -2.58636,-4.11087 -2.03757,-0.28938 -2.27284,0.10274 -2.27284,3.78807 0,3.73734 0.23501,4.11087 2.58636,4.11087 2.37098,0 2.56025,-0.31545 2.27284,-3.78807 z M 78.011331,665.17762 c 0,-3.87225 -0.299304,-4.54569 -2.020305,-4.54569 -1.721001,0 -2.020305,0.67344 -2.020305,4.54569 0,3.87225 0.299304,4.54568 2.020305,4.54568 1.721001,0 2.020305,-0.67343 2.020305,-4.54568 z m 91.729429,-0.26126 c 0.29024,-4.00328 0.14109,-4.28443 -2.27285,-4.28443 -2.32188,0 -2.58346,0.39207 -2.58346,3.87225 0,4.31072 0.66867,5.43058 2.9812,4.99279 1.05714,-0.20013 1.66522,-1.68557 1.87511,-4.58061 z M 78.011331,649.01518 c 0,-3.87226 -0.299304,-4.54569 -2.020305,-4.54569 -1.721001,0 -2.020305,0.67343 -2.020305,4.54569 0,3.87225 0.299304,4.54568 2.020305,4.54568 1.721001,0 2.020305,-0.67343 2.020305,-4.54568 z m 0,-16.16245 c 0,-3.87225 -0.299304,-4.54568 -2.020305,-4.54568 -1.721001,0 -2.020305,0.67343 -2.020305,4.54568 0,3.87226 0.299304,4.54569 2.020305,4.54569 1.721001,0 2.020305,-0.67343 2.020305,-4.54569 z"
       id="path21862" />
  </g>
  <g
     inkscape:groupmode="layer"
     id="layer4"
     inkscape:label="guide"
     style="display:inline">
    <path
       style="fill:none;stroke:#000000;stroke-width:4;stroke-linecap:butt;stroke-linejoin:miter;stroke-miterlimit:4;stroke-opacity:1;stroke-dasharray:8, 8;stroke-dashoffset:0"
       d="m 76.116016,292.90494 0,506.18861"
       id="path5683" />
    <path
       style="fill:none;stroke:#000000;stroke-width:4;stroke-linecap:butt;stroke-linejoin:miter;stroke-miterlimit:4;stroke-opacity:1;stroke-dasharray:8, 8;stroke-dashoffset:0"
       d="m 167.45696,292.90494 0,506.18861"
       id="path5683-6" />
    <path
       style="fill:none;stroke:#000000;stroke-width:4;stroke-linecap:butt;stroke-linejoin:miter;stroke-miterlimit:4;stroke-opacity:1;stroke-dasharray:8, 8;stroke-dashoffset:0"
       d="m 193.30131,292.90494 0,506.18861"
       id="path5683-0" />
    <path
       style="fill:none;stroke:#000000;stroke-width:4;stroke-linecap:butt;stroke-linejoin:miter;stroke-miterlimit:4;stroke-opacity:1;stroke-dasharray:8, 8;stroke-dashoffset:0"
       d="m 344.55495,292.90494 0,506.18861"
       id="path5683-64" />
  </g>
</svg>
