<?xml version="1.0" encoding="UTF-8" standalone="no"?>
<!-- Created with Inkscape (http://www.inkscape.org/) -->

<svg
   xmlns:dc="http://purl.org/dc/elements/1.1/"
   xmlns:cc="http://creativecommons.org/ns#"
   xmlns:rdf="http://www.w3.org/1999/02/22-rdf-syntax-ns#"
   xmlns:svg="http://www.w3.org/2000/svg"
   xmlns="http://www.w3.org/2000/svg"
   xmlns:sodipodi="http://sodipodi.sourceforge.net/DTD/sodipodi-0.dtd"
   xmlns:inkscape="http://www.inkscape.org/namespaces/inkscape"
   width="744.09448819"
   height="1052.3622047"
   id="svg5459"
   version="1.1"
   inkscape:version="0.48.2 r9819"
   sodipodi:docname="New document 28">
  <defs
     id="defs5461" />
  <sodipodi:namedview
     id="base"
     pagecolor="#ffffff"
     bordercolor="#666666"
     borderopacity="1.0"
     inkscape:pageopacity="0.0"
     inkscape:pageshadow="2"
     inkscape:zoom="0.7"
     inkscape:cx="383.36384"
     inkscape:cy="525.09668"
     inkscape:document-units="px"
     inkscape:current-layer="layer1"
     showgrid="false"
     inkscape:window-width="929"
     inkscape:window-height="905"
     inkscape:window-x="1681"
     inkscape:window-y="53"
     inkscape:window-maximized="0" />
  <metadata
     id="metadata5464">
    <rdf:RDF>
      <cc:Work
         rdf:about="">
        <dc:format>image/svg+xml</dc:format>
        <dc:type
           rdf:resource="http://purl.org/dc/dcmitype/StillImage" />
        <dc:title></dc:title>
      </cc:Work>
    </rdf:RDF>
  </metadata>
  <g
     inkscape:label="Layer 1"
     inkscape:groupmode="layer"
     id="layer1">
    <path
       style="fill:none;stroke:#000000;stroke-width:1px;stroke-linecap:butt;stroke-linejoin:miter;stroke-opacity:1"
       d="m 217.14286,106.6479 c 1.25964,4.66844 4.00731,6.86445 7.14285,10 0.95239,0.95238 2.04903,1.77964 2.85715,2.85714 0.63887,0.85183 0.67565,2.10422 1.42857,2.85714 5.3593,5.3593 2.63368,0.90384 7.14286,4.28572 1.07749,0.80812 1.90476,1.90476 2.85714,2.85714 1.90476,1.90476 3.80952,3.80952 5.71428,5.71428 0.95239,0.95239 1.77965,2.04903 2.85715,2.85715 0.85183,0.63887 2.0053,0.78969 2.85714,1.42857 1.0775,0.80812 1.77965,2.04902 2.85714,2.85714 0.85184,0.63888 2.10422,0.67565 2.85715,1.42857 0.75292,0.75293 0.78969,2.00531 1.42857,2.85715 1.32021,1.76028 4.50184,3.89562 5.71428,5.71428 0.59064,0.88596 0.67565,2.10422 1.42857,2.85715 0.75293,0.75292 2.10422,0.67564 2.85715,1.42857 0.33671,0.33671 -0.21296,1.00265 0,1.42857 1.71042,3.42085 2.85714,-0.90028 2.85714,2.85714"
       id="path5467"
       inkscape:connector-curvature="0" />
    <path
       style="fill:none;stroke:#000000;stroke-width:1px;stroke-linecap:butt;stroke-linejoin:miter;stroke-opacity:1"
       d="m 270,110.93361 c -0.95238,1.90476 -1.67586,3.94236 -2.85714,5.71429 -0.52443,0.78664 -6.36442,6.55902 -7.14286,7.14285 -0.85184,0.63888 -2.00531,0.7897 -2.85714,1.42857 -1.0775,0.80813 -1.90476,1.90477 -2.85715,2.85715 -0.47619,0.47619 -1.05501,0.86824 -1.42857,1.42857 -0.59064,0.88596 -0.83793,1.97118 -1.42857,2.85714 -0.86697,1.30045 -3.65261,3.01952 -4.28571,4.28572 -0.21296,0.42591 0.21296,1.00265 0,1.42857 -0.60234,1.20468 -2.25481,1.65246 -2.85715,2.85714 -0.21295,0.42592 0.33672,1.09185 0,1.42857 -0.33671,0.33672 -1.09185,-0.33672 -1.42857,0 -0.33671,0.33672 0.33672,1.09186 0,1.42857 -0.33671,0.33672 -1.09185,-0.33671 -1.42857,0 -0.33672,0.33672 0.33672,1.09186 0,1.42857 -0.33672,0.33672 -1.09185,-0.33671 -1.42857,0 -0.33672,0.33672 0.33672,1.09186 0,1.42858 -0.33672,0.33671 -1.00265,-0.21296 -1.42857,0 -0.60234,0.30117 -0.82623,1.1274 -1.42857,1.42857 -0.42592,0.21296 -1.09186,-0.33672 -1.42857,0 -0.33672,0.33672 0.33671,1.09185 0,1.42857 -0.33672,0.33672 -1.00266,-0.21296 -1.42858,0 -1.20467,0.60234 -1.65246,2.2548 -2.85714,2.85714 -0.85183,0.42592 -2.18371,-0.67343 -2.85714,0 -1.90476,1.90476 2.38095,1.42857 -1.42857,1.42857"
       id="path5469"
       inkscape:connector-curvature="0" />
    <path
       style="fill:none;stroke:#000000;stroke-width:1px;stroke-linecap:butt;stroke-linejoin:miter;stroke-opacity:1"
       d="m 245.71429,136.6479 c 0.47619,1.90476 0.95238,3.80952 1.42857,5.71428 0,1.42857 -0.28017,2.88489 0,4.28572 0.20882,1.04411 1.17032,1.82414 1.42857,2.85714 0.23099,0.92394 -0.15657,1.91772 0,2.85714 0.32278,1.93667 1.15091,3.77064 1.42857,5.71429 0.20203,1.41421 -0.20203,2.8715 0,4.28571 0.27766,1.94365 0.95238,3.80953 1.42857,5.71429 0.47619,1.90476 0.95238,3.80952 1.42857,5.71428 0.47619,1.90477 1.21175,3.76291 1.42857,5.71429 0.26294,2.36639 -0.31467,4.78279 0,7.14286 0.64182,4.81361 1.98844,9.50783 2.85715,14.28571 1.0363,5.69966 1.94188,11.42251 2.85714,17.14286 2.1825,13.64063 3.26621,22.24986 5.71429,35.71428 1.73741,9.55576 3.80952,19.04762 5.71428,28.57143 0.95238,4.76191 1.67934,9.5745 2.85714,14.28572 6.32501,25.30003 2.66909,3.09733 8.57143,31.42857 1.18153,5.67134 1.29515,11.5643 2.85715,17.14286 1.78833,6.38692 4.7619,12.38095 7.14285,18.57142 9.30513,24.19333 5.04546,12.27923 12.85715,35.71429 1.90476,5.71429 4.2534,11.29931 5.71428,17.14286 1.40504,5.62014 1.62652,11.48197 2.85714,17.14285 7.24215,33.31389 0.90076,-1.93531 10,31.42858 1.40083,5.13637 1.67724,10.5227 2.85715,15.71428 1.20327,5.29439 3.08244,10.41989 4.28571,15.71429 1.17991,5.19158 1.72618,10.51182 2.85714,15.71428 1.25125,5.75572 3.0844,11.37652 4.28572,17.14286 1.18153,5.67134 1.86454,11.43542 2.85714,17.14286 1.82443,10.49048 3.88986,20.93809 5.71429,31.42857 0.9716,5.58669 4.35806,26.88977 5.71428,32.85714 1.20327,5.29439 3.02816,10.43253 4.28572,15.71429 1.1248,4.72415 1.94848,9.51527 2.85714,14.28571 0.99618,5.22994 1.56589,10.54928 2.85714,15.71429 1.09567,4.38265 3.01102,8.52317 4.28572,12.85714 1.108,3.7672 1.84536,7.63439 2.85714,11.42857 0.89324,3.34967 1.9639,6.65034 2.85714,10 1.01281,3.79802 4.14894,17.35866 5.71429,21.42857 1.69145,4.39777 7.88227,14.94104 10,18.57143 1.39907,2.39841 3.04396,4.65935 4.28571,7.14286 1.14682,2.29364 1.796,4.80834 2.85715,7.14286 2.20307,4.84676 5.04564,9.39221 7.14285,14.28571 0.59319,1.38409 0.52507,3.08104 1.42857,4.28571 0.63888,0.85184 2.10422,0.67565 2.85715,1.42858 0.33671,0.33671 -0.15059,0.97681 0,1.42857 0.33671,1.01015 0.67565,2.10422 1.42857,2.85714 0.75292,0.75292 2.10422,0.67565 2.85714,1.42857 5.57534,5.57534 -0.33068,0.76721 1.42857,4.28572 0.30117,0.60233 1.12741,0.82623 1.42857,1.42857 0.21296,0.42591 -0.21295,1.00265 0,1.42857 0.30117,0.60234 1.12741,0.82623 1.42858,1.42857 0.21295,0.42592 -0.33672,1.09185 0,1.42857 0.33671,0.33672 1.09185,-0.33672 1.42857,0 0.71428,0.71429 -0.71429,3.57143 0,4.28572 0.33671,0.33671 1.09185,-0.33672 1.42857,0 0.39158,0.39158 -0.33484,6.13834 0,7.14285 0.33672,1.01016 1.09185,1.84699 1.42857,2.85715 0.40793,1.22379 -0.31508,4.45397 0,5.71428 0.25825,1.033 1.09185,1.84699 1.42857,2.85714 0.45176,1.35527 -0.34648,2.8998 0,4.28572 0.25825,1.033 1.17032,1.82414 1.42857,2.85714 0.23099,0.92395 0,1.90476 0,2.85714 0,0.95238 0,1.90477 0,2.85715 0,0.47619 -0.15058,0.97681 0,1.42857 4.04692,8.09384 -0.53239,-2.12959 1.42857,5.71428 0.25826,1.03301 1.17033,1.82414 1.42858,2.85715 0.34648,1.38591 -0.45176,2.93045 0,4.28571 0.33671,1.01015 1.09185,1.84699 1.42857,2.85714 0.30117,0.90351 -0.42592,2.00531 0,2.85715 0.30117,0.60234 1.1274,0.82623 1.42857,1.42857 0.46402,0.92803 -0.45308,6.23669 0,7.14286 0.30117,0.60233 1.1274,0.82623 1.42857,1.42857 0.42592,0.85183 -0.42592,2.0053 0,2.85714 0.30117,0.60234 1.1274,0.82623 1.42857,1.42857 0.31784,0.63568 -0.2178,5.06088 0,5.71429 0.21296,0.63887 1.1274,0.82623 1.42857,1.42857 0.21296,0.42592 -0.21296,1.00265 0,1.42857 0.30117,0.60234 1.12741,0.82623 1.42857,1.42857 0.42592,0.85184 -0.67343,2.18371 0,2.85714 0.33672,0.33672 1.09186,-0.33671 1.42858,0 0.44235,0.44236 -0.44236,6.70051 0,7.14286 0.33671,0.33672 1.09185,-0.33672 1.42857,0 0.34376,0.34376 -0.34376,5.37053 0,5.71429 0.33671,0.33671 1.09185,-0.33672 1.42857,0 0.34376,0.34376 -0.34376,5.37052 0,5.71428 0.33672,0.33672 1.09185,-0.33671 1.42857,0 0.50146,0.50146 -0.49338,6.1561 0,7.14286 0.30117,0.60234 1.1274,0.82623 1.42857,1.42857 0.21296,0.42592 -0.33672,1.09186 0,1.42857 0.33672,0.33672 1.09186,-0.33671 1.42857,0 0.67344,0.67344 -0.67343,2.18371 0,2.85715 0.33672,0.33671 1.09186,-0.33672 1.42857,0 0.71429,0.71428 -0.71428,3.57142 0,4.28571 0.33672,0.33672 1.09186,-0.33672 1.42858,0 0.34375,0.34376 -0.34376,5.37053 0,5.71429 0.33671,0.33671 1.09185,-0.33672 1.42857,0 0.44235,0.44235 -0.44236,6.7005 0,7.14285 0.33671,0.33672 1.09185,-0.33671 1.42857,0 0.71428,0.71429 -0.71429,3.57143 0,4.28572 0.33672,0.33671 1.09185,-0.33672 1.42857,0 0.34376,0.34376 -0.34376,5.37052 0,5.71428 0.33672,0.33672 1.09185,-0.33671 1.42857,0 0.0459,0.046 0,3.93925 0,4.28572"
       id="path5471"
       inkscape:connector-curvature="0" />
    <path
       style="fill:none;stroke:#000000;stroke-width:1px;stroke-linecap:butt;stroke-linejoin:miter;stroke-opacity:1"
       d="m 330,480.93361 c -3.58444,-1.56199 -6.41795,-1.42857 -10,-1.42857 -0.47619,0 -1.09185,-0.33672 -1.42857,0 -0.67344,0.67343 0.67343,2.18371 0,2.85714 -0.33672,0.33672 -1.09186,-0.33672 -1.42857,0 -0.046,0.046 0,3.93925 0,4.28572 0,1.01257 -0.18468,8.20207 0,8.57143 0.30117,0.60233 1.1274,0.82623 1.42857,1.42857 0.21296,0.42591 -0.33672,1.09185 0,1.42857 0.33672,0.33672 1.09185,-0.33672 1.42857,0 0.75292,0.75292 0.83793,1.97118 1.42857,2.85714 0.37356,0.56033 0.95238,0.95238 1.42857,1.42857 0.47619,0.47619 0.82624,1.1274 1.42857,1.42857 4.20402,2.10201 -1.88083,-3.3094 2.85715,1.42858 2.07399,2.07399 1.54648,1.42857 4.28571,1.42857 0.47619,0 1.09186,0.33671 1.42857,0 0.67344,-0.67344 -0.67343,-2.18371 0,-2.85715 0.33672,-0.33671 1.09186,0.33672 1.42857,0 0.67344,-0.67343 -0.30116,-1.95363 0,-2.85714 0.33672,-1.01015 1.09186,-1.84699 1.42858,-2.85714 0.15058,-0.45176 -0.15059,-0.97682 0,-1.42857 0.33671,-1.01016 1.09185,-1.84699 1.42857,-2.85715 0.32754,-0.98261 -0.42145,-3.44282 0,-4.28571 0.30117,-0.60234 1.1274,-0.82623 1.42857,-1.42857 0.42592,-0.85184 -0.67344,-2.18371 0,-2.85714 0.33672,-0.33672 1.09185,0.33671 1.42857,0 0.33672,-0.33672 -0.33672,-1.09186 0,-1.42858 0.33672,-0.33671 1.09185,0.33672 1.42857,0 0.98526,-0.98525 -1.05664,-2.67118 -1.42857,-2.85714 -0.42592,-0.21296 -1.09185,0.33672 -1.42857,0 -0.33672,-0.33672 0.33672,-1.09185 0,-1.42857 -0.33672,-0.33672 -1.09186,0.33672 -1.42857,0 -0.33672,-0.33672 0.33671,-1.09185 0,-1.42857 -0.33672,-0.33672 -0.98644,-0.17685 -1.42857,0 -1.97728,0.79091 -3.80953,1.90476 -5.71429,2.85714 z"
       id="path5483"
       inkscape:connector-curvature="0" />
    <path
       style="fill:none;stroke:#000000;stroke-width:1px;stroke-linecap:butt;stroke-linejoin:miter;stroke-opacity:1"
       d="m 431.42857,808.07647 c -1.90476,-0.47619 -3.80952,-0.95238 -5.71428,-1.42857 -0.47619,-0.47619 -0.7897,-1.21562 -1.42858,-1.42857 -1.28195,-0.90351 -2.93045,0.45175 -4.28571,0 -1.01015,-0.33672 -1.84699,-1.09186 -2.85714,-1.42858 -0.45176,-0.15058 -0.97682,0.15059 -1.42857,0 -1.01016,-0.33671 -1.82414,-1.17032 -2.85715,-1.42857 -1.47984,-0.36996 -4.07619,0 -5.71428,0 -0.47619,0 -1.09186,-0.33672 -1.42857,0 0,3.80953 0.47619,-0.47619 -1.42858,1.42857 -0.33671,0.33672 0.33672,1.09186 0,1.42858 -0.33671,0.33671 -1.09185,-0.33672 -1.42857,0 -0.71428,0.71428 0.71429,3.57142 0,4.28571 -0.33671,0.33672 -1.09185,-0.33672 -1.42857,0 -0.33672,0.33672 0,0.95238 0,1.42857 0,0.99363 -0.25831,6.62624 0,7.14286 0.60234,1.20468 2.25481,1.65246 2.85714,2.85714 0.21296,0.42592 -0.21295,1.00265 0,1.42857 0.30117,0.60234 0.95239,0.95238 1.42858,1.42857 0.47619,0.47619 0.95238,0.95238 1.42857,1.42858 0.64337,0.64336 3.63357,4.06833 4.28571,4.28571 0.90351,0.30117 1.9332,-0.23099 2.85714,0 1.03301,0.25825 1.82415,1.17032 2.85715,1.42857 1.84789,0.46197 3.86639,-0.46197 5.71428,0 1.03301,0.25825 1.84699,1.09185 2.85715,1.42857 0.80599,0.26867 3.34699,0 4.28571,0 0.47619,0 1.09185,0.33672 1.42857,0 0.71429,-0.71428 -0.71428,-3.57143 0,-4.28571 0.33672,-0.33672 1.09186,0.33672 1.42857,0 0.71429,-0.71429 -0.71428,-3.57143 0,-4.28572 0.33672,-0.33671 1.09186,0.33672 1.42857,0 0.71429,-0.71428 -0.71428,-3.57142 0,-4.28571 0.33672,-0.33672 1.09186,0.33672 1.42858,0 0.14285,-0.14286 0.14285,-4.14286 0,-4.28571 -0.33672,-0.33672 -0.95239,0 -1.42858,0 -0.95238,-2.38096 -1.90476,-4.76191 -2.85714,-7.14286 z"
       id="path5485"
       inkscape:connector-curvature="0" />
    <path
       style="fill:none;stroke:#000000;stroke-width:1px;stroke-linecap:butt;stroke-linejoin:miter;stroke-opacity:1"
       d="m 365.71429,413.79075 c -3.09732,-2.64784 -5.81315,-7.17581 -10,-8.57142 -0.45176,-0.15059 -0.97682,0.15058 -1.42858,0 -1.01015,-0.33672 -1.84699,-1.09186 -2.85714,-1.42858 -0.45175,-0.15058 -1.00265,0.21296 -1.42857,0 -0.60234,-0.30117 -0.78969,-1.21561 -1.42857,-1.42857 -0.90351,-0.30117 -1.95364,0.30117 -2.85714,0 -0.63888,-0.21296 -0.82624,-1.1274 -1.42858,-1.42857 -0.85183,-0.42592 -2.1837,0.67344 -2.85714,0 -0.33672,-0.33672 0.33672,-1.09185 0,-1.42857 -0.33672,-0.33672 -0.95238,0 -1.42857,0 -0.47619,0 -0.95238,0 -1.42857,0 -4.28572,0 -8.57143,0 -12.85714,0 -2.38096,0 -4.76191,0 -7.14286,0 -0.47619,0 -1.09186,-0.33672 -1.42857,0 -0.33672,0.33672 0.42592,1.21561 0,1.42857 -2.85715,1.42857 -2.14286,-0.71428 -4.28572,0 -6.63221,3.31611 0.82228,0.12126 -5.71428,1.42857 -1.47661,0.29532 -2.82483,1.06335 -4.28572,1.42857 -0.46197,0.1155 -0.97681,-0.15058 -1.42857,0 -1.01015,0.33672 -1.82414,1.17032 -2.85714,1.42858 -0.92395,0.23098 -1.9332,-0.23099 -2.85714,0 -1.03301,0.25825 -1.81303,1.21974 -2.85715,1.42857 -1.40083,0.28016 -2.88488,-0.28017 -4.28571,0 -1.04412,0.20882 -1.84699,1.09185 -2.85714,1.42857 -0.45176,0.15058 -0.97682,-0.15059 -1.42858,0 -1.01015,0.33672 -1.82414,1.17032 -2.85714,1.42857 -0.92394,0.23099 -1.9332,-0.23099 -2.85714,0 -1.033,0.25825 -1.84699,1.09185 -2.85714,1.42857 -0.45176,0.15059 -0.95239,0 -1.42858,0 -0.95238,0.47619 -1.84699,1.09185 -2.85714,1.42857 -0.45175,0.15059 -1.00265,-0.21296 -1.42857,0 -1.20468,0.60234 -1.57939,2.43123 -2.85714,2.85715 -0.90351,0.30116 -1.95364,-0.30117 -2.85715,0 -1.27775,0.42591 -1.65246,2.2548 -2.85714,2.85714 -0.42592,0.21296 -1.09185,-0.33672 -1.42857,0 -0.33672,0.33672 0.33672,1.09185 0,1.42857 -0.33672,0.33672 -1.09185,-0.33672 -1.42857,0 -0.33672,0.33672 0.33672,1.09185 0,1.42857 -0.33672,0.33672 -1.09186,-0.33672 -1.42857,0 -0.33672,0.33672 0.21296,1.00265 0,1.42857 -0.30117,0.60234 -1.1274,0.82624 -1.42857,1.42857 -0.21296,0.42592 0.33671,1.09186 0,1.42858 -0.33672,0.33671 -1.09186,-0.33672 -1.42858,0 -0.67343,0.67343 0.67344,2.1837 0,2.85714 -0.33671,0.33672 -1.09185,-0.33672 -1.42857,0 -0.33671,0.33672 0.21296,1.00265 0,1.42857 -0.30117,0.60234 -1.1274,0.82623 -1.42857,1.42857 -0.21296,0.42592 0.21296,1.00265 0,1.42857 -0.30117,0.60234 -1.1274,0.82624 -1.42857,1.42857 -0.21296,0.42592 0.21296,1.00266 0,1.42858 -0.30117,0.60233 -1.1274,0.82623 -1.42857,1.42857 -0.21296,0.42591 0.21296,1.00265 0,1.42857 -0.30117,0.60234 -1.1274,0.82623 -1.42857,1.42857 -0.42592,0.85183 0.67343,2.18371 0,2.85714 -0.33672,0.33672 -1.09186,-0.33672 -1.42857,0 -0.33672,0.33672 0.21295,1.00266 0,1.42857 -0.30117,0.60234 -1.12741,0.82624 -1.42858,1.42858 -0.42591,0.85183 0.42592,2.0053 0,2.85714 -0.30116,0.60234 -1.1274,0.82623 -1.42857,1.42857 -0.21296,0.42592 0.33672,1.09185 0,1.42857 -0.33671,0.33672 -1.09185,-0.33672 -1.42857,0 -0.67343,0.67344 0.67344,2.18371 0,2.85714 -0.33672,0.33672 -1.09185,-0.33671 -1.42857,0 -0.29205,0.29206 0.28321,3.7193 0,4.28572 -0.30117,0.60234 -1.1274,0.82623 -1.42857,1.42857 -0.21296,0.42592 0.21296,1.00265 0,1.42857 -0.30117,0.60234 -1.21561,0.7897 -1.42857,1.42857 -0.21781,0.65341 0.31784,5.07861 0,5.71429 -0.30117,0.60234 -1.1274,0.82623 -1.42857,1.42857 -0.21296,0.42592 0,0.95238 0,1.42857 0,1.22619 0.2786,7.7356 0,8.57143 -0.21296,0.63888 -1.21562,0.78969 -1.42858,1.42857 -0.21798,0.65395 0,6.34549 0,7.14286 0,3.80952 0,7.61905 0,11.42857 0,5.71429 0,11.42857 0,17.14286 0,0.98646 -0.21716,5.27995 0,5.71428 0.30117,0.60234 1.12741,0.82624 1.42858,1.42857 0.42591,0.85184 -0.42592,2.00531 0,2.85715 0.60233,1.20467 2.43122,1.57939 2.85714,2.85714 0.30117,0.90351 -0.30117,1.95363 0,2.85714 0.21296,0.63888 1.1274,0.82624 1.42857,1.42857 0.21296,0.42592 -0.21296,1.00266 0,1.42858 0.30117,0.60233 0.95238,0.95238 1.42857,1.42857 1.11584,1.11583 3.46391,3.053 4.28572,4.28571 0.59064,0.88596 0.83793,1.97118 1.42857,2.85714 0.37355,0.56034 0.95238,0.95238 1.42857,1.42858 0.47619,0.47619 0.86824,1.05501 1.42857,1.42857 0.88596,0.59064 2.10422,0.67564 2.85714,1.42857 0.75293,0.75292 0.83793,1.97118 1.42857,2.85714 0.37356,0.56033 0.95239,0.95238 1.42858,1.42857 0.47619,0.47619 0.86824,1.05502 1.42857,1.42857 0.88596,0.59065 1.97118,0.83793 2.85714,1.42858 1.681,1.12066 2.66947,3.07353 4.28571,4.28571 0.85184,0.63888 1.97118,0.83793 2.85715,1.42857 0.56033,0.37356 0.86824,1.05502 1.42857,1.42857 0.88596,0.59064 1.97118,0.83793 2.85714,1.42857 1.12067,0.74711 1.73648,2.11004 2.85714,2.85715 6.23935,4.15956 -0.47088,-0.63315 5.71429,1.42857 0.63888,0.21296 0.95238,0.95238 1.42857,1.42857 0.95238,0.47619 1.82414,1.17032 2.85714,1.42857 0.92395,0.23099 1.9332,-0.23099 2.85715,0 2.58563,-0.86104 2.65689,2.3142 4.28571,2.85714 1.35526,0.45176 2.93045,-0.45175 4.28572,0 1.01015,0.33672 1.84699,1.09186 2.85714,1.42858 1.14985,0.38328 4.8014,-0.45645 5.71428,0 0.60234,0.30116 0.82624,1.1274 1.42858,1.42857 0.40886,0.20443 6.37969,0 7.14285,0 5.71429,0 11.42857,0 17.14286,0 7.61905,0 15.2381,0 22.85714,0 2.38096,0 4.76191,0 7.14286,0 0.95238,0 1.9332,0.23098 2.85714,0 1.03301,-0.25825 1.82414,-1.17032 2.85715,-1.42857 1.38591,-0.34648 2.93045,0.45175 4.28571,0 10.34774,-3.44925 -2.2523,0.41186 4.28571,-2.85715 0.42592,-0.21296 1.00266,0.21296 1.42858,0 0.60233,-0.30117 0.82623,-1.1274 1.42857,-1.42857 0.42592,-0.21296 1.00265,0.21296 1.42857,0 3.15865,-1.57932 0.44332,-0.88663 1.42857,-2.85714 0.60234,-1.20468 2.11003,-1.73648 2.85714,-2.85714 3.14738,-0.71942 0.75514,-2.93885 1.42857,-4.28572 0.30117,-0.60234 1.05502,-0.86824 1.42858,-1.42857 0.59064,-0.88596 0.83793,-1.97118 1.42857,-2.85714 0.37355,-0.56034 1.21561,-0.7897 1.42857,-1.42857 0.30117,-0.90351 -0.23099,-1.9332 0,-2.85715 0.83443,-3.33771 3.13084,-3.67824 4.28571,-7.14285 0.30117,-0.90351 -0.30117,-1.95364 0,-2.85715 0.33672,-1.01015 1.09186,-1.84699 1.42857,-2.85714 0.30117,-0.90351 -0.30116,-1.95364 0,-2.85714 0.33672,-1.01016 1.09186,-1.84699 1.42858,-2.85715 0.15058,-0.45175 -0.21296,-1.00265 0,-1.42857 0.30117,-0.60234 1.21561,-0.78969 1.42857,-1.42857 0.30117,-0.90351 -0.30117,-1.95363 0,-2.85714 0.21296,-0.63888 1.21561,-0.7897 1.42857,-1.42857 0.30117,-0.90351 -0.23099,-1.9332 0,-2.85715 0.25825,-1.033 1.09185,-1.84699 1.42857,-2.85714 0.15058,-0.45175 0,-0.95238 0,-1.42857 0,-2.85714 0,-5.71429 0,-8.57143 0,-0.95238 -0.23099,-1.9332 0,-2.85714 0.25825,-1.033 1.17032,-1.82414 1.42857,-2.85714 0.2716,-1.08639 0,-5.94659 0,-7.14286 0,-4.76191 0,-9.52381 0,-14.28572 0,-3.80952 0,-7.61904 0,-11.42857 0,-1.23798 0.27585,-4.88675 0,-5.71428 -0.33672,-1.01016 -1.09185,-1.84699 -1.42857,-2.85715 -0.15058,-0.45175 0,-0.95238 0,-1.42857 0,-1.22618 0.27861,-7.7356 0,-8.57143 -0.21296,-0.63887 -1.21561,-0.78969 -1.42857,-1.42857 -0.30117,-0.90351 0,-1.90476 0,-2.85714 0,-0.47619 0.21296,-1.00265 0,-1.42857 -0.30117,-0.60234 -1.21561,-0.7897 -1.42857,-1.42857 -0.30117,-0.90351 0.30117,-1.95364 0,-2.85715 -0.21296,-0.63887 -1.1274,-0.82623 -1.42857,-1.42857 -0.21296,-0.42592 0,-0.95238 0,-1.42857 -0.47619,-0.47619 -1.12741,-0.82623 -1.42858,-1.42857 -0.42591,-0.85184 0.67344,-2.18371 0,-2.85714 -2.95576,-2.95577 0.11555,4.5168 -2.85714,-1.42857 -0.21296,-0.42592 0.21296,-1.00266 0,-1.42858 -0.30117,-0.60233 -1.1274,-0.82623 -1.42857,-1.42857 -0.21296,-0.42592 0.21296,-1.00265 0,-1.42857 -2.97269,-5.94537 0.0986,1.52719 -2.85714,-1.42857 -0.33672,-0.33672 0.33671,-1.09185 0,-1.42857 -0.33672,-0.33672 -1.09186,0.33672 -1.42857,0 -0.33672,-0.33672 0.33671,-1.09186 0,-1.42857 -0.29206,-0.29206 -3.7193,0.28321 -4.28572,0 -0.60234,-0.30117 -0.82623,-1.12741 -1.42857,-1.42857 -0.42592,-0.21296 -0.95238,0 -1.42857,0 -0.47619,0 -0.95238,0 -1.42857,0"
       id="path5487"
       inkscape:connector-curvature="0" />
    <path
       style="fill:none;stroke:#000000;stroke-width:1px;stroke-linecap:butt;stroke-linejoin:miter;stroke-opacity:1"
       d="m 501.42857,759.50504 c -6.02127,-1.14528 -0.34269,-4.97109 -1.42857,-7.14286 -0.30117,-0.60234 -1.1274,-0.82623 -1.42857,-1.42857 -0.21296,-0.42592 0.21296,-1.00265 0,-1.42857 -0.30117,-0.60234 -1.1274,-0.82623 -1.42857,-1.42857 -0.21296,-0.42592 0.21296,-1.00266 0,-1.42857 -0.30117,-0.60234 -0.95238,-0.95238 -1.42857,-1.42857 -0.47619,-0.4762 -0.86824,-1.05502 -1.42858,-1.42858 -0.88596,-0.59064 -1.97118,-0.83793 -2.85714,-1.42857 -0.56033,-0.37355 -0.86824,-1.05501 -1.42857,-1.42857 -0.88596,-0.59064 -1.97118,-0.83793 -2.85714,-1.42857 -0.56033,-0.37355 -0.86824,-1.05502 -1.42857,-1.42857 -4.09744,-2.73163 -4.47399,-0.12552 -8.57143,-2.85714 -0.56033,-0.37356 -0.95238,-0.95239 -1.42857,-1.42858 -0.95238,-0.47619 -1.97118,-0.83793 -2.85715,-1.42857 -0.56033,-0.37355 -0.78969,-1.21561 -1.42857,-1.42857 -0.90351,-0.30117 -1.9332,0.23099 -2.85714,0 -1.033,-0.25825 -1.86851,-1.03312 -2.85714,-1.42857 -1.39815,-0.55926 -2.88757,-0.86931 -4.28572,-1.42857 -0.98863,-0.39546 -1.82414,-1.17032 -2.85714,-1.42857 -0.92395,-0.23099 -1.92326,0.18677 -2.85714,0 -1.47661,-0.29532 -2.80911,-1.13325 -4.28572,-1.42857 -0.93388,-0.18678 -1.9332,0.23098 -2.85714,0 -1.033,-0.25826 -1.81303,-1.21975 -2.85714,-1.42858 -2.33472,-0.46694 -4.76191,0 -7.14286,0 -0.95238,0 -1.9332,0.23099 -2.85714,0 -1.03301,-0.25825 -1.84699,-1.09185 -2.85715,-1.42857 -0.82753,-0.27584 -4.47631,0 -5.71428,0 -3.80953,0 -7.61905,0 -11.42857,0 -1.48561,0 -7.44769,-0.28093 -8.57143,0 -1.033,0.25825 -1.84699,1.09186 -2.85715,1.42857 -0.45175,0.15059 -1.00265,-0.21295 -1.42857,0 -4.35651,2.17826 2.61278,1.13252 -4.28571,2.85715 -0.92395,0.23098 -1.95364,-0.30117 -2.85714,0 -0.63888,0.21296 -0.86824,1.05501 -1.42858,1.42857 -0.91038,0.60692 -7.64479,4.05405 -8.57142,4.28571 -0.92395,0.23099 -1.95364,-0.30117 -2.85715,0 -0.63887,0.21296 -0.86824,1.05502 -1.42857,1.42857 -0.88596,0.59065 -1.97118,0.83793 -2.85714,1.42858 -1.12066,0.7471 -1.90476,1.90476 -2.85714,2.85714 -0.47619,0.47619 -0.95239,0.95238 -1.42858,1.42857 -0.47619,0.47619 -0.78969,1.21561 -1.42857,1.42857 -0.9035,0.30117 -1.95363,-0.30117 -2.85714,0 -0.56345,0.18782 -4.96726,4.96726 -5.71429,5.71429 -1.11583,1.11583 -3.4639,3.053 -4.28571,4.28571 -0.59064,0.88596 -0.83793,1.97118 -1.42857,2.85714 -0.37356,0.56034 -1.1274,0.82624 -1.42857,1.42858 -0.21296,0.42591 0.21296,1.00265 0,1.42857 -0.30117,0.60234 -1.1274,0.82623 -1.42857,1.42857 -0.21296,0.42592 0.21295,1.00265 0,1.42857 -0.30117,0.60234 -1.12741,0.82623 -1.42858,1.42857 -0.21295,0.42592 0.21296,1.00265 0,1.42857 -0.30116,0.60234 -1.1274,0.82624 -1.42857,1.42857 -0.42591,0.85184 0.42592,2.00531 0,2.85715 -0.30117,0.60234 -0.95238,0.95238 -1.42857,1.42857 0,0.95238 0.30117,1.95363 0,2.85714 -0.21296,0.63888 -1.1274,0.82623 -1.42857,1.42857 -0.42592,0.85184 0.30117,1.95364 0,2.85715 -0.33672,1.01015 -1.09185,1.84699 -1.42857,2.85714 -0.30117,0.90351 0.42592,2.00531 0,2.85714 -0.30117,0.60234 -1.21561,0.7897 -1.42857,1.42857 -1.42303,4.26908 0.86962,1.67684 0,4.28572 -0.33672,1.01015 -1.09186,1.84699 -1.42857,2.85714 -0.42858,1.28571 0.42857,3 0,4.28571 -0.21296,0.63888 -1.21562,0.7897 -1.42858,1.42858 -0.30116,0.9035 0.30117,1.95363 0,2.85714 -0.21295,0.63887 -1.21561,0.78969 -1.42857,1.42857 -0.71428,2.14286 0.71429,5 0,7.14286 -0.21296,0.63887 -1.1274,0.82623 -1.42857,1.42857 -0.21296,0.42592 0,0.95238 0,1.42857 0,0.95238 0,1.90476 0,2.85714 0,3.33334 0,6.66667 0,10 0,0.33947 -0.16009,5.3941 0,5.71429 0.30117,0.60234 1.1274,0.82623 1.42857,1.42857 0.42592,0.85184 -0.42591,2.00531 0,2.85714 0.30117,0.60234 1.12741,0.82624 1.42857,1.42857 0.21296,0.42592 -0.15058,0.97682 0,1.42858 0.33672,1.01015 1.09186,1.84699 1.42858,2.85714 0.15058,0.45175 -0.21296,1.00265 0,1.42857 0.60233,1.20468 2.2548,1.65247 2.85714,2.85714 0.21296,0.42592 -0.21296,1.00266 0,1.42857 4.73797,4.73798 -0.67344,-1.34687 1.42857,2.85715 0.30117,0.60234 0.95238,0.95238 1.42857,1.42857 0.84021,0.8402 5.38352,5.05274 5.71429,5.71428 0.21296,0.42592 -0.21296,1.00266 0,1.42858 0.30117,0.60233 0.95238,0.95238 1.42857,1.42857 1.11584,1.11583 3.4639,3.053 4.28571,4.28571 0.59064,0.88596 0.83793,1.97118 1.42857,2.85714 0.37356,0.56034 0.95239,0.95238 1.42858,1.42858 0.95238,0.95238 1.90476,1.90476 2.85714,2.85714 4.36946,4.36946 -2.63325,-2.33208 4.28571,2.85714 1.0775,0.80812 1.77965,2.04902 2.85715,2.85714 0.85183,0.63888 2.0053,0.7897 2.85714,1.42858 1.07749,0.80812 1.77965,2.04902 2.85714,2.85714 1.70367,1.27775 4.01062,1.57939 5.71429,2.85714 1.07749,0.80812 1.70221,2.16419 2.85714,2.85714 1.29125,0.77476 2.93884,0.75514 4.28571,1.42858 1.53567,0.76783 2.70761,2.18081 4.28572,2.85714 1.80463,0.77341 3.87591,0.73918 5.71428,1.42857 1.994,0.74775 3.72029,2.10939 5.71429,2.85714 3.67675,1.37878 7.65289,1.77838 11.42857,2.85715 2.89582,0.82737 5.77514,1.73862 8.57143,2.85714 0.98864,0.39545 1.82414,1.17032 2.85714,1.42857 0.92395,0.23099 1.9332,-0.23099 2.85715,0 1.033,0.25825 1.82414,1.17032 2.85714,1.42857 0.92394,0.23099 1.90476,0 2.85714,0 2.38095,0 4.76191,0 7.14286,0 0.74703,0 5.33865,0.18782 5.71428,0 1.20468,-0.60234 1.65247,-2.2548 2.85715,-2.85714 0.42592,-0.21296 1.00265,0.21296 1.42857,0 0.60234,-0.30117 0.95238,-0.95238 1.42857,-1.42857 1.42857,-1.42857 2.85714,-2.85715 4.28571,-4.28572 0.4762,-0.47619 0.86824,-1.05501 1.42858,-1.42857 0.88596,-0.59064 1.97118,-0.83793 2.85714,-1.42857 1.81866,-1.21244 3.95401,-4.39408 5.71428,-5.71429 0.85184,-0.63887 1.97119,-0.83793 2.85715,-1.42857 1.64835,-1.0989 2.63736,-3.18681 4.28571,-4.28571 0.88596,-0.59064 1.97118,-0.83793 2.85714,-1.42857 1.12067,-0.74711 1.73648,-2.11004 2.85715,-2.85715 0.2661,-0.1774 5.62274,-2.7656 5.71428,-2.85714 0.75293,-0.75292 0.67565,-2.10422 1.42857,-2.85714 0.98453,-0.98453 7.00016,-3.2382 8.57143,-4.28572 0.56033,-0.37355 0.95238,-0.95238 1.42857,-1.42857 0.95239,-0.95238 2.04903,-1.77964 2.85715,-2.85714 0.63887,-0.85184 0.83793,-1.97118 1.42857,-2.85714 0.37355,-0.56034 1.05502,-0.86824 1.42857,-1.42857 0.59064,-0.88597 0.83793,-1.97119 1.42857,-2.85715 0.37356,-0.56033 1.05502,-0.86824 1.42857,-1.42857 0.59064,-0.88596 0.83793,-1.97118 1.42857,-2.85714 0.74711,-1.12067 2.11004,-1.73648 2.85715,-2.85714 0.59064,-0.88597 0.83793,-1.97119 1.42857,-2.85715 0.37355,-0.56033 1.21561,-0.78969 1.42857,-1.42857 0.30117,-0.90351 -0.23099,-1.9332 0,-2.85714 0.25825,-1.033 1.09185,-1.84699 1.42857,-2.85714 0.15059,-0.45176 -0.15058,-0.97682 0,-1.42858 0.33672,-1.01015 1.17032,-1.82414 1.42857,-2.85714 0.23099,-0.92394 -0.23098,-1.9332 0,-2.85714 0.25825,-1.033 1.17032,-1.82414 1.42857,-2.85714 0.46198,-1.8479 -0.37355,-3.84652 0,-5.71429 0.29533,-1.4766 1.13326,-2.80911 1.42858,-4.28571 0.18677,-0.93389 -0.23099,-1.9332 0,-2.85715 0.25825,-1.033 1.17032,-1.82414 1.42857,-2.85714 0.23098,-0.92395 0,-1.90476 0,-2.85714 0,-0.95238 0,-1.90477 0,-2.85715 0,-4.28571 0,-8.57142 0,-12.85714 0,-2.38095 0,-4.7619 0,-7.14286 0,-0.95238 0,-1.90476 0,-2.85714 0,-0.47619 0.21296,-1.00265 0,-1.42857 -0.30117,-0.60234 -1.1274,-0.82623 -1.42857,-1.42857 -0.21296,-0.42592 0.21295,-1.00266 0,-1.42857 -3.26901,-6.53801 0.5921,6.06202 -2.85715,-4.28572 -0.15058,-0.45175 0.21296,-1.00265 0,-1.42857 -0.60234,-1.20468 -2.2548,-1.65246 -2.85714,-2.85714 -0.42592,-0.85184 0.67344,-2.18371 0,-2.85714 -0.33672,-0.33672 -1.09185,0.33671 -1.42857,0 -1.40925,-1.40926 2.92725,-2.85715 -1.42857,-2.85715"
       id="path5489"
       inkscape:connector-curvature="0" />
    <path
       style="fill:none;stroke:#000000;stroke-width:1px;stroke-linecap:butt;stroke-linejoin:miter;stroke-opacity:1"
       d="m 387.14286,485.21933 c -8.62315,-0.73006 0.28836,5.42592 -1.42857,7.14285 -0.33672,0.33672 -1.09186,-0.33672 -1.42858,0 -0.67343,0.67344 0.67344,2.18371 0,2.85715 -0.33671,0.33671 -1.09185,-0.33672 -1.42857,0 -0.95522,0.95522 0.95523,1.90191 0,2.85714 -0.33671,0.33672 -1.09185,-0.33672 -1.42857,0 -0.33672,0.33672 0.33672,1.09185 0,1.42857 C 379.52381,501.4098 380,497.12409 380,500.93361"
       id="path5491"
       inkscape:connector-curvature="0" />
    <path
       style="fill:none;stroke:#000000;stroke-width:1px;stroke-linecap:butt;stroke-linejoin:miter;stroke-opacity:1"
       d="m 371.42857,485.21933 c 1.90476,0.95238 4.01062,1.57938 5.71429,2.85714 0.38095,0.28571 -0.33672,1.09185 0,1.42857 0.33671,0.33672 1.09185,-0.33672 1.42857,0 0.33672,0.33672 -0.33672,1.09185 0,1.42857 0.67343,0.67344 2.18371,-0.67343 2.85714,0 0.33672,0.33672 -0.33672,1.09185 0,1.42857 0.67344,0.67344 2.18371,-0.67343 2.85714,0 0.33672,0.33672 -0.33671,1.09186 0,1.42857 0.33672,0.33672 1.09186,-0.33671 1.42858,0 0.33671,0.33672 -0.33672,1.09186 0,1.42858 0.33671,0.33671 1.09185,-0.33672 1.42857,0 0.33671,0.33671 -0.33672,1.09185 0,1.42857 0.33671,0.33671 1.09185,-0.33672 1.42857,0 0.33672,0.33671 -0.33672,1.09185 0,1.42857 0.67343,0.67343 2.18371,-0.67344 2.85714,0 1.90476,1.90476 -2.38095,1.42857 1.42857,1.42857"
       id="path5493"
       inkscape:connector-curvature="0" />
    <path
       style="fill:none;stroke:#000000;stroke-width:1px;stroke-linecap:butt;stroke-linejoin:miter;stroke-opacity:1"
       d="m 394.28571,853.79075 c -1.66026,3.91309 -1.42857,7.41872 -1.42857,11.42858 0,0.47619 0.33672,1.09185 0,1.42857 -0.33671,0.33671 -1.09185,-0.33672 -1.42857,0 -0.71428,0.71428 0.71429,3.57143 0,4.28571 -0.33672,0.33672 -1.09185,-0.33672 -1.42857,0 -0.67343,0.67344 0.42592,2.00531 0,2.85714 -0.30117,0.60234 -1.1274,0.82624 -1.42857,1.42858 -0.21296,0.42591 0.47619,1.42857 0,1.42857 -0.47619,0 0.33672,-1.09186 0,-1.42857 -0.33672,-0.33672 -0.95238,0 -1.42857,0"
       id="path5495"
       inkscape:connector-curvature="0" />
    <path
       style="fill:none;stroke:#000000;stroke-width:1px;stroke-linecap:butt;stroke-linejoin:miter;stroke-opacity:1"
       d="m 381.42857,859.50504 c -3.13546,14.38835 5.17948,2.32233 7.14286,4.28571 0.33672,0.33672 -0.33672,1.09186 0,1.42858 0.33672,0.33671 1.00265,-0.21296 1.42857,0 0.60234,0.30116 0.82623,1.1274 1.42857,1.42857 0.42592,0.21296 1.09186,-0.33672 1.42857,0 0.33672,0.33671 -0.33671,1.09185 0,1.42857 0.33672,0.33672 1.09186,-0.33672 1.42857,0 0.33672,0.33672 -0.33671,1.09185 0,1.42857 0.33672,0.33672 1.09186,-0.33672 1.42858,0 0.33671,0.33672 -0.33672,1.09185 0,1.42857 0.67343,0.67344 2.1837,-0.67343 2.85714,0 0.33672,0.33672 -0.33672,1.09186 0,1.42857 0.95049,0.9505 1.90665,-0.95049 2.85714,0 0.33672,0.33672 -0.33672,1.09186 0,1.42857 0.33672,0.33672 1.09186,-0.33671 1.42857,0 0.33672,0.33672 -0.33671,1.09186 0,1.42858 0.33672,0.33671 1.09186,-0.33672 1.42857,0 1.90477,1.90476 -2.38095,1.42857 1.42858,1.42857"
       id="path5497"
       inkscape:connector-curvature="0" />
    <path
       style="fill:none;stroke:#000000;stroke-width:1px;stroke-linecap:butt;stroke-linejoin:miter;stroke-opacity:1"
       d="m 381.42857,489.50504 c 4.25918,1.3755 -1.06479,5.01327 0,7.14286 0.30117,0.60234 1.1274,0.82623 1.42857,1.42857 0.21296,0.42592 0,0.95238 0,1.42857 0,0.47619 0,0.95238 0,1.42857 0,1.21199 -0.23695,7.62362 0,8.57143 0.25825,1.033 1.09186,1.84699 1.42857,2.85714 0.15059,0.45176 0,0.95238 0,1.42857 0,0.79737 -0.21798,6.48891 0,7.14286 0.21296,0.63888 1.12741,0.82623 1.42858,1.42857 0.25831,0.51662 0,6.14923 0,7.14286 0,6.66667 0,13.33333 0,20 0,15.71429 0,31.42857 0,47.14286 0,7.14285 0,14.28571 0,21.42857 0,2.38095 0,4.7619 0,7.14286 0,0.47619 0,0.95238 0,1.42857 0,0.47619 0.21295,1.00265 0,1.42857 -0.30117,0.60234 -1.12741,0.82623 -1.42858,1.42857 -0.25831,0.51662 0,6.14923 0,7.14286 0,6.19047 0,12.38095 0,18.57143 0,0.52462 0.0575,5.65679 0,5.71428 -0.33671,0.33672 -1.09185,-0.33672 -1.42857,0 -0.0459,0.0459 0,3.93925 0,4.28572 0,8.09523 0,16.19047 0,24.28571 0,10.95238 0,21.90476 0,32.85714 0,3.33334 0,6.66667 0,10 0,0.64337 -0.21738,3.85095 0,4.28572 0.30117,0.60234 1.21562,0.78969 1.42857,1.42857 0.45176,1.35526 0,2.85714 0,4.28571 0,2.38095 0,4.76191 0,7.14286 0,6.66667 0,13.33333 0,20 0,1.01257 -0.18467,8.20207 0,8.57143 0.30117,0.60234 1.12741,0.82623 1.42858,1.42857 0.21295,0.42592 0,0.95238 0,1.42857 0,0.47619 0,0.95238 0,1.42857 0,2.85715 0,5.71429 0,8.57143 0,0.95238 0,1.90476 0,2.85714 0,0.47619 -0.15059,0.97682 0,1.42858 0.33671,1.01015 1.09185,1.84699 1.42857,2.85714 0.15058,0.45175 0,0.95238 0,1.42857 0,0.95238 0,1.90476 0,2.85714 0,2.85715 0,5.71429 0,8.57143 0,0.48668 -0.25772,4.94113 0,5.71429 0.33671,1.01015 1.09185,1.84699 1.42857,2.85714 0.30999,0.92999 0,8.804 0,10 0,0.47619 0,0.95238 0,1.42857 0,0.47619 -0.21296,1.00265 0,1.42857 0.30117,0.60234 1.1274,0.82624 1.42857,1.42857 0.25831,0.51662 0,6.14923 0,7.14286 0,5.2381 0,10.47619 0,15.71429 0,0.67357 0.0648,7.07811 0,7.14285 -0.33672,0.33672 -1.09185,-0.33671 -1.42857,0 -0.33672,0.33672 0,0.95238 0,1.42858 0,0.47619 0,0.95238 0,1.42857"
       id="path5499"
       inkscape:connector-curvature="0" />
    <text
       xml:space="preserve"
       style="font-size:10px;font-style:normal;font-weight:normal;line-height:125%;letter-spacing:0px;word-spacing:0px;fill:#000000;fill-opacity:1;stroke:none;font-family:Bitstream Vera Sans"
       x="292.85715"
       y="160.93361"
       id="text5501"
       sodipodi:linespacing="125%"><tspan
         sodipodi:role="line"
         id="tspan5503"
         x="292.85715"
         y="160.93361"
         style="font-size:40px">vpt</tspan></text>
    <text
       xml:space="preserve"
       style="font-size:10px;font-style:normal;font-weight:normal;line-height:125%;letter-spacing:0px;word-spacing:0px;fill:#000000;fill-opacity:1;stroke:none;font-family:Bitstream Vera Sans"
       x="246.08121"
       y="495.10214"
       id="text5501-8"
       sodipodi:linespacing="125%"><tspan
         sodipodi:role="line"
         id="tspan5503-2"
         x="246.08121"
         y="495.10214"
         style="font-size:40px">a*</tspan></text>
    <text
       xml:space="preserve"
       style="font-size:10px;font-style:normal;font-weight:normal;line-height:125%;letter-spacing:0px;word-spacing:0px;fill:#000000;fill-opacity:1;stroke:none;font-family:Bitstream Vera Sans"
       x="447.50977"
       y="812.245"
       id="text5501-4"
       sodipodi:linespacing="125%"><tspan
         sodipodi:role="line"
         id="tspan5503-5"
         x="447.50977"
         y="812.245"
         style="font-size:40px">b</tspan></text>
    <text
       xml:space="preserve"
       style="font-size:10px;font-style:normal;font-weight:normal;line-height:125%;letter-spacing:0px;word-spacing:0px;fill:#000000;fill-opacity:1;stroke:none;font-family:Bitstream Vera Sans"
       x="330.36691"
       y="915.10211"
       id="text5501-2"
       sodipodi:linespacing="125%"><tspan
         sodipodi:role="line"
         id="tspan5503-6"
         x="330.36691"
         y="915.10211"
         style="font-size:40px">b*</tspan></text>
    <text
       xml:space="preserve"
       style="font-size:10px;font-style:normal;font-weight:normal;line-height:125%;letter-spacing:0px;word-spacing:0px;fill:#000000;fill-opacity:1;stroke:none;font-family:Bitstream Vera Sans"
       x="408.93835"
       y="496.53073"
       id="text5501-26"
       sodipodi:linespacing="125%"><tspan
         sodipodi:role="line"
         id="tspan5503-1"
         x="408.93835"
         y="496.53073"
         style="font-size:40px">a</tspan></text>
  </g>
</svg>
