<?xml version="1.0" encoding="UTF-8" standalone="no"?>
<!-- Created with Inkscape (http://www.inkscape.org/) -->

<svg
   xmlns:dc="http://purl.org/dc/elements/1.1/"
   xmlns:cc="http://creativecommons.org/ns#"
   xmlns:rdf="http://www.w3.org/1999/02/22-rdf-syntax-ns#"
   xmlns:svg="http://www.w3.org/2000/svg"
   xmlns="http://www.w3.org/2000/svg"
   xmlns:sodipodi="http://sodipodi.sourceforge.net/DTD/sodipodi-0.dtd"
   xmlns:inkscape="http://www.inkscape.org/namespaces/inkscape"
   width="744.09448819"
   height="1052.3622047"
   id="svg6333"
   version="1.1"
   inkscape:version="0.48.2 r9819"
   sodipodi:docname="line-dist.svg">
  <defs
     id="defs6335" />
  <sodipodi:namedview
     id="base"
     pagecolor="#ffffff"
     bordercolor="#666666"
     borderopacity="1.0"
     inkscape:pageopacity="0.0"
     inkscape:pageshadow="2"
     inkscape:zoom="0.7"
     inkscape:cx="359.21609"
     inkscape:cy="487.9797"
     inkscape:document-units="px"
     inkscape:current-layer="layer1"
     showgrid="false"
     inkscape:window-width="893"
     inkscape:window-height="932"
     inkscape:window-x="1683"
     inkscape:window-y="54"
     inkscape:window-maximized="0" />
  <metadata
     id="metadata6338">
    <rdf:RDF>
      <cc:Work
         rdf:about="">
        <dc:format>image/svg+xml</dc:format>
        <dc:type
           rdf:resource="http://purl.org/dc/dcmitype/StillImage" />
        <dc:title></dc:title>
      </cc:Work>
    </rdf:RDF>
  </metadata>
  <g
     inkscape:label="Layer 1"
     inkscape:groupmode="layer"
     id="layer1">
    <path
       style="fill:none;stroke:#000000;stroke-width:1px;stroke-linecap:butt;stroke-linejoin:miter;stroke-opacity:1"
       d="m 245.71429,99.505039 c -1.22968,2.656321 -5.45152,3.177271 -7.14286,5.714281 -0.59064,0.88597 -0.67565,2.10422 -1.42857,2.85715 -1.50585,1.50584 -4.20844,1.35129 -5.71429,2.85714 -0.75292,0.75292 -0.67565,2.10422 -1.42857,2.85714 -1.73998,1.73998 -3.19173,0.66918 -4.28571,2.85715 -0.21296,0.42591 0.21295,1.00265 0,1.42857 -0.60234,1.20468 -2.25481,1.65246 -2.85715,2.85714 -0.21296,0.42592 0.21296,1.00265 0,1.42857 -0.30117,0.60234 -1.05501,0.86824 -1.42857,1.42857 -0.59064,0.88597 -0.83793,1.97118 -1.42857,2.85715 -0.37355,0.56033 -0.95238,0.95238 -1.42857,1.42857 -0.47619,0.95238 -0.83793,1.97118 -1.42857,2.85714 -0.74711,1.12066 -2.25481,1.65247 -2.85715,2.85714 0,3.80953 0.47619,-0.47619 -1.42857,1.42857 -1.90476,1.90477 2.38096,1.42858 -1.42857,1.42858"
       id="path6341"
       inkscape:connector-curvature="0" />
    <path
       style="fill:none;stroke:#000000;stroke-width:1px;stroke-linecap:butt;stroke-linejoin:miter;stroke-opacity:1"
       d="m 205.71429,99.505039 c 12.93768,3.234421 2.07245,-0.523129 7.14285,2.857141 0.88597,0.59064 2.00531,0.7897 2.85715,1.42857 1.07749,0.80813 1.70221,2.16419 2.85714,2.85715 4.80179,2.88107 3.28821,-0.0339 7.14286,2.85714 1.07749,0.80812 1.6066,2.35693 2.85714,2.85714 1.32639,0.53056 2.88488,-0.28016 4.28571,0 5.74875,1.14975 0.65637,1.04247 4.28572,2.85714 0.42591,0.21296 1.00265,-0.21295 1.42857,0 0.60234,0.30117 0.82623,1.12741 1.42857,1.42858 0.42592,0.21296 1.09185,-0.33672 1.42857,0 0.33672,0.33671 -0.33672,1.09185 0,1.42857 0.67344,0.67343 2.18371,-0.67344 2.85714,0 0.33672,0.33672 -0.33671,1.09185 0,1.42857 0.33672,0.33672 1.00266,-0.21296 1.42858,0 5.94537,2.97269 -1.5272,-0.0986 1.42857,2.85714 0.33671,0.33672 1.09185,-0.33672 1.42857,0 0.33672,0.33672 -0.33672,1.09186 0,1.42857 0.67343,0.67344 2.18371,-0.67343 2.85714,0 0.33672,0.33672 -0.33672,1.09186 0,1.42857 0.33672,0.33672 1.09186,-0.33671 1.42857,0 0.67344,0.67344 -0.67343,2.18371 0,2.85715 0.33672,0.33672 1.09186,-0.33672 1.42857,0 0.67344,0.67343 -0.67343,2.18371 0,2.85714 0.33672,0.33672 1.09186,-0.33672 1.42858,0 0.33671,0.33672 0,0.95238 0,1.42857 0,0.47619 0,0.95238 0,1.42857"
       id="path6343"
       inkscape:connector-curvature="0" />
    <path
       style="fill:none;stroke:#000000;stroke-width:1px;stroke-linecap:butt;stroke-linejoin:miter;stroke-opacity:1"
       d="m 228.57143,113.79075 c 0.47619,1.90477 0.69939,3.89133 1.42857,5.71429 0.55617,1.39041 3.58243,2.87915 4.28571,4.28571 1.75926,3.51851 -4.14676,-1.28962 1.42858,4.28572 0.75292,0.75292 2.10422,0.67565 2.85714,1.42857 0.75292,0.75292 0.83793,1.97118 1.42857,2.85714 0.37355,0.56033 1.02451,0.88983 1.42857,1.42857 1.03016,1.37355 1.78459,2.94502 2.85714,4.28572 0.84139,1.05173 1.9949,1.82245 2.85715,2.85714 3.04849,3.6582 5.55601,7.74306 8.57143,11.42857 3.7367,4.56709 11.90696,13.62191 15.71428,18.57143 2.49759,3.24686 4.64527,6.75314 7.14286,10 4.8814,6.34582 8.27385,9.41226 12.85714,15.71429 2.0197,2.77708 3.56917,5.89003 5.71429,8.57143 1.68276,2.10345 3.92466,3.70095 5.71428,5.71428 2.02572,2.27893 3.68857,4.86393 5.71429,7.14286 1.78962,2.01332 4.06049,3.58797 5.71428,5.71428 1.7047,2.19175 2.85715,4.76191 4.28572,7.14286 1.42857,2.38095 3.04396,4.65935 4.28571,7.14286 1.14682,2.29363 1.796,4.80834 2.85715,7.14286 1.32184,2.90805 2.94708,5.67105 4.28571,8.57142 1.51974,3.29277 2.56636,6.80692 4.28571,10 1.628,3.02342 4.0863,5.54802 5.71429,8.57143 1.71935,3.19308 2.7521,6.71368 4.28571,10 3.60229,7.71919 7.96894,15.07297 11.42858,22.85715 2.08297,4.68669 3.53048,9.64514 5.71428,14.28571 1.63471,3.47375 3.91799,6.60699 5.71429,10 2.49102,4.70526 4.47535,9.67821 7.14285,14.28571 4.27796,7.3892 14.10141,20.2659 18.57143,27.14286 3.02648,4.65612 5.54495,9.6296 8.57143,14.28572 3.16783,4.87357 6.969,9.32588 10,14.28571 3.2093,5.25158 10.81207,22.84819 12.85714,27.14286 2.28896,4.8068 5.20281,9.3278 7.14286,14.28571 2.36018,6.03156 3.59563,12.45086 5.71429,18.57143 6.09554,17.60934 7.64351,18.73976 14.28571,35.71429 4.06208,10.38087 7.61905,20.95238 11.42857,31.42857 1.90477,5.23809 3.64428,10.53926 5.71429,15.71428 10.22829,25.57072 1.08842,0.65108 11.42857,24.28572 4.23663,6.50393 4.247,14.47851 7.14286,21.42857 1.06794,2.56305 3.13673,4.61509 4.28571,7.14286 1.24625,2.74174 1.73863,5.77514 2.85714,8.57142 1.58182,3.95455 4.13247,7.47403 5.71429,11.42858 7.73775,19.34436 -2.82529,-3.02624 7.14286,18.57142 1.33863,2.90037 2.67615,5.81219 4.28571,8.57143 3.96287,6.79349 6.60921,8.93271 10,15.71429 6.12275,12.2455 -0.3448,2.25374 5.71429,12.85714 0.85183,1.49071 1.82698,2.91217 2.85714,4.28572 0.40406,0.53874 1.1274,0.82623 1.42857,1.42857 0.21296,0.42591 -0.33672,1.09185 0,1.42857 0.33672,0.33672 1.09186,-0.33672 1.42857,0 0.71429,0.71428 -0.71428,3.57143 0,4.28571 0.33672,0.33672 1.09186,-0.33672 1.42857,0 0.33672,0.33672 -0.33671,1.09186 0,1.42857 0.33672,0.33672 1.09186,-0.33671 1.42858,0 0.67343,0.67344 -0.67344,2.18371 0,2.85715 0.33671,0.33671 1.09185,-0.33672 1.42857,0 0.67343,0.67343 -0.67344,2.1837 0,2.85714 0.33671,0.33672 1.09185,-0.33672 1.42857,0 0.67343,0.67343 -0.67344,2.18371 0,2.85714 0.33672,0.33672 1.09185,-0.33672 1.42857,0 0.33672,0.33672 -0.21296,1.00266 0,1.42857 0.30117,0.60234 1.1274,0.82624 1.42857,1.42858 0.21296,0.42591 -0.33672,1.09185 0,1.42857 0.33672,0.33671 1.09186,-0.33672 1.42857,0 0.67344,0.67343 -0.67343,2.1837 0,2.85714 0.33672,0.33672 1.09186,-0.33672 1.42857,0 1.90477,1.90476 -2.38095,1.42857 1.42858,1.42857"
       id="path6345"
       inkscape:connector-curvature="0" />
    <path
       style="fill:none;stroke:#000000;stroke-width:1px;stroke-linecap:butt;stroke-linejoin:miter;stroke-opacity:1"
       d="m 447.14286,299.50504 c 0.47619,1.90476 1.04352,3.78903 1.42857,5.71429 0.18678,0.93388 0,1.90476 0,2.85714 0,2.38095 0,4.7619 0,7.14286 0,1.4856 0.28093,7.44769 0,8.57142 -0.25825,1.03301 -1.17032,1.82414 -1.42857,2.85715 -0.23099,0.92394 0,1.90476 0,2.85714 0,1.42857 0,2.85714 0,4.28571 0,2.85715 0,5.71429 0,8.57143 0,11.90476 0,23.80953 0,35.71429 0,7.14286 0,14.28571 0,21.42857 0,3.33333 0.4714,6.70017 0,10 -0.49027,3.43188 -2.33001,6.57359 -2.85715,10 -0.43444,2.82392 0.21914,5.7227 0,8.57143 -0.25825,3.35726 -1.14894,6.64445 -1.42857,10 -0.19772,2.37273 0,4.7619 0,7.14286 0,1.90476 0.46198,3.86639 0,5.71428 -0.5165,2.06601 -2.1837,3.69398 -2.85714,5.71429 -5.87516,17.62549 2.4738,-3.27494 -1.42857,14.28571 -0.46197,2.07888 -2.24521,3.67451 -2.85714,5.71429 -0.83232,2.77439 -0.66644,5.77694 -1.42858,8.57143 -0.67472,2.474 -2.35423,4.62829 -2.85714,7.14285 -0.93388,4.66943 1.033,9.63721 0,14.28572 -0.46197,2.07887 -2.34064,3.64828 -2.85714,5.71428 -0.46197,1.84789 0,3.80953 0,5.71429 0,4.28571 0,8.57143 0,12.85714 0,1.42857 0.23485,2.87658 0,4.28572 -0.24756,1.48535 -1.21561,2.795 -1.42857,4.28571 -0.53875,3.77124 0.47251,7.64846 0,11.42857 -0.24353,1.94822 -1.23321,3.76065 -1.42857,5.71429 -0.2843,2.84296 0,5.71428 0,8.57143 0,7.14285 0,14.28571 0,21.42857 0,5.71428 0,11.42857 0,17.14285 0,1.13994 -0.28569,6.2858 0,7.14286 0.33671,1.01015 1.09185,1.84699 1.42857,2.85714 0.28394,0.85182 0,7.18734 0,8.57143 0,6.66667 0,13.33334 0,20"
       id="path6347"
       inkscape:connector-curvature="0" />
    <path
       style="fill:none;stroke:#000000;stroke-width:1px;stroke-linecap:butt;stroke-linejoin:miter;stroke-opacity:1"
       d="m 437.14286,633.79075 c -0.95238,-1.90476 -4.76191,-4.7619 -2.85715,-5.71428 1.90477,-0.95238 4.76191,6.66666 2.85715,5.71428 -2.72721,-1.3636 -3.55824,-4.98681 -5.71429,-7.14285 -0.0459,-0.046 -3.93925,0 -4.28571,0 -0.67357,0 -7.07811,-0.0648 -7.14286,0 -0.33672,0.33671 0.33672,1.09185 0,1.42857 -0.33672,0.33672 -1.09185,-0.33672 -1.42857,0 -0.33672,0.33672 0.33672,1.09185 0,1.42857 -0.33672,0.33672 -1.09186,-0.33672 -1.42857,0 -0.33672,0.33672 0.33671,1.09185 0,1.42857 -0.33672,0.33672 -1.09186,-0.33672 -1.42857,0 -0.67344,0.67344 0.67343,2.18371 0,2.85714 -0.33672,0.33672 -1.09186,-0.33671 -1.42858,0 -0.67343,0.67344 0.67344,2.18371 0,2.85715 -0.33671,0.33671 -1.09185,-0.33672 -1.42857,0 -0.71428,0.71428 0.71429,3.57143 0,4.28571 -0.33671,0.33672 -1.09185,-0.33672 -1.42857,0 -0.0575,0.0575 0,5.18966 0,5.71429 0,0.47619 -0.33672,1.09185 0,1.42857 0.33672,0.33672 1.09186,-0.33672 1.42857,0 0.33672,0.33672 -0.33671,1.09185 0,1.42857 0.33672,0.33672 1.09186,-0.33672 1.42857,0 0.33672,0.33672 0,0.95238 0,1.42857 0.47619,0 1.09186,-0.33672 1.42858,0 0.33671,0.33672 -0.33672,1.09185 0,1.42857 0.67343,0.67344 2.1837,-0.67343 2.85714,0 0.33672,0.33672 -0.33672,1.09186 0,1.42857 0.33672,0.33672 0.95238,0 1.42857,0 0.47619,0 0.95238,0 1.42857,0 4.28572,0 8.57143,0 12.85714,0 0.95239,0 1.90477,0 2.85715,0 0.47619,0 1.00265,0.21296 1.42857,0 0.60234,-0.30117 0.82623,-1.1274 1.42857,-1.42857 0.42592,-0.21296 1.00265,0.21296 1.42857,0 5.94537,-2.97268 -1.52719,0.0986 1.42857,-2.85714 0.33672,-0.33672 1.09186,0.33672 1.42857,0 0.33672,-0.33672 -0.21295,-1.00265 0,-1.42857 0.30117,-0.60234 1.12741,-0.82623 1.42858,-1.42857 0.42591,-0.85184 -0.67344,-2.18371 0,-2.85715 0.33671,-0.33671 1.09185,0.33672 1.42857,0 0.33671,-0.33671 0,-0.95238 0,-1.42857 0,-0.67357 0.0647,-7.07811 0,-7.14285 -0.33672,-0.33672 -1.09186,0.33671 -1.42857,0 -0.71429,-0.71429 0.71428,-3.57143 0,-4.28572 -0.33672,-0.33672 -1.09186,0.33672 -1.42858,0 -0.33671,-0.33672 0.33672,-1.09185 0,-1.42857 -0.33671,-0.33672 -1.09185,0.33672 -1.42857,0 -0.67343,-0.67344 0.67344,-2.18371 0,-2.85714 -0.33671,-0.33672 -1.09185,0.33671 -1.42857,0 -0.33672,-0.33672 0.33672,-1.09186 0,-1.42857 -0.0575,-0.0575 -5.18966,0 -5.71428,0"
       id="path6349"
       inkscape:connector-curvature="0" />
    <path
       style="fill:none;stroke:#000000;stroke-width:1px;stroke-linecap:butt;stroke-linejoin:miter;stroke-opacity:1"
       d="m 441.42857,295.21933 c -3.20488,5.04293 -2.85714,5.38607 -2.85714,10 0,2.85714 0,5.71428 0,8.57142 0,0.47619 -0.33672,1.09186 0,1.42858 0.33672,0.33671 1.09185,-0.33672 1.42857,0 0.33672,0.33671 -0.21296,1.00265 0,1.42857 0.30117,0.60234 1.1274,0.82623 1.42857,1.42857 0.98526,1.97051 -1.73008,1.27782 1.42857,2.85714 0.85184,0.42592 2.00531,-0.42592 2.85715,0 0.60233,0.30117 0.82623,1.1274 1.42857,1.42857 0.56641,0.28321 3.99366,-0.29205 4.28571,0 0.33672,0.33672 -0.33672,1.09186 0,1.42857 0.20147,0.20147 3.99268,0.14652 4.28572,0 0.60233,-0.30117 0.82623,-1.1274 1.42857,-1.42857 1.97051,-0.98525 1.27782,1.73008 2.85714,-1.42857 0.21296,-0.42592 -0.21296,-1.00265 0,-1.42857 0.30117,-0.60234 1.1274,-0.82623 1.42857,-1.42857 0.21296,-0.42592 -0.21296,-1.00266 0,-1.42857 0.60234,-1.20468 2.25481,-1.65247 2.85714,-2.85715 0.21296,-0.42591 -0.21295,-1.00265 0,-1.42857 0.30117,-0.60234 1.12741,-0.82623 1.42858,-1.42857 0.18467,-0.36936 0,-7.55885 0,-8.57143 0,-0.47619 0.33671,-1.09185 0,-1.42857 -0.33672,-0.33672 -1.09186,0.33672 -1.42858,0 -0.67343,-0.67343 0.67344,-2.18371 0,-2.85714 -0.33671,-0.33672 -1.09185,0.33672 -1.42857,0 -0.67343,-0.67344 0.67344,-2.18371 0,-2.85714 -0.33671,-0.33672 -1.09185,0.33671 -1.42857,0 -0.33672,-0.33672 0.33672,-1.09186 0,-1.42858 -0.67343,-0.67343 -2.18371,0.67344 -2.85714,0 -0.33672,-0.33671 0.33672,-1.09185 0,-1.42857 -0.67344,-0.67343 -2.18371,0.67344 -2.85714,0 -0.33672,-0.33672 0.33671,-1.09185 0,-1.42857 -0.33672,-0.33672 -0.95238,0 -1.42858,0 -0.47619,0 -0.95238,0 -1.42857,0 -6.12691,0 -3.67356,-0.36729 -11.42857,4.28572 z"
       id="path6351"
       inkscape:connector-curvature="0" />
    <path
       style="fill:none;stroke:#000000;stroke-width:1px;stroke-linecap:butt;stroke-linejoin:miter;stroke-opacity:1"
       d="m 384.28571,356.6479 c -0.73005,-8.62315 5.42593,0.28835 7.14286,-1.42857 0.33672,-0.33672 -0.33672,-1.09186 0,-1.42858 0.33672,-0.33671 1.00266,0.21296 1.42857,0 6.53801,-3.269 -6.06202,0.59211 4.28572,-2.85714 0.45175,-0.15058 1.00265,0.21296 1.42857,0 1.2662,-0.6331 2.98526,-3.41875 4.28571,-4.28571 0.71942,-3.14738 2.93885,-0.75514 4.28572,-1.42857 0.3793,-0.18966 4.09606,-3.90642 4.28571,-4.28572 0.21296,-0.42592 -0.33672,-1.09185 0,-1.42857 0.33672,-0.33672 1.09186,0.33672 1.42857,0 0.33672,-0.33672 -0.33671,-1.09185 0,-1.42857 0.67344,-0.67344 2.18371,0.67343 2.85715,0 0.67343,-0.67344 -0.67344,-2.18371 0,-2.85714 0.33671,-0.33672 1.09185,0.33671 1.42857,0 0.33671,-0.33672 -0.33672,-1.09186 0,-1.42858 0.33671,-0.33671 1.09185,0.33672 1.42857,0 0.33672,-0.33671 -0.33672,-1.09185 0,-1.42857 0.33672,-0.33672 1.09185,0.33672 1.42857,0 0.33672,-0.33672 -0.33672,-1.09185 0,-1.42857 0.33672,-0.33672 1.09185,0.33672 1.42857,0 0.33672,-0.33672 -0.33672,-1.09185 0,-1.42857 0.33672,-0.33672 1.09186,0.33672 1.42857,0 0.67344,-0.67344 -0.67343,-2.18371 0,-2.85714 0.33672,-0.33672 1.09186,0.33671 1.42857,0 0.33672,-0.33672 -0.33671,-1.09186 0,-1.42857 0.67344,-0.67344 2.18371,0.67343 2.85715,0 0,-3.80953 -0.47619,0.47619 1.42857,-1.42858 0.33672,-0.33671 -0.33672,-1.09185 0,-1.42857 0.33672,-0.33672 1.09185,0.33672 1.42857,0 0.33672,-0.33672 -0.33672,-1.09185 0,-1.42857 0.29205,-0.29205 3.7193,0.28321 4.28571,0 0.60234,-0.30117 0.82624,-1.1274 1.42858,-1.42857 1.97051,-0.98526 1.27781,1.73008 2.85714,-1.42857 0.21296,-0.42592 -0.33672,-1.09186 0,-1.42857 0.67343,-0.67344 2.18371,0.67343 2.85714,0 1.90476,-1.90477 -2.38095,-1.42857 1.42857,-1.42857"
       id="path6353"
       inkscape:connector-curvature="0" />
    <text
       xml:space="preserve"
       style="font-size:10px;font-style:normal;font-weight:normal;line-height:125%;letter-spacing:0px;word-spacing:0px;fill:#000000;fill-opacity:1;stroke:none;font-family:Bitstream Vera Sans"
       x="392.85715"
       y="329.50504"
       id="text6355"
       sodipodi:linespacing="125%"><tspan
         sodipodi:role="line"
         id="tspan6357"
         x="392.85715"
         y="329.50504"
         style="font-size:30px">d</tspan></text>
    <text
       xml:space="preserve"
       style="font-size:10px;font-style:normal;font-weight:normal;line-height:125%;letter-spacing:0px;word-spacing:0px;fill:#000000;fill-opacity:1;stroke:none;font-family:Bitstream Vera Sans"
       x="278.57144"
       y="119.50504"
       id="text6397"
       sodipodi:linespacing="125%"><tspan
         sodipodi:role="line"
         id="tspan6399"
         x="278.57144"
         y="119.50504"
         style="font-size:30px">vpt</tspan></text>
    <text
       xml:space="preserve"
       style="font-size:10px;font-style:normal;font-weight:normal;line-height:125%;letter-spacing:0px;word-spacing:0px;fill:#000000;fill-opacity:1;stroke:none;font-family:Bitstream Vera Sans"
       x="475.71429"
       y="308.07648"
       id="text6401"
       sodipodi:linespacing="125%"><tspan
         sodipodi:role="line"
         id="tspan6403"
         x="475.71429"
         y="308.07648"
         style="font-size:30px">a</tspan></text>
    <text
       xml:space="preserve"
       style="font-size:10px;font-style:normal;font-weight:normal;line-height:125%;letter-spacing:0px;word-spacing:0px;fill:#000000;fill-opacity:1;stroke:none;font-family:Bitstream Vera Sans"
       x="461.42856"
       y="653.79077"
       id="text6405"
       sodipodi:linespacing="125%"><tspan
         sodipodi:role="line"
         id="tspan6407"
         x="461.42856"
         y="653.79077"
         style="font-size:30px">b</tspan></text>
  </g>
</svg>
